<svg width="30" height="30" viewBox="0 0 30 30" fill="none" xmlns="http://www.w3.org/2000/svg">
<path d="M26.3149 0C26.5092 0.0377091 26.6853 0.0432395 26.8376 0.0502989C27.0147 0.0585102 27.1658 0.0692181 27.328 0.120807L27.4107 0.147304L27.4902 0.112274C27.51 0.103539 27.5221 0.0985931 27.5306 0.0956578C27.5318 0.0952328 27.5328 0.094602 27.5337 0.0943105C27.5362 0.0948226 27.5411 0.0959196 27.5485 0.0983524C27.5963 0.113897 27.6552 0.128735 27.7066 0.141915C27.7618 0.156049 27.8157 0.169896 27.8665 0.185926C27.8934 0.194417 27.9177 0.202691 27.9388 0.211076C27.9056 0.267195 27.8602 0.35776 27.8557 0.476492C27.8563 0.460545 27.8593 0.468718 27.8391 0.511971C27.8222 0.548271 27.7971 0.59274 27.7668 0.640862C27.7063 0.737034 27.6352 0.831612 27.5966 0.878884C27.4512 1.05695 27.3156 1.2564 27.1902 1.42768C27.0603 1.60505 26.9329 1.76454 26.786 1.89744C26.7319 1.94641 26.7141 2.00745 26.7096 2.02229C26.7046 2.03894 26.7017 2.05525 26.6993 2.06899L26.6984 2.07034C26.6653 2.10047 26.6218 2.13897 26.5767 2.17812C26.5318 2.21712 26.4862 2.25598 26.4496 2.2868C26.4313 2.30221 26.4155 2.31545 26.4033 2.32543C26.3916 2.33505 26.3861 2.33936 26.3849 2.34025L26.3185 2.38965L26.2987 2.46959L26.2758 2.55896C26.2317 2.59108 26.1797 2.63945 26.1456 2.70716L26.1249 2.74848L26.1213 2.78845C26.1074 2.79423 26.093 2.80082 26.08 2.80686C26.0711 2.81101 26.0592 2.81672 26.0472 2.82348C26.0413 2.82681 26.032 2.83269 26.0216 2.84009C26.0157 2.84429 25.9895 2.86233 25.9664 2.89398L25.9538 2.9088C25.9448 2.91922 25.9335 2.93253 25.9197 2.94788C25.8832 2.98828 25.8669 3.00542 25.824 3.05296C25.7908 3.08973 25.7558 3.12908 25.7279 3.16299C25.7142 3.17967 25.6996 3.19829 25.687 3.21644C25.6808 3.22546 25.6729 3.23749 25.6655 3.25102C25.66 3.26102 25.6453 3.28769 25.6376 3.32332L25.6372 3.32557C25.6229 3.39417 25.594 3.43771 25.5388 3.49173C25.5068 3.52307 25.4725 3.55148 25.4243 3.59368C25.379 3.63333 25.3263 3.68063 25.2734 3.73829C25.2024 3.81563 25.1227 3.9425 25.0632 4.03424C25.0302 4.08518 25.0006 4.13102 24.9734 4.16897C24.9714 4.17182 24.9686 4.17442 24.9667 4.17706C24.9488 4.17906 24.9214 4.18337 24.8917 4.19367C24.8649 4.20295 24.8109 4.22572 24.7682 4.28035L24.7677 4.28125C24.6959 4.37396 24.6391 4.47833 24.5944 4.55565C24.5463 4.63876 24.5066 4.7007 24.4596 4.75055C24.4554 4.75404 24.4489 4.75942 24.4394 4.76672C24.4294 4.77448 24.4179 4.78333 24.4049 4.79322C24.3921 4.80285 24.378 4.81342 24.364 4.82421C24.3372 4.84489 24.3049 4.87027 24.2782 4.89471C24.2654 4.90645 24.2477 4.92357 24.2315 4.94367C24.2235 4.95366 24.2118 4.97 24.201 4.99082C24.1917 5.0085 24.1722 5.05006 24.1727 5.10624C24.1728 5.1171 24.1643 5.15549 24.0555 5.2486C24.0319 5.26879 24.0066 5.289 23.9791 5.31103C23.9526 5.33227 23.9229 5.35599 23.8947 5.37974C23.841 5.42496 23.7741 5.48565 23.7254 5.55983C23.5799 5.78167 23.4745 5.929 23.2906 6.10054C23.227 6.15986 23.1703 6.24239 23.1326 6.29635C23.086 6.36294 23.0567 6.4031 23.0329 6.42614L23.0297 6.42928C22.7813 6.67777 22.5724 6.95437 22.374 7.21475C22.1725 7.47927 21.9809 7.72838 21.7565 7.94813L21.7543 7.95037L21.7516 7.95262C21.5144 8.19922 21.3084 8.47582 21.1323 8.76144C21.0815 8.84373 21.0101 8.91411 20.9136 9.00261C20.8237 9.08498 20.7058 9.18844 20.6113 9.31832C20.568 9.37789 20.5402 9.43702 20.5206 9.48314C20.4968 9.53921 20.4921 9.55556 20.4788 9.58239L20.4779 9.58284L20.4025 9.59048L20.3446 9.64572C20.2287 9.75677 20.1839 9.85487 20.1622 9.88913C20.1506 9.90755 20.1308 9.94189 20.0059 10.0149L19.9453 10.0504L19.9148 10.1132C19.8519 10.2429 19.79 10.3291 19.7199 10.4182C19.6499 10.5071 19.5601 10.6126 19.4661 10.7577L19.397 10.8641L19.4504 10.9795C19.4709 11.0235 19.5036 11.0981 19.5371 11.1578L19.6624 11.381L19.8708 11.2328C19.9674 11.1642 20.0437 11.1122 20.1128 11.0536C20.1729 11.0028 20.225 10.9475 20.2889 10.874C20.349 10.8543 20.4226 10.8301 20.482 10.8053L20.5386 10.7819L20.5759 10.733C20.6305 10.6614 20.6871 10.591 20.7443 10.521C20.8237 10.4947 20.9327 10.4443 21.0056 10.327L21.0389 10.2736L21.0398 10.226C21.0563 10.2179 21.0766 10.2085 21.1017 10.1977C21.1554 10.1745 21.2476 10.1375 21.3223 10.0831C21.4164 10.0145 21.5085 9.91897 21.5823 9.84197C21.663 9.75781 21.7239 9.6932 21.7763 9.65155C21.9516 9.52564 22.1542 9.39331 22.3399 9.24332C22.4161 9.1818 22.4897 9.11773 22.5595 9.05695C22.6304 8.99526 22.6974 8.93671 22.7657 8.88135C22.862 8.80315 22.9334 8.75597 23.0311 8.62357C23.0328 8.62234 23.035 8.62116 23.0374 8.61953C23.0548 8.60746 23.0778 8.59237 23.1061 8.57417C23.1324 8.55719 23.1634 8.53734 23.19 8.51893C23.2035 8.50965 23.2182 8.49947 23.2318 8.48884C23.2381 8.48396 23.2455 8.47601 23.2547 8.46773L23.2552 8.46818C23.3294 8.40803 23.4121 8.34582 23.5013 8.27911C23.5894 8.21319 23.684 8.14273 23.7761 8.07028C23.9395 7.94177 24.1084 7.79624 24.2409 7.63421C24.3596 7.58555 24.4546 7.51296 24.5315 7.44469C24.5776 7.40376 24.622 7.36033 24.6604 7.32298C24.7005 7.28401 24.7356 7.25011 24.7709 7.22014L24.9384 7.0926C25 7.047 25.0746 6.99115 25.1324 6.93407C25.2697 6.79843 25.3205 6.73502 25.3983 6.6682C25.4599 6.61526 25.531 6.56876 25.6704 6.51461L25.7414 6.48721L25.7818 6.42299C25.8829 6.26245 25.9556 6.20889 26.0274 6.16521C26.1069 6.11688 26.2483 6.05145 26.4038 5.90608L26.4527 5.86027L26.4694 5.79605C26.4673 5.80381 26.469 5.79178 26.4972 5.75878C26.5235 5.72804 26.5627 5.69089 26.6158 5.6474C26.7225 5.5599 26.8632 5.46452 27.0164 5.36447C27.1649 5.26748 27.3268 5.16462 27.4587 5.06986C27.5253 5.02205 27.5895 4.97305 27.6437 4.92391C27.6732 4.89724 27.7032 4.86609 27.7313 4.83229C27.8859 4.77813 28.0274 4.71253 28.1553 4.64906C28.3087 4.57289 28.437 4.50584 28.5684 4.4546C28.8007 4.36405 29.0187 4.33359 29.3 4.45774C29.3553 4.52804 29.4205 4.60585 29.4734 4.67017C29.5488 4.76191 29.5985 4.82899 29.6189 4.87046C29.6154 4.86344 29.6193 4.86754 29.6216 4.89965C29.624 4.9346 29.6233 4.96464 29.6243 5.02226C29.6252 5.07617 29.6269 5.16762 29.6602 5.26163L29.644 5.28633L29.6476 5.36088C29.6492 5.39537 29.6576 5.44027 29.6638 5.4727C29.6711 5.51106 29.6805 5.55674 29.6898 5.60159C29.7096 5.69648 29.728 5.78411 29.7347 5.83333C29.7475 5.92613 29.739 6.02823 29.7249 6.1459C29.7125 6.24843 29.6906 6.391 29.7002 6.50967C29.7055 6.57601 29.717 6.65533 29.7276 6.72928C29.7386 6.80668 29.7495 6.88505 29.7563 6.96236C29.7709 7.129 29.7609 7.24158 29.7321 7.30053L29.6943 7.37732L29.7163 7.45996C29.732 7.51971 29.7489 7.58449 29.768 7.65083L29.7091 7.79633L29.7442 7.88301C29.791 7.99857 29.7908 8.05724 29.7832 8.11384C29.7782 8.15156 29.7695 8.18892 29.7563 8.25037C29.75 8.27947 29.7434 8.31174 29.737 8.34738L29.7195 8.46549C29.7044 8.59577 29.6992 8.73581 29.6934 8.86563C29.6875 8.99933 29.6806 9.12636 29.6642 9.24737C29.6313 9.49076 29.5636 9.67374 29.4222 9.79841C29.3564 9.85633 29.256 9.91164 29.1267 9.97311C29.01 10.0285 28.8572 10.0943 28.7391 10.1613C28.5896 10.2462 28.512 10.2759 28.3955 10.2659H28.3942L28.3295 10.2605L28.1899 10.2493L28.1157 10.3683C28.1032 10.3885 28.092 10.4038 28.0834 10.4173L27.9994 10.3966L27.9231 10.4361C27.413 10.6995 26.8799 10.9164 26.3306 11.0842L26.2399 11.112L26.2012 11.183C26.1889 11.1828 26.1765 11.1828 26.1653 11.183C26.1572 11.1831 26.1453 11.1834 26.1334 11.1843C26.128 11.1848 26.1171 11.1855 26.1042 11.1879C26.0979 11.1891 26.0861 11.1917 26.0719 11.1965C26.063 11.1995 26.0272 11.2116 25.992 11.2427L25.9848 11.249L25.978 11.2557C25.916 11.3206 25.8568 11.3478 25.7755 11.3689C25.7287 11.381 25.682 11.3893 25.6165 11.4026C25.5548 11.4151 25.483 11.4311 25.4054 11.456C25.2904 11.4931 25.1703 11.5482 25.0578 11.6047L24.7552 11.7601C24.7233 11.7755 24.6761 11.7891 24.602 11.8077C24.5384 11.8236 24.4473 11.8447 24.3685 11.8764L24.3658 11.8777C24.2718 11.9169 24.183 11.9682 24.1098 12.0098C24.0316 12.0542 23.9683 12.0892 23.9064 12.114C23.7593 12.1727 23.6047 12.2234 23.4388 12.2806C23.2765 12.3365 23.1059 12.3977 22.9444 12.4732C22.6032 12.6329 22.392 12.776 22.0821 12.8684C21.9938 12.8948 21.9137 12.9263 21.8818 12.9372C21.8449 12.9497 21.8051 12.9607 21.7246 12.969L21.6627 12.9753L21.6124 13.0126C21.5396 13.0661 21.5074 13.0919 21.4669 13.1096C21.3916 13.1423 21.0749 13.2542 20.7393 13.3845C20.5784 13.4469 20.4169 13.5122 20.2929 13.5695C20.2319 13.5977 20.1738 13.6268 20.1277 13.6548C20.1051 13.6685 20.0782 13.6862 20.054 13.7074C20.0405 13.7191 19.9817 13.7697 19.9633 13.8551L19.9318 14.0011L20.0527 14.0891C20.1526 14.1621 20.2736 14.1776 20.3603 14.1807C20.4537 14.184 20.5524 14.1738 20.6378 14.1618C20.7177 14.1507 20.815 14.1335 20.8705 14.125C20.9028 14.1201 20.9276 14.117 20.9459 14.1156C20.9578 14.1146 20.963 14.1147 20.963 14.1147L21.0847 14.1313C21.2045 14.1432 21.2946 14.1377 21.3829 14.1223C21.5069 14.1007 21.5434 14.0821 21.6824 14.0675L21.7848 14.0568L21.845 13.9728C21.8481 13.9684 21.8507 13.9644 21.8531 13.9611C21.8833 13.9618 21.9076 13.9638 21.9285 13.966C21.951 13.9685 22.0066 13.9765 22.0516 13.9764C22.153 13.9759 22.2352 13.9407 22.3215 13.8865C22.3728 13.8963 22.4288 13.9079 22.4796 13.9144L22.5887 13.9283L22.6682 13.852C22.6815 13.8392 22.6932 13.8284 22.7032 13.8187C22.704 13.8193 22.7047 13.8199 22.7055 13.8205L22.7939 13.8928L22.9049 13.8659C22.9525 13.8544 22.9975 13.844 23.0418 13.8277C23.0678 13.8182 23.0917 13.8069 23.1164 13.7945C23.1897 13.7992 23.2527 13.8043 23.3257 13.8142L23.4649 13.8331L23.5453 13.7181C23.549 13.7128 23.5523 13.7076 23.5556 13.7029C23.6559 13.7333 23.7461 13.7418 23.8435 13.7109C23.9585 13.6745 23.9457 13.654 24.0986 13.6328C24.1385 13.6273 24.181 13.6343 24.2845 13.6427C24.3641 13.6491 24.4945 13.6566 24.6195 13.6027L24.62 13.6032C24.667 13.5836 24.705 13.5705 24.7345 13.5614C24.7586 13.5684 24.7872 13.5747 24.8207 13.5762L24.8787 13.5789L24.9308 13.5538C24.9646 13.5375 24.9974 13.5179 25.0201 13.5044C25.0462 13.4888 25.0634 13.4782 25.0794 13.4702C25.0805 13.4697 25.0815 13.4689 25.0825 13.4684L25.0839 13.4693C25.097 13.475 25.1234 13.4872 25.1522 13.4963C25.217 13.5168 25.3107 13.5283 25.4117 13.4797L25.4122 13.4806C25.4162 13.4787 25.42 13.4762 25.4239 13.4743L25.4261 13.4734L25.4257 13.4729C25.4578 13.4566 25.4834 13.4371 25.5025 13.4208C25.5132 13.4235 25.5243 13.4273 25.5366 13.4289C25.5732 13.4336 25.6064 13.4309 25.6327 13.4271L25.7126 13.4159L25.7679 13.3571L25.7899 13.3333C25.9186 13.3322 26.049 13.331 26.1483 13.3413L26.2282 13.3499L26.2956 13.3063C26.3063 13.2995 26.3163 13.2936 26.3252 13.2879C26.3803 13.304 26.4353 13.3206 26.4905 13.336L26.5601 13.3553L26.6283 13.3315C26.68 13.3133 26.8236 13.2532 26.9544 13.1963C27.0408 13.1587 27.1366 13.1142 27.2054 13.0813C27.2874 13.0905 27.3632 13.0981 27.4273 13.1042C27.5131 13.1124 27.592 13.1222 27.6806 13.1437L27.7735 13.1662L27.8548 13.1163C28.0139 13.0188 28.0549 12.9998 28.0897 12.9933C28.125 12.9867 28.1702 12.9903 28.3542 13.0229L28.4391 13.0377L28.5132 12.9933C28.5425 12.9757 28.5721 12.9585 28.6017 12.9412C28.6418 12.9597 28.6986 12.9796 28.7656 12.9794H28.8119L28.8541 12.9614L28.8918 12.9457L28.9138 12.9363L28.9336 12.9228C28.9431 12.9162 28.9717 12.9006 29.0198 12.8846C29.0652 12.8695 29.1175 12.8573 29.168 12.8509C29.1768 12.8498 29.1855 12.8498 29.1936 12.8491L29.1909 12.8846L29.2861 12.9619C29.3915 13.047 29.4799 13.0763 29.5466 13.1065C29.6497 13.1531 29.7134 13.2072 29.7761 13.2973L29.7594 13.3261L29.7163 13.3997L29.7312 13.4833C29.7465 13.5689 29.7638 13.6381 29.794 13.7083C29.8069 13.738 29.8217 13.7663 29.8376 13.7945C29.8155 13.8649 29.8042 13.9354 29.7999 13.9997C29.7925 14.109 29.7992 14.2263 29.8053 14.3289C29.8187 14.5579 29.8251 14.7183 29.7779 14.8305L29.7347 14.9325L29.7361 14.9352L29.7347 14.9379L29.7779 15.0398C29.8251 15.1521 29.8187 15.3124 29.8053 15.5415C29.7992 15.6441 29.7925 15.7614 29.7999 15.8707C29.8042 15.9349 29.8156 16.0052 29.8376 16.0754C29.8216 16.1037 29.8069 16.1323 29.794 16.1621C29.7638 16.2323 29.7465 16.3014 29.7312 16.3871L29.7163 16.4707L29.7594 16.5443L29.7761 16.5726C29.7133 16.6629 29.6498 16.7172 29.5466 16.7639C29.4799 16.7941 29.3915 16.8234 29.2861 16.9085L29.1909 16.9858L29.1936 17.0208C29.1855 17.0201 29.1768 17.0205 29.168 17.0194C29.1175 17.0131 29.0652 17.0009 29.0198 16.9858C28.9717 16.9697 28.9431 16.9542 28.9336 16.9476L28.9138 16.9341L28.8918 16.9247L28.8541 16.909L28.8119 16.891H28.7656C28.6987 16.8908 28.6418 16.9103 28.6017 16.9287C28.5722 16.9115 28.5424 16.8947 28.5132 16.8771L28.4391 16.8326L28.3542 16.8474C28.1702 16.8801 28.125 16.8836 28.0897 16.8771C28.0549 16.8706 28.0139 16.8516 27.8548 16.754L27.7735 16.7042L27.6806 16.7266C27.592 16.7481 27.5131 16.758 27.4273 16.7662C27.3632 16.7722 27.2874 16.7795 27.2054 16.7886C27.1366 16.7557 27.0407 16.7116 26.9544 16.6741C26.8236 16.6172 26.68 16.5571 26.6283 16.5389L26.5601 16.5151L26.4905 16.5344C26.4353 16.5498 26.3803 16.5659 26.3252 16.582C26.3164 16.5763 26.3062 16.5709 26.2956 16.5641L26.2282 16.5205L26.1483 16.529C26.049 16.5393 25.9186 16.5378 25.7899 16.5367L25.7679 16.5133L25.7126 16.4545L25.6327 16.4433L25.5887 16.4392C25.5725 16.4387 25.5549 16.4391 25.5366 16.4415C25.5244 16.443 25.5132 16.4464 25.5025 16.4491C25.4834 16.4328 25.4582 16.4133 25.4261 16.397L25.4239 16.3957C25.4201 16.3938 25.4161 16.3916 25.4122 16.3898L25.4117 16.3903C25.3107 16.3417 25.217 16.3536 25.1522 16.3741C25.1234 16.3832 25.097 16.3953 25.0839 16.401L25.0825 16.4015C25.0816 16.401 25.0805 16.4007 25.0794 16.4001C25.0634 16.3921 25.0462 16.3816 25.0201 16.366C24.9974 16.3525 24.9646 16.3329 24.9308 16.3166L24.8787 16.2915L24.8207 16.2942C24.7872 16.2957 24.7586 16.3016 24.7345 16.3085C24.705 16.2995 24.6665 16.2868 24.6195 16.2672C24.4945 16.2134 24.3641 16.2212 24.2845 16.2277C24.181 16.2361 24.1385 16.2431 24.0986 16.2376C23.9457 16.2164 23.9585 16.1959 23.8435 16.1594C23.7461 16.1286 23.6558 16.1366 23.5556 16.1671C23.5524 16.1624 23.5489 16.1574 23.5453 16.1522L23.4649 16.0373L23.3257 16.0561C23.2528 16.0661 23.1896 16.0707 23.1164 16.0754C23.0918 16.0631 23.0677 16.0522 23.0418 16.0427C22.9975 16.0264 22.9525 16.016 22.9049 16.0045L22.7939 15.9775L22.7055 16.0498L22.7032 16.0512C22.6932 16.0416 22.6814 16.0311 22.6682 16.0184L22.5887 15.9421L22.4796 15.956C22.4289 15.9625 22.3728 15.9737 22.3215 15.9834C22.2353 15.9293 22.1529 15.8944 22.0516 15.894C22.0066 15.8938 21.951 15.9019 21.9285 15.9043C21.9076 15.9066 21.8833 15.9081 21.8531 15.9088C21.8508 15.9056 21.848 15.9018 21.845 15.8976L21.7848 15.8136L21.6824 15.8028L21.5944 15.7912C21.5196 15.7788 21.4759 15.7643 21.3829 15.7481C21.2946 15.7326 21.2045 15.7271 21.0847 15.7391L20.954 15.757C20.9664 15.7549 20.9675 15.7565 20.9459 15.7548C20.9276 15.7533 20.9028 15.7503 20.8705 15.7454C20.815 15.7369 20.7177 15.7197 20.6378 15.7085C20.5524 15.6966 20.4537 15.6864 20.3603 15.6897C20.2736 15.6927 20.1526 15.7083 20.0527 15.7813L19.9318 15.8693L19.9633 16.0153C19.9817 16.1007 20.0405 16.1513 20.054 16.163C20.0782 16.1841 20.1051 16.2019 20.1277 16.2156C20.1738 16.2436 20.2319 16.2727 20.2929 16.3009C20.4169 16.3582 20.5784 16.4235 20.7393 16.4859C21.0749 16.6162 21.3916 16.728 21.4669 16.7608C21.5074 16.7784 21.5396 16.8043 21.6124 16.8578L21.6627 16.895L21.7246 16.9013C21.8051 16.9097 21.8449 16.9207 21.8818 16.9332C21.9137 16.9441 21.9938 16.976 22.0821 17.0024C22.392 17.0949 22.6032 17.2375 22.9444 17.3971C23.1059 17.4727 23.2765 17.5339 23.4388 17.5898C23.6047 17.6469 23.7593 17.6977 23.9064 17.7564C23.9683 17.7811 24.0316 17.8162 24.1098 17.8606C24.183 17.9022 24.2718 17.9534 24.3658 17.9926L24.3685 17.994C24.4473 18.0257 24.5384 18.0468 24.602 18.0627C24.6761 18.0812 24.7233 18.0948 24.7552 18.1103L25.0578 18.2657C25.1703 18.3221 25.2904 18.3773 25.4054 18.4143C25.483 18.4393 25.5548 18.4553 25.6165 18.4678C25.682 18.4811 25.7287 18.4893 25.7755 18.5015C25.8568 18.5226 25.916 18.5498 25.978 18.6146L25.9848 18.6214L25.992 18.6277C26.0272 18.6588 26.063 18.6709 26.0719 18.6739C26.0861 18.6787 26.0979 18.6813 26.1042 18.6825C26.1171 18.6849 26.128 18.6856 26.1334 18.686C26.1453 18.687 26.1572 18.6873 26.1653 18.6874C26.1765 18.6875 26.1889 18.6871 26.2012 18.6869L26.2399 18.7584L26.3306 18.7862C26.8799 18.954 27.413 19.1708 27.9231 19.4342L27.9994 19.4738L28.0834 19.4531L28.0839 19.4527C28.0925 19.4661 28.1031 19.4817 28.1157 19.5021L28.1899 19.6211L28.3295 19.6098L28.3942 19.6045H28.3955C28.512 19.5945 28.5896 19.6242 28.7391 19.7091C28.8572 19.7761 29.01 19.8418 29.1267 19.8973C29.256 19.9587 29.3564 20.014 29.4222 20.072C29.5636 20.1966 29.6313 20.3796 29.6642 20.623C29.6806 20.744 29.6875 20.871 29.6934 21.0047C29.6992 21.1346 29.7044 21.2746 29.7195 21.4049L29.737 21.523C29.7434 21.5586 29.75 21.5909 29.7563 21.62C29.7695 21.6815 29.7782 21.7188 29.7832 21.7565C29.7908 21.8131 29.791 21.8718 29.7442 21.9874L29.7091 22.074L29.7442 22.1607L29.768 22.2191C29.7489 22.2856 29.732 22.3505 29.7163 22.4104L29.6943 22.493L29.7321 22.5698C29.7609 22.6288 29.7709 22.7414 29.7563 22.908C29.7495 22.9853 29.7386 23.0637 29.7276 23.1411C29.717 23.215 29.7055 23.2944 29.7002 23.3607C29.6906 23.4794 29.7125 23.6219 29.7249 23.7245C29.739 23.8421 29.7475 23.9442 29.7347 24.037C29.728 24.0863 29.7096 24.1739 29.6898 24.2688C29.6805 24.3136 29.6711 24.3593 29.6638 24.3977C29.6576 24.4301 29.6492 24.475 29.6476 24.5095L29.644 24.584L29.6602 24.6083C29.6268 24.7024 29.6252 24.7941 29.6243 24.8481C29.6233 24.9057 29.624 24.9358 29.6216 24.9707C29.6193 25.0028 29.6154 25.0069 29.6189 24.9999C29.5985 25.0414 29.5488 25.1085 29.4734 25.2002C29.4206 25.2644 29.3553 25.342 29.3 25.4122C29.0186 25.5364 28.8008 25.5063 28.5684 25.4158C28.437 25.3645 28.3087 25.2975 28.1553 25.2213C28.0273 25.1578 27.886 25.0918 27.7313 25.0376C27.7033 25.0039 27.6731 24.9731 27.6437 24.9465C27.5895 24.8973 27.5253 24.8483 27.4587 24.8005C27.3268 24.7058 27.1649 24.6029 27.0164 24.5059C26.8632 24.4059 26.7225 24.3105 26.6158 24.223C26.5627 24.1795 26.5235 24.1423 26.4972 24.1116C26.469 24.0786 26.4673 24.0666 26.4694 24.0743L26.4527 24.0101L26.4038 23.9643C26.2483 23.8189 26.1069 23.7535 26.0274 23.7052C25.9556 23.6615 25.8829 23.6079 25.7818 23.4474L25.7414 23.3832L25.6704 23.3558L25.5779 23.3162C25.4962 23.2779 25.4445 23.2419 25.3983 23.2022C25.3205 23.1354 25.2697 23.0719 25.1324 22.9363C25.0746 22.8792 25 22.8234 24.9384 22.7778L24.7709 22.6502C24.7356 22.6203 24.7005 22.5864 24.6604 22.5474C24.622 22.51 24.5776 22.4666 24.5315 22.4257C24.4546 22.3574 24.3596 22.2844 24.2409 22.2357C24.1084 22.0738 23.9394 21.9285 23.7761 21.8001C23.684 21.7276 23.5894 21.6572 23.5013 21.5913C23.4121 21.5245 23.3289 21.4623 23.2547 21.4022C23.2455 21.394 23.238 21.3864 23.2318 21.3815C23.2182 21.3709 23.2035 21.3607 23.19 21.3514C23.1634 21.333 23.1324 21.3132 23.1061 21.2962C23.0778 21.278 23.0548 21.2629 23.0374 21.2508C23.0349 21.2491 23.0328 21.2476 23.0311 21.2464C22.9335 21.1142 22.862 21.0672 22.7657 20.989C22.6974 20.9337 22.6304 20.8751 22.5595 20.8134C22.4897 20.7526 22.4161 20.6886 22.3399 20.627C22.1541 20.477 21.9517 20.3443 21.7763 20.2184C21.7239 20.1767 21.6629 20.1124 21.5823 20.0284C21.5085 19.9514 21.4164 19.8558 21.3223 19.7872C21.2476 19.7329 21.1554 19.6959 21.1017 19.6727C21.0765 19.6618 21.0564 19.652 21.0398 19.644L21.0389 19.5968L21.0056 19.5434L20.9657 19.489C20.8965 19.4094 20.8102 19.3708 20.7443 19.3489C20.6872 19.279 20.6304 19.2089 20.5759 19.1374L20.5386 19.0884L20.482 19.0651L20.3504 19.0166C20.3291 19.0094 20.3083 19.0023 20.2889 18.9959C20.2251 18.9226 20.1728 18.8675 20.1128 18.8167C20.0437 18.7582 19.9674 18.7062 19.8708 18.6375L19.6624 18.4893L19.5371 18.7125C19.5036 18.7723 19.4709 18.8468 19.4504 18.8908L19.397 19.0063L19.4661 19.1127C19.5601 19.2578 19.6499 19.3633 19.7199 19.4522C19.79 19.5413 19.8519 19.6275 19.9148 19.7571L19.9453 19.82L20.0059 19.8555C20.1308 19.9285 20.1506 19.9628 20.1622 19.9812C20.1839 20.0155 20.2287 20.1136 20.3446 20.2247L20.4025 20.2799L20.4779 20.2871L20.4788 20.288C20.4921 20.3148 20.4968 20.3312 20.5206 20.3872C20.5402 20.4334 20.568 20.4925 20.6113 20.552C20.7058 20.6819 20.8237 20.7854 20.9136 20.8678C21.0101 20.9563 21.0815 21.0266 21.1323 21.1089C21.3084 21.3945 21.5144 21.6712 21.7516 21.9178L21.7543 21.92L21.7565 21.9222C21.9809 22.142 22.1725 22.3911 22.374 22.6556C22.5724 22.916 22.7813 23.1926 23.0297 23.4411L23.0329 23.4442C23.0567 23.4673 23.086 23.5074 23.1326 23.574C23.1703 23.628 23.227 23.7105 23.2906 23.7698C23.4745 23.9414 23.5799 24.0887 23.7254 24.3105C23.7741 24.3847 23.841 24.4454 23.8947 24.4906C23.9229 24.5144 23.9526 24.5381 23.9791 24.5593C24.0066 24.5814 24.0319 24.6016 24.0555 24.6218C24.1632 24.7139 24.1726 24.7524 24.1727 24.7637C24.1721 24.82 24.1917 24.8618 24.201 24.8796C24.2118 24.9004 24.2235 24.9167 24.2315 24.9267C24.2477 24.9468 24.2654 24.9639 24.2782 24.9757C24.3049 25.0001 24.3372 25.0255 24.364 25.0462C24.378 25.057 24.3921 25.0675 24.4049 25.0772C24.4179 25.087 24.4294 25.0959 24.4394 25.1037C24.4487 25.1108 24.4554 25.1159 24.4596 25.1194C24.5067 25.1693 24.5462 25.2315 24.5944 25.3147C24.6391 25.392 24.6959 25.4964 24.7677 25.5891L24.7682 25.59C24.8109 25.6447 24.8649 25.6674 24.8917 25.6767C24.9214 25.687 24.9488 25.6913 24.9667 25.6933C24.9687 25.696 24.9713 25.6985 24.9734 25.7014C25.0006 25.7394 25.0302 25.7852 25.0632 25.8361C25.1227 25.9279 25.2024 26.0547 25.2734 26.1321C25.3263 26.1897 25.379 26.237 25.4243 26.2767C25.4725 26.3189 25.5068 26.3473 25.5388 26.3786C25.594 26.4327 25.6229 26.4762 25.6372 26.5448L25.6376 26.5471C25.6453 26.5827 25.66 26.6094 25.6655 26.6194C25.6729 26.6329 25.6808 26.6449 25.687 26.6539C25.6996 26.6721 25.7142 26.6907 25.7279 26.7074C25.7558 26.7413 25.7908 26.7806 25.824 26.8174C25.8669 26.865 25.8832 26.8821 25.9197 26.9225C25.9335 26.9378 25.9448 26.9512 25.9538 26.9616C25.9618 26.9709 25.9655 26.9749 25.9664 26.9759C25.9895 27.0077 26.0157 27.0261 26.0216 27.0303C26.032 27.0377 26.0413 27.0436 26.0472 27.0469C26.0592 27.0537 26.0711 27.0594 26.08 27.0635C26.0929 27.0695 26.1074 27.0757 26.1213 27.0815L26.1249 27.1219L26.1456 27.1632C26.1796 27.2308 26.2317 27.2788 26.2758 27.311L26.2987 27.4008L26.3185 27.4807L26.3849 27.5301C26.3861 27.531 26.3916 27.5353 26.4033 27.5449C26.4155 27.5549 26.4313 27.5682 26.4496 27.5836C26.4862 27.6144 26.5318 27.6533 26.5767 27.6923C26.6218 27.7314 26.6653 27.7699 26.6984 27.8L26.6993 27.8009C26.7017 27.8148 26.7046 27.8313 26.7096 27.8481C26.7141 27.8629 26.7316 27.9235 26.7855 27.9725L26.786 27.9729C26.9329 28.1058 27.0603 28.2653 27.1902 28.4427C27.3156 28.614 27.4512 28.8134 27.5966 28.9915C27.6352 29.0388 27.7063 29.1333 27.7668 29.2295C27.7971 29.2776 27.8222 29.3221 27.8391 29.3584C27.8593 29.4017 27.8563 29.4098 27.8557 29.3939C27.8602 29.5124 27.9056 29.6027 27.9388 29.6588C27.9177 29.6673 27.8935 29.6759 27.8665 29.6844C27.8157 29.7005 27.7618 29.7143 27.7066 29.7285C27.6552 29.7416 27.5963 29.7565 27.5485 29.772C27.5412 29.7744 27.5362 29.7751 27.5337 29.7756C27.5328 29.7753 27.5318 29.7751 27.5306 29.7747C27.5221 29.7718 27.51 29.7668 27.4902 29.7581L27.4107 29.7231L27.328 29.7496C27.1658 29.8012 27.0147 29.8119 26.8376 29.8201C26.6853 29.8271 26.5092 29.8322 26.3149 29.8699C26.2691 29.8513 26.2196 29.8391 26.1792 29.8313C26.1235 29.8205 26.0586 29.8119 25.9902 29.8044C25.853 29.7892 25.6874 29.7778 25.5227 29.7689C25.1823 29.7505 24.8598 29.7421 24.7233 29.7298L24.6299 29.7213L24.5576 29.7806L24.536 29.7976C24.4503 29.7785 24.3595 29.761 24.2692 29.759C24.1592 29.7565 24.052 29.7751 23.9405 29.8223C23.8166 29.7771 23.6966 29.762 23.5835 29.7594C23.4549 29.7566 23.2895 29.7719 23.1815 29.7752C23.1483 29.7762 23.1175 29.7802 23.0944 29.7837C23.0641 29.7883 23.0572 29.7897 23.036 29.7927C23.0024 29.7974 22.9998 29.7942 23.0073 29.7963C22.8503 29.7526 22.7207 29.8189 22.6718 29.8407C22.6113 29.8678 22.5962 29.8711 22.5752 29.869C22.5432 29.8659 22.5129 29.8552 22.4625 29.8304C22.4212 29.8101 22.3364 29.763 22.2442 29.741C22.1534 29.7195 22.0281 29.723 21.9402 29.7271C21.8906 29.7294 21.841 29.7327 21.7978 29.7356C21.7791 29.7369 21.7618 29.7378 21.7462 29.7388C21.6648 29.6989 21.5654 29.6544 21.4996 29.6229C21.3872 29.569 21.3324 29.5307 21.316 29.5102C21.2057 29.373 21.1177 29.205 21.0321 29.0144C20.952 28.8358 20.8637 28.6121 20.7712 28.4247C20.6454 28.1696 20.5242 27.934 20.4317 27.6891C20.4331 27.6939 20.4321 27.6935 20.4312 27.6851C20.4303 27.6753 20.4297 27.6612 20.4299 27.6429C20.4302 27.6034 20.4335 27.5678 20.4357 27.5256L20.4447 27.3568L20.3015 27.3033L20.3324 27.2306L20.2678 27.1291C20.1638 26.9663 20.0988 26.8417 20.0428 26.6692C19.992 26.513 19.913 26.3994 19.842 26.3005C19.8158 25.9501 19.6546 25.6842 19.52 25.4463L19.5335 25.4176L19.5245 25.3507C19.5136 25.27 19.4745 25.2128 19.4473 25.1796C19.4338 25.1631 19.4199 25.1489 19.4104 25.1391C19.399 25.1273 19.3937 25.122 19.3862 25.114C19.3662 25.0927 19.3628 25.0855 19.3606 25.0682C19.3508 24.9916 19.3198 24.8939 19.2959 24.8212C19.2679 24.7356 19.2446 24.6689 19.2313 24.6209L19.2128 24.571C19.1946 24.5311 19.1693 24.4966 19.1401 24.4673C19.1419 24.4277 19.1396 24.3718 19.1226 24.3137H19.1235C19.1215 24.3053 19.1179 24.2976 19.1154 24.2899C19.1139 24.286 19.113 24.2817 19.1113 24.2778C19.103 24.2551 19.0943 24.2362 19.0875 24.2239C19.0759 24.2026 19.0628 24.182 19.0507 24.1641C19.0267 24.1287 18.9974 24.0902 18.9735 24.0586C18.9484 24.0255 18.9289 23.9994 18.9146 23.9787C18.8956 23.7988 18.8415 23.6509 18.7781 23.5188C18.7446 23.4489 18.7075 23.3811 18.6735 23.3185C18.6385 23.2542 18.6056 23.1933 18.5751 23.129C18.5239 23.0179 18.4826 22.885 18.4341 22.732C18.3878 22.586 18.3348 22.4201 18.2621 22.2766C18.0537 21.8652 17.8661 21.4874 17.7385 21.0752L17.6873 20.8965L17.6711 20.8503C17.6653 20.8375 17.6599 20.8276 17.6567 20.822C17.6482 20.8069 17.6388 20.7926 17.6307 20.7806C17.6146 20.7568 17.5947 20.7293 17.5781 20.7065C17.5666 20.6907 17.5559 20.6758 17.5462 20.6621C17.5469 20.6588 17.5479 20.6555 17.5485 20.6522L17.5705 20.5368L17.4897 20.4515L17.4627 20.4232L17.3904 20.3468L17.2853 20.3518C17.236 20.354 17.1895 20.3664 17.1479 20.3886C17.1257 20.4004 17.1073 20.4136 17.0922 20.4263C17.0405 20.434 16.9962 20.4398 16.9418 20.4461C16.8652 20.4548 16.7824 20.4668 16.6692 20.4977L16.463 20.5538L16.5039 20.7636C16.5199 20.8452 16.5142 20.8967 16.521 21.0276C16.5238 21.0829 16.545 21.2352 16.5654 21.3667C16.5761 21.4358 16.5874 21.5053 16.5977 21.5616C16.6029 21.5896 16.6082 21.6159 16.613 21.638C16.6165 21.6537 16.6233 21.6854 16.6341 21.7125C16.6573 21.7703 16.6951 21.8113 16.7172 21.8333C16.7168 21.8388 16.7174 21.8451 16.7168 21.8517C16.7135 21.8847 16.7096 21.9119 16.7051 21.951C16.7031 21.9682 16.701 21.9874 16.6997 22.0062C16.6985 22.0239 16.6973 22.0484 16.6992 22.074C16.7097 22.2106 16.7494 22.3423 16.7837 22.4504C16.8206 22.5671 16.851 22.6567 16.8668 22.7445C16.8745 22.7877 16.8757 22.8361 16.8757 22.9035C16.8757 22.9648 16.8748 23.0484 16.8847 23.1312C16.9094 23.3362 16.9673 23.5718 16.9979 23.7433C17.0031 23.7729 17.0054 23.8035 17.0105 23.8561C17.0148 23.9014 17.0212 23.9648 17.0392 24.0272C17.0564 24.0865 17.0849 24.1277 17.0998 24.1493C17.0998 24.1493 17.1075 24.1621 17.1178 24.1978C17.1278 24.2327 17.1375 24.2783 17.1465 24.3357C17.1649 24.4524 17.1777 24.592 17.1946 24.7516C17.211 24.9064 17.2306 25.0759 17.2624 25.2348C17.2866 25.3559 17.3202 25.481 17.3697 25.5941L17.3495 25.6569L17.3257 25.7297L17.3504 25.802C17.4489 26.0896 17.4897 26.3249 17.531 26.64C17.5376 26.69 17.5549 26.7464 17.5687 26.7891C17.5836 26.8352 17.6029 26.8893 17.6185 26.9351C17.6352 26.9839 17.6491 27.0267 17.6585 27.0617C17.6643 27.0834 17.6662 27.0954 17.667 27.0999L17.6581 27.1565C17.6556 27.1665 17.6423 27.2152 17.6388 27.2598C17.6294 27.3764 17.6768 27.4721 17.7376 27.567C17.739 27.5713 17.7442 27.5874 17.7488 27.6208C17.7541 27.6599 17.7571 27.7085 17.7578 27.7623C17.759 27.8698 17.7512 27.9821 17.7452 28.0524L17.7331 28.1966L17.8579 28.2698L17.8876 28.2873C17.8853 28.5222 17.9364 28.7434 17.9688 28.9291L17.9819 29.0036L18.0367 29.0557C18.0378 29.0568 18.0387 29.0582 18.0398 29.0593C18.0349 29.0726 18.0299 29.0863 18.0263 29.1006C18.0184 29.132 18.0152 29.1639 18.0138 29.1945C17.8379 29.3363 17.586 29.5255 17.3909 29.6782C17.2947 29.6581 17.2047 29.6687 17.1371 29.6818C17.0883 29.6912 17.0392 29.7043 17.0015 29.7141C16.9604 29.7247 16.9292 29.7324 16.9009 29.737C16.8834 29.7398 16.8716 29.7399 16.8645 29.7401C16.8573 29.7345 16.8439 29.7244 16.8286 29.7145C16.786 29.6872 16.7303 29.663 16.6584 29.6593L16.591 29.6562L16.5326 29.6894L16.5133 29.7002L16.5124 29.7006C16.5124 29.7006 16.5106 29.7017 16.5093 29.7024C16.5069 29.7037 16.5036 29.7055 16.5003 29.7074C16.497 29.7092 16.4928 29.7117 16.4886 29.7141C16.4868 29.7151 16.4833 29.717 16.4792 29.7195C16.4593 29.7207 16.4334 29.7221 16.4024 29.7231C16.3269 29.7254 16.2293 29.7267 16.1311 29.7267C16.033 29.7266 15.9362 29.7251 15.863 29.7231C15.8335 29.7222 15.809 29.7209 15.7903 29.7199C15.7728 29.7119 15.7576 29.7064 15.7458 29.7033L15.7175 29.697L15.6708 29.6912C15.6253 29.6895 15.5834 29.6993 15.5478 29.7154C15.5275 29.7246 15.5119 29.7347 15.5024 29.741C15.4988 29.7434 15.4949 29.7459 15.4916 29.7482C15.3788 29.7571 15.1442 29.765 14.9329 29.7523L14.919 29.7514L14.9051 29.7523C14.6935 29.765 14.4586 29.7571 14.346 29.7482C14.3428 29.746 14.3391 29.7434 14.3356 29.741C14.3262 29.7347 14.3105 29.7246 14.2903 29.7154C14.2428 29.694 14.1842 29.6837 14.1205 29.697C14.1145 29.6983 14.1027 29.7006 14.0922 29.7033C14.0803 29.7064 14.0649 29.7118 14.0473 29.7199C14.0287 29.7209 14.0043 29.7222 13.975 29.7231C13.9018 29.7251 13.8051 29.7266 13.7069 29.7267C13.6087 29.7267 13.5111 29.7254 13.4357 29.7231C13.4044 29.7221 13.3783 29.7207 13.3584 29.7195C13.3544 29.7171 13.3512 29.7151 13.3494 29.7141C13.3452 29.7117 13.3411 29.7092 13.3377 29.7074C13.3344 29.7055 13.3311 29.7037 13.3288 29.7024C13.3275 29.7017 13.3256 29.7006 13.3256 29.7006L13.3247 29.7002L13.3054 29.6894L13.247 29.6562L13.1797 29.6593C13.1077 29.663 13.052 29.6872 13.0095 29.7145C12.994 29.7245 12.9803 29.7346 12.9731 29.7401C12.9659 29.7399 12.9543 29.7398 12.9372 29.737C12.9088 29.7324 12.8776 29.7247 12.8366 29.7141C12.7988 29.7043 12.7497 29.6912 12.7009 29.6818C12.6333 29.6687 12.543 29.6579 12.4467 29.6782C12.2515 29.5254 11.9996 29.3362 11.8238 29.1945C11.8224 29.1639 11.8196 29.132 11.8117 29.1006C11.8081 29.0862 11.8027 29.0727 11.7978 29.0593C11.799 29.0581 11.8001 29.0569 11.8014 29.0557L11.8562 29.0036L11.8692 28.9291C11.9016 28.7434 11.9523 28.5222 11.95 28.2873L11.9801 28.2698L12.105 28.1966L12.0928 28.0524C12.0869 27.9821 12.079 27.8698 12.0803 27.7623C12.0809 27.7085 12.0839 27.6599 12.0893 27.6208C12.0938 27.5878 12.0986 27.5715 12.1 27.567C12.1608 27.472 12.2086 27.3765 12.1993 27.2598C12.1957 27.2152 12.1824 27.1665 12.18 27.1565L12.171 27.0999C12.1718 27.0954 12.1737 27.0834 12.1795 27.0617C12.1889 27.0267 12.2028 26.9839 12.2195 26.9351C12.2351 26.8893 12.2544 26.8352 12.2693 26.7891C12.2832 26.7464 12.3005 26.6895 12.3071 26.6396C12.3483 26.3245 12.3892 26.0896 12.4876 25.802L12.5123 25.7297L12.4885 25.6569L12.4678 25.5941C12.5174 25.4809 12.5514 25.3559 12.5756 25.2348C12.6074 25.0759 12.6271 24.9064 12.6434 24.7516C12.6603 24.592 12.6731 24.4524 12.6915 24.3357C12.7006 24.2783 12.7102 24.2327 12.7202 24.1978C12.7305 24.1621 12.7382 24.1493 12.7382 24.1493C12.7531 24.1277 12.7817 24.0865 12.7988 24.0272C12.8169 23.9648 12.8232 23.9014 12.8276 23.8561C12.8326 23.8035 12.8349 23.7729 12.8401 23.7433C12.8708 23.5718 12.9287 23.3362 12.9533 23.1312C12.9633 23.0484 12.9623 22.9648 12.9623 22.9035C12.9623 22.8361 12.9636 22.7877 12.9713 22.7445C12.987 22.6567 13.0174 22.5671 13.0544 22.4504C13.0886 22.3423 13.1283 22.2106 13.1388 22.074C13.1407 22.0484 13.1395 22.0239 13.1383 22.0062C13.1371 21.9874 13.135 21.9682 13.133 21.951C13.1284 21.9119 13.1245 21.8847 13.1213 21.8517C13.1206 21.8451 13.1208 21.8388 13.1204 21.8333C13.1424 21.8114 13.1807 21.7705 13.2039 21.7125C13.2148 21.6854 13.2216 21.6537 13.225 21.638C13.2299 21.6159 13.2352 21.5896 13.2403 21.5616C13.2506 21.5053 13.2619 21.4358 13.2726 21.3667C13.293 21.2352 13.3142 21.0829 13.3171 21.0276C13.3238 20.8967 13.3182 20.8452 13.3342 20.7636L13.375 20.5538L13.1689 20.4977C13.0556 20.4668 12.9728 20.4548 12.8963 20.4461C12.8417 20.4398 12.7973 20.4341 12.7454 20.4263C12.7304 20.4136 12.7122 20.4003 12.6901 20.3886C12.6485 20.3664 12.602 20.354 12.5527 20.3518L12.4476 20.3468L12.3753 20.4232L12.3484 20.4515L12.2675 20.5368L12.2896 20.6522C12.2902 20.6555 12.2907 20.6588 12.2913 20.6621C12.2817 20.6758 12.2714 20.6908 12.2599 20.7065C12.2433 20.7293 12.2234 20.7568 12.2074 20.7806C12.1993 20.7926 12.1898 20.8069 12.1813 20.822C12.1782 20.8276 12.1727 20.8375 12.1669 20.8503L12.1508 20.8965C12.0568 21.2592 11.9144 21.5895 11.7488 21.9303L11.5759 22.2766C11.5032 22.4201 11.4502 22.586 11.4039 22.732C11.3554 22.885 11.3141 23.0179 11.2629 23.129C11.2324 23.1933 11.1995 23.2542 11.1646 23.3185C11.1306 23.3811 11.0935 23.4489 11.0599 23.5188C10.9966 23.6509 10.942 23.7988 10.9229 23.9787C10.9087 23.9994 10.8895 24.0256 10.8646 24.0586C10.8406 24.0902 10.8114 24.1287 10.7873 24.1641C10.7752 24.182 10.7621 24.2026 10.7505 24.2239C10.7404 24.2423 10.7241 24.2746 10.715 24.3137C10.698 24.3717 10.6956 24.4277 10.6975 24.4673C10.6568 24.5082 10.6239 24.5599 10.6068 24.6213C10.5935 24.6694 10.5702 24.7356 10.5421 24.8212C10.5183 24.8939 10.4872 24.9916 10.4774 25.0682C10.4752 25.0855 10.4718 25.0927 10.4518 25.114C10.4444 25.122 10.4391 25.1273 10.4276 25.1391C10.4181 25.1489 10.4042 25.1631 10.3908 25.1796C10.3636 25.2128 10.3244 25.27 10.3135 25.3507L10.3045 25.4176L10.3176 25.4463C10.183 25.6841 10.0218 25.9501 9.99556 26.3005C9.92459 26.3994 9.84604 26.5131 9.79527 26.6692C9.7392 26.8417 9.67424 26.9663 9.57027 27.1291L9.5056 27.2306L9.53614 27.3033L9.39332 27.3568L9.40231 27.5256C9.40456 27.5678 9.40781 27.6034 9.40814 27.6429C9.4083 27.6612 9.40778 27.6753 9.4068 27.6851C9.40663 27.6867 9.40604 27.688 9.4059 27.6891C9.31336 27.9339 9.19263 28.1697 9.06683 28.4247C8.97438 28.6121 8.88606 28.8358 8.8059 29.0144C8.72034 29.205 8.63232 29.373 8.52207 29.5102C8.50561 29.5307 8.45088 29.569 8.33839 29.6229C8.27252 29.6545 8.17284 29.6988 8.09139 29.7388C8.07596 29.7378 8.05876 29.7369 8.04019 29.7356C7.99705 29.7327 7.94746 29.7294 7.89783 29.7271C7.80993 29.723 7.68463 29.7195 7.59379 29.741C7.50164 29.763 7.41684 29.8101 7.37553 29.8304C7.32516 29.8552 7.29488 29.8659 7.2628 29.869C7.24182 29.8711 7.22677 29.8678 7.16625 29.8407C7.11736 29.8189 6.98769 29.7526 6.83077 29.7963C6.83825 29.7942 6.83562 29.7974 6.80203 29.7927C6.78084 29.7897 6.77392 29.7883 6.74365 29.7837C6.72053 29.7802 6.68979 29.7762 6.65652 29.7752C6.54853 29.7719 6.38317 29.7566 6.25458 29.7594C6.14129 29.762 6.0211 29.777 5.8971 29.8223C5.78568 29.7752 5.67876 29.7565 5.56881 29.759C5.47839 29.761 5.38744 29.7785 5.3016 29.7976L5.28049 29.7806L5.20818 29.7213L5.11477 29.7298C4.97822 29.7421 4.65575 29.7505 4.31538 29.7689C4.15067 29.7778 3.98504 29.7892 3.84787 29.8044C3.77945 29.8119 3.71458 29.8205 3.6588 29.8313C3.61835 29.8392 3.56864 29.8512 3.52272 29.8699C3.32859 29.8323 3.15261 29.8271 3.00042 29.8201C2.82332 29.8119 2.67226 29.8012 2.51001 29.7496L2.42737 29.7231L2.34788 29.7581C2.32805 29.7668 2.31597 29.7718 2.30746 29.7747C2.3061 29.7752 2.30485 29.7753 2.30387 29.7756C2.30127 29.7751 2.29648 29.7743 2.2895 29.772C2.24175 29.7565 2.18286 29.7416 2.13142 29.7285C2.07624 29.7143 2.02237 29.7005 1.97154 29.6844C1.94439 29.6759 1.92 29.6673 1.89878 29.6588C1.93203 29.6027 1.97786 29.5125 1.98232 29.3939C1.98172 29.4098 1.97875 29.4017 1.99893 29.3584C2.01587 29.3221 2.04095 29.2776 2.07124 29.2295C2.13177 29.1333 2.20285 29.0388 2.24145 28.9915C2.38683 28.8134 2.52244 28.614 2.64788 28.4427C2.77778 28.2653 2.90512 28.1058 3.05207 27.9729L3.05252 27.9725C3.10643 27.9235 3.12398 27.8629 3.12841 27.8481C3.13345 27.8313 3.13589 27.8148 3.13829 27.8009L3.13964 27.8C3.17269 27.7699 3.21626 27.7314 3.26135 27.6923C3.30625 27.6533 3.35189 27.6144 3.38844 27.5836C3.40671 27.5682 3.42257 27.5549 3.4347 27.5449C3.4464 27.5353 3.45199 27.531 3.45311 27.5301L3.51958 27.4807L3.53934 27.4008L3.56179 27.311C3.60591 27.2788 3.65835 27.231 3.69248 27.1632L3.71314 27.1219L3.71628 27.0815C3.73028 27.0757 3.74499 27.0696 3.75805 27.0635C3.76696 27.0594 3.77888 27.0537 3.79083 27.0469C3.79673 27.0436 3.80606 27.0377 3.81643 27.0303C3.82232 27.0261 3.84808 27.0076 3.87122 26.9759L3.87167 26.9764C3.87252 26.9753 3.87621 26.9709 3.88424 26.9616C3.89324 26.9512 3.90454 26.9378 3.91838 26.9225C3.9548 26.8821 3.97112 26.865 4.01403 26.8174C4.04722 26.7806 4.08227 26.7413 4.11014 26.7074C4.12384 26.6907 4.13841 26.6721 4.15101 26.6539C4.15727 26.6449 4.16511 26.6329 4.17256 26.6194C4.17807 26.6094 4.1927 26.5827 4.20041 26.5471L4.20086 26.5448C4.2151 26.4762 4.244 26.4327 4.29921 26.3786C4.33123 26.3473 4.36551 26.3189 4.41373 26.2767C4.45903 26.237 4.5117 26.1897 4.56463 26.1321C4.63563 26.0547 4.71538 25.9279 4.7748 25.8361C4.8078 25.7852 4.83745 25.7394 4.86462 25.7014C4.86668 25.6985 4.86897 25.696 4.87091 25.6933C4.88883 25.6913 4.91649 25.687 4.94636 25.6767C4.97313 25.6674 5.02711 25.6447 5.06986 25.59L5.07031 25.5891C5.14213 25.4964 5.19895 25.392 5.24366 25.3147C5.29173 25.2316 5.33101 25.1692 5.37794 25.1194C5.38217 25.1159 5.3891 25.111 5.3986 25.1037C5.40867 25.0959 5.42013 25.087 5.43318 25.0772C5.4459 25.0675 5.46006 25.057 5.47405 25.0462C5.50086 25.0255 5.53315 25.0001 5.55983 24.9757C5.57263 24.9639 5.59037 24.9468 5.60653 24.9267C5.61457 24.9167 5.6262 24.9004 5.63707 24.8796C5.64631 24.8618 5.66591 24.82 5.66537 24.7637C5.66545 24.7524 5.67483 24.7139 5.78258 24.6218C5.80619 24.6016 5.83145 24.5814 5.85893 24.5593C5.88544 24.5381 5.91517 24.5144 5.94336 24.4906C5.99703 24.4454 6.06397 24.3847 6.11267 24.3105C6.25814 24.0887 6.36349 23.9414 6.54739 23.7698C6.611 23.7105 6.66772 23.628 6.70547 23.574C6.75208 23.5074 6.78131 23.4673 6.80517 23.4442L6.80832 23.4411C7.0567 23.1926 7.2656 22.916 7.464 22.6556C7.66556 22.3911 7.85718 22.142 8.08151 21.9222L8.08376 21.92L8.08645 21.9178C8.32367 21.6712 8.52965 21.3945 8.70576 21.1089C8.75649 21.0266 8.82789 20.9563 8.92447 20.8678C9.01436 20.7854 9.13226 20.6819 9.22671 20.552C9.27 20.4925 9.29787 20.4334 9.31743 20.3872C9.3412 20.3312 9.34595 20.3148 9.35919 20.288L9.35964 20.2871L9.43554 20.2799L9.49347 20.2247C9.60933 20.1136 9.65417 20.0155 9.67581 19.9812C9.68744 19.9628 9.7072 19.9285 9.83209 19.8555L9.89272 19.82L9.92326 19.7571C9.98618 19.6275 10.048 19.5413 10.1182 19.4522C10.1881 19.3633 10.2779 19.2578 10.3719 19.1127L10.4411 19.0063L10.3876 18.8908C10.3672 18.8468 10.3344 18.7723 10.3009 18.7125L10.1757 18.4893L9.96727 18.6375C9.8706 18.7062 9.7943 18.7582 9.72521 18.8167C9.66519 18.8676 9.61253 18.9224 9.54871 18.9959C9.48867 19.0156 9.41535 19.0403 9.35605 19.0651L9.29946 19.0884L9.26219 19.1374C9.20757 19.209 9.15046 19.279 9.09333 19.3489C9.01393 19.3753 8.90525 19.4262 8.8324 19.5434L8.79917 19.5968L8.79782 19.644C8.78128 19.652 8.76134 19.6619 8.73629 19.6727C8.68261 19.6959 8.5904 19.7329 8.51579 19.7872C8.42164 19.8558 8.32958 19.9514 8.25576 20.0284C8.17504 20.1126 8.11373 20.1767 8.0613 20.2184C7.88596 20.3443 7.68381 20.4771 7.49813 20.627C7.42195 20.6886 7.34835 20.7526 7.27852 20.8134C7.20764 20.8751 7.14061 20.9337 7.07239 20.989C6.97603 21.0672 6.90415 21.114 6.80652 21.2464C6.80481 21.2476 6.803 21.2492 6.80068 21.2508C6.78325 21.2629 6.76022 21.278 6.73197 21.2962C6.70562 21.3132 6.67467 21.333 6.64799 21.3514C6.63455 21.3607 6.61984 21.3709 6.60622 21.3815C6.59997 21.3864 6.59214 21.3939 6.58287 21.4022L6.33677 21.5913C6.24864 21.6572 6.15403 21.7276 6.06192 21.8001C5.89856 21.9286 5.72918 22.0737 5.59665 22.2357C5.47812 22.2844 5.38338 22.3575 5.30654 22.4257C5.26044 22.4666 5.21605 22.51 5.17765 22.5474L5.06717 22.6502C5.02356 22.6873 4.96757 22.7275 4.89965 22.7778C4.83805 22.8234 4.7634 22.8792 4.70564 22.9363C4.56838 23.0719 4.51756 23.1354 4.43978 23.2022C4.37814 23.2551 4.30701 23.3016 4.16762 23.3558L4.09667 23.3832L4.05625 23.4474C3.95512 23.6079 3.88241 23.6615 3.81059 23.7052C3.73109 23.7535 3.58975 23.8189 3.43425 23.9643L3.3853 24.0101L3.36868 24.0743C3.37072 24.0666 3.36903 24.0786 3.34084 24.1116C3.31455 24.1423 3.27532 24.1795 3.22227 24.223C3.11552 24.3105 2.97486 24.4059 2.82168 24.5059C2.67319 24.6029 2.51119 24.7058 2.37932 24.8005C2.31278 24.8483 2.24851 24.8973 2.19429 24.9465C2.16489 24.9731 2.13434 25.0039 2.10627 25.0376C1.95177 25.0918 1.81059 25.1579 1.68277 25.2213C1.5293 25.2975 1.401 25.3645 1.2696 25.4158C1.03717 25.5064 0.8192 25.5366 0.53757 25.4122C0.482331 25.342 0.417395 25.2644 0.364667 25.2002C0.289273 25.1085 0.239547 25.0414 0.21916 24.9999C0.222606 25.0069 0.218711 25.0028 0.216465 24.9707C0.214037 24.9358 0.214781 24.9057 0.21377 24.8481C0.212823 24.7941 0.210882 24.7025 0.177394 24.6083L0.19401 24.584L0.190417 24.5095C0.188793 24.475 0.180409 24.4301 0.17425 24.3977C0.166964 24.3593 0.157553 24.3136 0.148202 24.2688C0.128418 24.1739 0.110058 24.0863 0.103292 24.037C0.0905699 23.9442 0.0989948 23.8421 0.113173 23.7245C0.125528 23.6219 0.147395 23.4794 0.137873 23.3607C0.132527 23.2944 0.121015 23.215 0.110478 23.1411C0.0994492 23.0637 0.0885356 22.9853 0.0817357 22.908C0.0670916 22.7414 0.0771175 22.6288 0.105987 22.5698L0.143711 22.493L0.121705 22.4104C0.106042 22.3505 0.0887151 22.2856 0.0696101 22.2191L0.0938614 22.1607L0.128891 22.074L0.0938614 21.9874C0.0470132 21.8718 0.047272 21.8131 0.0547899 21.7565C0.059805 21.7188 0.0684986 21.6815 0.0817357 21.62C0.0942854 21.5617 0.108503 21.4908 0.118562 21.4049L0.135178 21.2046C0.139095 21.1371 0.141707 21.0697 0.144609 21.0047C0.150588 20.871 0.157437 20.744 0.173801 20.623C0.206729 20.3796 0.274458 20.1966 0.415864 20.072C0.481616 20.014 0.581993 19.9587 0.71137 19.8973C0.828074 19.8418 0.98087 19.7761 1.09894 19.7091C1.24847 19.6242 1.32607 19.5945 1.4425 19.6045H1.44385L1.50852 19.6098L1.64819 19.6211L1.72229 19.5021C1.7349 19.4818 1.74516 19.4661 1.75373 19.4527L1.75462 19.4531L1.83861 19.4738L1.91495 19.4342C2.425 19.1708 2.95814 18.954 3.50745 18.7862L3.59817 18.7584L3.63634 18.6869C3.64882 18.6872 3.66144 18.6875 3.67272 18.6874C3.68086 18.6873 3.69276 18.687 3.70461 18.686C3.70999 18.6856 3.72093 18.6849 3.7338 18.6825C3.7401 18.6813 3.75194 18.6787 3.76613 18.6739C3.77507 18.6709 3.81084 18.6588 3.84607 18.6277L3.85326 18.6214L3.85999 18.6146C3.92206 18.5498 3.98119 18.5226 4.06254 18.5015C4.10936 18.4893 4.15602 18.4811 4.22152 18.4678C4.28328 18.4553 4.35509 18.4393 4.43259 18.4143C4.66275 18.3402 4.91277 18.1926 5.08289 18.1103L5.14351 18.0874C5.16851 18.0797 5.19893 18.072 5.23603 18.0627C5.29968 18.0468 5.39072 18.0257 5.46956 17.994L5.47225 17.9926C5.5662 17.9534 5.65503 17.9022 5.72824 17.8606C5.80645 17.8162 5.86978 17.7811 5.93168 17.7564C6.07875 17.6977 6.23336 17.6469 6.39919 17.5898C6.5615 17.5339 6.73218 17.4727 6.89365 17.3971C7.23488 17.2375 7.44608 17.0949 7.75591 17.0024C7.84422 16.976 7.9243 16.9441 7.95621 16.9332C7.99318 16.9207 8.03291 16.9097 8.1134 16.9013L8.17537 16.895L8.22567 16.8578C8.29847 16.8043 8.33063 16.7784 8.37118 16.7608C8.44643 16.728 8.76312 16.6162 9.09872 16.4859C9.25966 16.4235 9.42112 16.3582 9.54512 16.3009C9.60616 16.2727 9.66428 16.2436 9.71039 16.2156C9.73291 16.2019 9.75987 16.1841 9.78404 16.163C9.7975 16.1513 9.85636 16.1007 9.87476 16.0153L9.90619 15.8693L9.78539 15.7813C9.68545 15.7083 9.56448 15.6927 9.47775 15.6897C9.38431 15.6864 9.28563 15.6966 9.20021 15.7085C9.12038 15.7197 9.02303 15.7369 8.96758 15.7454C8.93526 15.7503 8.91048 15.7533 8.89213 15.7548C8.88026 15.7557 8.87507 15.7557 8.87507 15.7557L8.88405 15.757C8.69379 15.7244 8.57283 15.7275 8.45516 15.7481C8.33117 15.7697 8.29465 15.7883 8.15561 15.8028L8.05322 15.8136L7.99304 15.8976C7.98994 15.9019 7.98688 15.9055 7.9845 15.9088C7.95448 15.9081 7.93037 15.9066 7.90951 15.9043C7.88706 15.9019 7.83145 15.8938 7.78645 15.894C7.68502 15.8944 7.60244 15.9292 7.5161 15.9834C7.46489 15.9737 7.40903 15.9624 7.35846 15.956L7.24933 15.9421L7.16984 16.0184C7.15655 16.0312 7.14443 16.0416 7.13436 16.0512L7.13257 16.0498L7.04409 15.9775L6.93317 16.0045C6.88551 16.016 6.8405 16.0264 6.79619 16.0427C6.77018 16.0522 6.7459 16.063 6.72119 16.0754C6.64814 16.0707 6.58513 16.0661 6.51236 16.0561L6.37314 16.0373L6.29275 16.1522C6.28907 16.1575 6.28526 16.1624 6.28198 16.1671C6.18191 16.1367 6.0918 16.1286 5.99455 16.1594C5.87949 16.1959 5.89237 16.2164 5.73947 16.2376C5.69956 16.2431 5.65703 16.2361 5.55354 16.2277C5.47388 16.2212 5.34317 16.2132 5.21806 16.2672L5.12196 16.304C5.1155 16.3062 5.10891 16.3067 5.1031 16.3085C5.07906 16.3016 5.05061 16.2957 5.01732 16.2942L4.95938 16.2915L4.90729 16.3166C4.87343 16.3329 4.84062 16.3525 4.81792 16.366C4.79182 16.3816 4.77468 16.3921 4.75864 16.4001C4.75745 16.4007 4.75612 16.401 4.75504 16.4015L4.75415 16.401C4.74103 16.3953 4.71463 16.3832 4.68588 16.3741C4.62095 16.3535 4.527 16.3411 4.42586 16.3898C4.38725 16.4072 4.35687 16.4306 4.33514 16.4491C4.32454 16.4464 4.31352 16.443 4.30146 16.4415C4.2648 16.4368 4.2316 16.4395 4.20535 16.4433L4.12541 16.4545L4.07017 16.5133L4.04772 16.5367C3.91916 16.5378 3.78892 16.5393 3.68979 16.529L3.60985 16.5205L3.54248 16.5641C3.53174 16.5709 3.5213 16.5763 3.51239 16.582C3.45746 16.5659 3.4026 16.5497 3.34757 16.5344L3.27796 16.5151L3.2097 16.5389C3.15806 16.5571 3.01447 16.6172 2.88366 16.6741C2.79716 16.7117 2.70098 16.7557 2.63216 16.7886C2.55034 16.7795 2.47472 16.7722 2.41076 16.7662C2.32492 16.758 2.24599 16.7481 2.15746 16.7266L2.0645 16.7042L1.98321 16.754C1.82414 16.8516 1.78313 16.8706 1.74834 16.8771C1.71306 16.8836 1.66788 16.8801 1.48382 16.8474L1.39894 16.8326L1.32484 16.8771C1.2955 16.8947 1.26552 16.9114 1.23592 16.9287C1.19578 16.9103 1.13914 16.8908 1.07244 16.891H1.02619L0.983973 16.909L0.946248 16.9247L0.924243 16.9341L0.904482 16.9476C0.894921 16.9542 0.866342 16.9697 0.818256 16.9858C0.772809 17.0009 0.720541 17.0131 0.670053 17.0194C0.661119 17.0206 0.652242 17.0201 0.644006 17.0208L0.64715 16.9858L0.551941 16.9085C0.446563 16.8234 0.358114 16.7941 0.291464 16.7639C0.188165 16.7171 0.124313 16.663 0.0615264 16.5726L0.0785921 16.5443L0.121705 16.4707L0.106885 16.3871C0.0915139 16.3014 0.0742629 16.2323 0.0440116 16.1621C0.0311055 16.1322 0.0160135 16.1038 0 16.0754C0.0220195 16.0051 0.0338185 15.9349 0.0381733 15.8707C0.0455684 15.7614 0.0388178 15.6441 0.0327841 15.5415C0.0193198 15.3124 0.0129705 15.1521 0.0601791 15.0398L0.103292 14.9379L0.101496 14.9352L0.103292 14.9325L0.0601791 14.8305C0.0129705 14.7183 0.0193198 14.5579 0.0327841 14.3289C0.0388178 14.2263 0.0455684 14.109 0.0381733 13.9997C0.03381 13.9353 0.0221106 13.8649 0 13.7945C0.0159391 13.7662 0.0311573 13.7381 0.0440116 13.7083C0.0742629 13.6381 0.0915139 13.5689 0.106885 13.4833L0.121705 13.3997L0.0785921 13.3261L0.0615264 13.2973C0.124245 13.2071 0.18828 13.1532 0.291464 13.1065C0.358114 13.0763 0.446563 13.047 0.551941 12.9619L0.64715 12.8846L0.644006 12.8491C0.652253 12.8498 0.661105 12.8498 0.670053 12.8509C0.720541 12.8573 0.772809 12.8695 0.818256 12.8846C0.866342 12.9006 0.894921 12.9162 0.904482 12.9228L0.924243 12.9363L0.946248 12.9457L0.983973 12.9614L1.02619 12.9794H1.07244C1.13923 12.9796 1.19577 12.9596 1.23592 12.9412C1.26558 12.9586 1.29543 12.9756 1.32484 12.9933L1.39894 13.0377L1.48382 13.0229C1.66788 12.9903 1.71306 12.9867 1.74834 12.9933C1.78313 12.9998 1.82414 13.0188 1.98321 13.1163L2.0645 13.1662L2.15746 13.1437C2.24599 13.1222 2.32492 13.1124 2.41076 13.1042C2.47473 13.0981 2.55032 13.0904 2.63216 13.0813C2.70099 13.1142 2.79709 13.1586 2.88366 13.1963C3.01447 13.2532 3.15806 13.3133 3.2097 13.3315L3.27796 13.3553L3.34757 13.336C3.40264 13.3206 3.45742 13.304 3.51239 13.2879C3.52136 13.2937 3.53166 13.2994 3.54248 13.3063L3.60985 13.3499L3.68979 13.3413C3.78892 13.331 3.91916 13.3322 4.04772 13.3333L4.07017 13.3571L4.12541 13.4159L4.20535 13.4271C4.2316 13.4309 4.2648 13.4336 4.30146 13.4289C4.31356 13.4274 4.32451 13.4235 4.33514 13.4208C4.35417 13.4371 4.3798 13.457 4.41193 13.4734L4.41373 13.4743C4.41769 13.4763 4.42172 13.4787 4.42586 13.4806V13.4797C4.52707 13.5285 4.62091 13.5169 4.68588 13.4963C4.71463 13.4872 4.74103 13.475 4.75415 13.4693L4.75504 13.4684C4.75618 13.469 4.75738 13.4696 4.75864 13.4702C4.77468 13.4782 4.79182 13.4888 4.81792 13.5044C4.84062 13.5179 4.87343 13.5375 4.90729 13.5538L4.95938 13.5789L5.01732 13.5762C5.05067 13.5747 5.07903 13.5683 5.1031 13.5614C5.13263 13.5704 5.17082 13.583 5.21806 13.6027C5.34322 13.6568 5.47384 13.6491 5.55354 13.6427C5.65703 13.6343 5.69956 13.6273 5.73947 13.6328C5.89237 13.654 5.87949 13.6745 5.99455 13.7109C6.09184 13.7418 6.18186 13.7332 6.28198 13.7029C6.28532 13.7077 6.289 13.7127 6.29275 13.7181L6.37314 13.8331L6.51236 13.8142C6.58514 13.8043 6.64813 13.7992 6.72119 13.7945C6.74596 13.8069 6.77011 13.8181 6.79619 13.8277C6.8405 13.844 6.88551 13.8544 6.93317 13.8659L7.04409 13.8928L7.13257 13.8205L7.13436 13.8187C7.14449 13.8284 7.15645 13.8391 7.16984 13.852L7.24933 13.9283L7.35846 13.9144C7.40906 13.9079 7.46487 13.8962 7.5161 13.8865C7.60251 13.9408 7.68494 13.9759 7.78645 13.9764C7.83145 13.9765 7.88706 13.9685 7.90951 13.966C7.93037 13.9638 7.95447 13.9618 7.9845 13.9611C7.98693 13.9645 7.98985 13.9683 7.99304 13.9728L8.05322 14.0568L8.15561 14.0675C8.29465 14.0821 8.33117 14.1007 8.45516 14.1223C8.57283 14.1429 8.69379 14.146 8.88405 14.1133L8.87507 14.1147C8.87507 14.1147 8.88026 14.1146 8.89213 14.1156C8.91048 14.117 8.93526 14.1201 8.96758 14.125C9.02303 14.1335 9.12038 14.1507 9.20021 14.1618C9.28563 14.1738 9.38431 14.184 9.47775 14.1807C9.56448 14.1776 9.68545 14.1621 9.78539 14.0891L9.90619 14.0011L9.87476 13.8551C9.85636 13.7697 9.7975 13.7191 9.78404 13.7074C9.75987 13.6862 9.73291 13.6685 9.71039 13.6548C9.66428 13.6268 9.60616 13.5977 9.54512 13.5695C9.42112 13.5122 9.25966 13.4469 9.09872 13.3845C8.76312 13.2542 8.44643 13.1423 8.37118 13.1096C8.33063 13.0919 8.29847 13.0661 8.22567 13.0126L8.17537 12.9753L8.1134 12.969L8.01864 12.9547C7.99401 12.9493 7.97473 12.9434 7.95621 12.9372C7.9243 12.9263 7.84422 12.8943 7.75591 12.868C7.44608 12.7755 7.23488 12.6329 6.89365 12.4732C6.73218 12.3977 6.5615 12.3365 6.39919 12.2806C6.23336 12.2234 6.07875 12.1727 5.93168 12.114C5.86978 12.0892 5.80645 12.0542 5.72824 12.0098C5.65503 11.9682 5.5662 11.9169 5.47225 11.8777L5.46956 11.8764L5.40848 11.8548C5.3467 11.8348 5.28376 11.8196 5.23603 11.8077C5.16192 11.7891 5.11469 11.7755 5.08289 11.7601L4.78019 11.6047C4.66773 11.5482 4.54765 11.4931 4.43259 11.456C4.35509 11.4311 4.28328 11.4151 4.22152 11.4026C4.15602 11.3893 4.10936 11.381 4.06254 11.3689C3.98119 11.3478 3.92206 11.3206 3.85999 11.2557L3.85326 11.249L3.84607 11.2427L3.82002 11.2229C3.79463 11.2062 3.77285 11.1987 3.76613 11.1965C3.75194 11.1917 3.7401 11.1891 3.7338 11.1879C3.72093 11.1855 3.70999 11.1848 3.70461 11.1843C3.69276 11.1834 3.68086 11.1831 3.67272 11.183C3.66144 11.1828 3.64882 11.1828 3.63634 11.183L3.59817 11.112L3.50745 11.0842C2.95814 10.9164 2.425 10.6995 1.91495 10.4361L1.83861 10.3966L1.75462 10.4173H1.75373C1.74521 10.4039 1.7348 10.3884 1.72229 10.3683L1.64819 10.2493L1.50852 10.2605L1.44385 10.2659H1.4425C1.32607 10.2759 1.24847 10.2462 1.09894 10.1613C0.98087 10.0943 0.828074 10.0285 0.71137 9.97311C0.581993 9.91164 0.481616 9.85633 0.415864 9.79841C0.274458 9.67374 0.206729 9.49076 0.173801 9.24737C0.157437 9.12636 0.150588 8.99933 0.144609 8.86563C0.138804 8.73581 0.133588 8.59577 0.118562 8.46549L0.101047 8.34738C0.0946331 8.31174 0.0880044 8.27947 0.0817357 8.25037C0.0684987 8.18892 0.059805 8.15156 0.0547899 8.11384C0.0472722 8.05724 0.0470134 7.99857 0.0938614 7.88301L0.128891 7.79633L0.0938614 7.70966L0.0696101 7.65083C0.0886643 7.58445 0.106074 7.51974 0.121705 7.45996L0.143711 7.37732L0.105987 7.30053C0.0771175 7.24158 0.0670916 7.129 0.0817357 6.96236C0.0885356 6.88505 0.0994492 6.80668 0.110478 6.72928C0.121015 6.65533 0.132527 6.57601 0.137873 6.50967C0.147395 6.391 0.125528 6.24843 0.113173 6.1459C0.0989948 6.02823 0.0905697 5.92613 0.103292 5.83333C0.110058 5.78411 0.128418 5.69648 0.148202 5.60159C0.157553 5.55674 0.166964 5.51106 0.17425 5.4727C0.180409 5.44027 0.188793 5.39537 0.190417 5.36088L0.19401 5.28633L0.177394 5.26163C0.210745 5.16757 0.212824 5.07619 0.21377 5.02226C0.214781 4.96464 0.214037 4.9346 0.216465 4.89965C0.218711 4.86754 0.222606 4.86344 0.21916 4.87046C0.239547 4.82899 0.289273 4.76191 0.364667 4.67017C0.417464 4.60592 0.482286 4.52798 0.53757 4.45774C0.81912 4.33339 1.03722 4.36401 1.2696 4.4546C1.401 4.50584 1.5293 4.57289 1.68277 4.64906C1.81055 4.71248 1.95182 4.77815 2.10627 4.83229C2.1344 4.86618 2.16481 4.89718 2.19429 4.92391C2.24851 4.97305 2.31278 5.02205 2.37932 5.06986C2.51119 5.16462 2.67319 5.26748 2.82168 5.36447C2.97486 5.46452 3.11552 5.5599 3.22227 5.6474C3.27532 5.69089 3.31455 5.72804 3.34084 5.75878C3.36903 5.79178 3.37072 5.80381 3.36868 5.79605L3.3853 5.86027L3.43425 5.90608C3.58975 6.05145 3.73109 6.11688 3.81059 6.16521C3.88241 6.20889 3.95512 6.26245 4.05625 6.42299L4.09667 6.48721L4.16762 6.51461C4.30701 6.56876 4.37814 6.61526 4.43978 6.6682C4.51757 6.73502 4.56838 6.79843 4.70564 6.93407C4.7634 6.99115 4.83805 7.047 4.89965 7.0926C4.96757 7.14285 5.02356 7.18312 5.06717 7.22014L5.17765 7.32298C5.21605 7.36033 5.26044 7.40376 5.30654 7.44469C5.38335 7.51289 5.4782 7.58555 5.59665 7.63421C5.72921 7.79633 5.89847 7.94171 6.06192 8.07028C6.15403 8.14273 6.24864 8.21319 6.33677 8.27911C6.42594 8.34582 6.50865 8.40758 6.58287 8.46773C6.59223 8.47612 6.59992 8.48392 6.60622 8.48884C6.61984 8.49947 6.63455 8.50965 6.64799 8.51893C6.67467 8.53734 6.70562 8.55719 6.73197 8.57417C6.76022 8.59237 6.78325 8.60746 6.80068 8.61953C6.80291 8.62107 6.80486 8.62239 6.80652 8.62357C6.90426 8.75613 6.97596 8.8031 7.07239 8.88135C7.14061 8.93671 7.20764 8.99526 7.27852 9.05695C7.34835 9.11773 7.42195 9.1818 7.49813 9.24332C7.68373 9.39322 7.88601 9.5257 8.0613 9.65155C8.11378 9.69319 8.17493 9.75766 8.25576 9.84197C8.32958 9.91897 8.42164 10.0145 8.51579 10.0831C8.5904 10.1375 8.68261 10.1745 8.73629 10.1977C8.76125 10.2084 8.78132 10.218 8.79782 10.226L8.79917 10.2736L8.8324 10.327C8.90521 10.4441 9.01394 10.4946 9.09333 10.521C9.15054 10.5911 9.2075 10.6613 9.26219 10.733L9.29946 10.7819L9.35605 10.8053C9.4153 10.83 9.48869 10.8543 9.54871 10.874C9.61263 10.9476 9.66512 11.0027 9.72521 11.0536C9.7943 11.1122 9.8706 11.1642 9.96727 11.2328L10.1757 11.381L10.3009 11.1578C10.3344 11.0981 10.3672 11.0235 10.3876 10.9795L10.4411 10.8641L10.3719 10.7577C10.2779 10.6126 10.1881 10.5071 10.1182 10.4182C10.048 10.3291 9.98618 10.2429 9.92326 10.1132L9.89272 10.0504L9.83209 10.0149C9.7072 9.94189 9.68744 9.90755 9.67581 9.88913C9.65417 9.85487 9.60934 9.75677 9.49347 9.64572L9.43554 9.59048L9.35964 9.58284L9.35919 9.58239C9.34595 9.55556 9.3412 9.53921 9.31743 9.48314C9.29787 9.43702 9.27 9.37789 9.22671 9.31832C9.13226 9.18844 9.01436 9.08498 8.92447 9.00261C8.82789 8.91411 8.75649 8.84373 8.70576 8.76144C8.52965 8.47582 8.32367 8.19922 8.08645 7.95262L8.08376 7.95037L8.08151 7.94813L7.99888 7.86415C7.8092 7.66563 7.64037 7.44621 7.464 7.21475C7.2656 6.95437 7.0567 6.67777 6.80832 6.42928L6.80517 6.42614C6.78131 6.4031 6.75208 6.36294 6.70547 6.29635C6.66772 6.24239 6.611 6.15986 6.54739 6.10054C6.36349 5.929 6.25814 5.78167 6.11267 5.55983C6.06397 5.48565 5.99703 5.42496 5.94336 5.37974C5.91517 5.35599 5.88544 5.33227 5.85893 5.31103C5.83145 5.289 5.80619 5.26879 5.78258 5.2486C5.67369 5.15549 5.66527 5.1171 5.66537 5.10624C5.66585 5.05006 5.6463 5.0085 5.63707 4.99082C5.6262 4.97 5.61457 4.95366 5.60653 4.94367C5.59037 4.92357 5.57263 4.90645 5.55983 4.89471C5.53315 4.87027 5.50086 4.84489 5.47405 4.82421C5.46006 4.81342 5.4459 4.80285 5.43318 4.79322C5.42013 4.78333 5.40867 4.77448 5.3986 4.76672C5.38893 4.75927 5.38216 4.75404 5.37794 4.75055C5.33111 4.70073 5.29166 4.63863 5.24366 4.55565C5.19895 4.47833 5.14213 4.37396 5.07031 4.28125L5.06986 4.28035L5.03618 4.24487C5.0018 4.21504 4.96643 4.20063 4.94636 4.19367C4.9166 4.18337 4.88928 4.17906 4.87136 4.17706L4.87091 4.17661C4.86904 4.17404 4.86661 4.17174 4.86462 4.16897C4.83745 4.13102 4.8078 4.08518 4.7748 4.03424C4.71538 3.9425 4.63563 3.81563 4.56463 3.73829C4.5117 3.68063 4.45903 3.63333 4.41373 3.59368C4.36551 3.55148 4.33123 3.52307 4.29921 3.49173C4.244 3.43771 4.2151 3.39417 4.20086 3.32557L4.20041 3.32332L4.18559 3.27751C4.18035 3.26514 4.17532 3.25601 4.17256 3.25102C4.16511 3.23749 4.15727 3.22546 4.15101 3.21644C4.13841 3.19829 4.12384 3.17967 4.11014 3.16299C4.08227 3.12908 4.04722 3.08973 4.01403 3.05296C3.97112 3.00542 3.9548 2.98828 3.91838 2.94788C3.90454 2.93253 3.89324 2.91922 3.88424 2.9088C3.87621 2.89951 3.87207 2.89504 3.87122 2.89398C3.84813 2.86246 3.8223 2.84428 3.81643 2.84009C3.80606 2.83269 3.79673 2.82681 3.79083 2.82348C3.77888 2.81672 3.76696 2.81101 3.75805 2.80686C3.74494 2.80077 3.73033 2.79428 3.71628 2.78845L3.71314 2.74848L3.69248 2.70716C3.65829 2.6393 3.60595 2.59108 3.56179 2.55896L3.53934 2.46959L3.51958 2.38965L3.45311 2.34025C3.45199 2.33936 3.4464 2.33505 3.4347 2.32543C3.42257 2.31545 3.40671 2.30221 3.38844 2.2868C3.35189 2.25598 3.30625 2.21712 3.26135 2.17812C3.21626 2.13897 3.17269 2.10047 3.13964 2.07034L3.13829 2.06899C3.13589 2.05527 3.13339 2.03891 3.12841 2.02229C3.12398 2.00747 3.10643 1.94683 3.05252 1.89789L3.05207 1.89744C2.90512 1.76454 2.77778 1.60505 2.64788 1.42768C2.52244 1.2564 2.38683 1.05695 2.24145 0.878884C2.20285 0.831612 2.13177 0.737034 2.07124 0.640862C2.04095 0.59274 2.01587 0.548271 1.99893 0.511971C1.97875 0.468718 1.98172 0.460545 1.98232 0.476492C1.97785 0.357621 1.93205 0.267181 1.89878 0.211076C1.91996 0.20264 1.94446 0.194469 1.97154 0.185926C2.02237 0.169896 2.07624 0.156049 2.13142 0.141915C2.18286 0.128735 2.24175 0.113897 2.2895 0.0983524C2.29656 0.096053 2.30128 0.0948611 2.30387 0.0943105C2.30488 0.094625 2.30604 0.0951685 2.30746 0.0956578C2.31597 0.0985931 2.32805 0.103539 2.34788 0.112274L2.42737 0.147304L2.51001 0.120807C2.67226 0.0692181 2.82332 0.0585102 3.00042 0.0502989C3.15263 0.0432448 3.32855 0.0376324 3.52272 0C3.56868 0.0187663 3.6183 0.0311937 3.6588 0.0390715C3.71458 0.0499208 3.77945 0.0589043 3.84787 0.0664664C3.98503 0.0816234 4.15069 0.0926154 4.31538 0.101496C4.65575 0.119847 4.97822 0.128292 5.11477 0.140568L5.20818 0.1491L5.28049 0.0898195L5.3016 0.0723047C5.38746 0.0914414 5.47836 0.109334 5.56881 0.111376C5.67882 0.113832 5.78562 0.0947251 5.8971 0.0476043C6.02116 0.0929296 6.14125 0.108395 6.25458 0.110927C6.38317 0.113797 6.54853 0.0984613 6.65652 0.0952087C6.68979 0.0942002 6.72053 0.0901614 6.74365 0.0866758C6.77392 0.082111 6.78084 0.0806454 6.80203 0.0776939C6.83562 0.0730198 6.83825 0.0761475 6.83077 0.0741011C6.98769 0.117765 7.11736 0.0515103 7.16625 0.0296404C7.22677 0.00257225 7.24182 -0.000684537 7.2628 0.00134729C7.29488 0.00449512 7.32516 0.015221 7.37553 0.0399697C7.41684 0.0602766 7.50164 0.107408 7.59379 0.12934C7.68463 0.150904 7.80993 0.147376 7.89783 0.143262C7.94746 0.140938 7.99705 0.137667 8.04019 0.134729C8.05878 0.133464 8.07595 0.13215 8.09139 0.131136C8.17287 0.171109 8.27247 0.21587 8.33839 0.247453C8.45088 0.301352 8.50561 0.339697 8.52207 0.360176C8.63232 0.497338 8.72034 0.665378 8.8059 0.85598C8.88606 1.03455 8.97438 1.25823 9.06683 1.44564C9.19256 1.70056 9.31338 1.93613 9.4059 2.18082C9.40606 2.18194 9.4066 2.1834 9.4068 2.18531C9.40778 2.19504 9.4083 2.20917 9.40814 2.22752C9.40781 2.26701 9.40456 2.3026 9.40231 2.34474L9.39332 2.5136L9.53614 2.56659L9.5056 2.6398L9.57027 2.74129C9.67424 2.90405 9.7392 3.02866 9.79527 3.20117C9.84599 3.35711 9.92465 3.4706 9.99556 3.56943C10.0216 3.91985 10.1829 4.1858 10.3176 4.42361L10.3045 4.4528L10.3135 4.51972C10.3244 4.60038 10.3636 4.6576 10.3908 4.69082C10.4042 4.70724 10.4181 4.72148 10.4276 4.73124C10.4391 4.74309 10.4444 4.7484 10.4518 4.75639C10.4718 4.77768 10.4752 4.78486 10.4774 4.8022C10.4872 4.87882 10.5183 4.97645 10.5421 5.0492C10.5702 5.13476 10.5935 5.20143 10.6068 5.2495C10.6239 5.31084 10.6569 5.36176 10.6975 5.40264C10.6956 5.44217 10.698 5.49811 10.715 5.55623L10.7146 5.55668C10.7165 5.56489 10.7198 5.57249 10.7222 5.58004C10.7237 5.58413 10.7245 5.58807 10.7262 5.59216C10.7346 5.61506 10.7437 5.63405 10.7505 5.6465C10.7621 5.66777 10.7752 5.68834 10.7873 5.70623C10.8114 5.7417 10.8406 5.78018 10.8646 5.81177C10.8894 5.84458 10.9088 5.87057 10.9229 5.89126C10.942 6.07131 10.9965 6.21936 11.0599 6.35159C11.0935 6.42151 11.1306 6.48924 11.1646 6.55188L11.2629 6.7414C11.3141 6.8525 11.3554 6.98539 11.4039 7.1384C11.4502 7.28436 11.5032 7.45024 11.5759 7.59379C11.8141 8.06388 12.0254 8.49012 12.1508 8.97387C12.1599 9.00898 12.175 9.03722 12.1813 9.04842C12.1898 9.06344 12.1993 9.07774 12.2074 9.08973C12.2234 9.11357 12.2433 9.14103 12.2599 9.16383C12.2713 9.1795 12.2817 9.19423 12.2913 9.20785C12.2907 9.21122 12.2902 9.21471 12.2896 9.21818L12.2675 9.33359L12.3484 9.41892L12.3753 9.44722L12.4476 9.52356L12.5527 9.51862C12.602 9.51636 12.6485 9.50393 12.6901 9.4818C12.7123 9.47002 12.7303 9.45636 12.7454 9.44362C12.7973 9.43586 12.8417 9.43057 12.8963 9.42431C12.9728 9.41553 13.0556 9.40359 13.1689 9.37267L13.375 9.31653L13.3342 9.1068C13.3182 9.02519 13.3238 8.97367 13.3171 8.84273C13.3142 8.78743 13.293 8.63514 13.2726 8.50366C13.2619 8.43456 13.2506 8.36508 13.2403 8.30875C13.2352 8.28076 13.2299 8.25448 13.225 8.23241L13.2039 8.15786L13.1828 8.11474C13.1616 8.07878 13.1365 8.05267 13.1204 8.0366C13.1208 8.03126 13.1206 8.02512 13.1213 8.01864C13.1245 7.9857 13.1284 7.95852 13.133 7.91939C13.135 7.90217 13.1371 7.88297 13.1383 7.86415C13.1395 7.84647 13.1407 7.822 13.1388 7.79633C13.1283 7.65974 13.0886 7.52809 13.0544 7.41999C13.0174 7.30328 12.987 7.21365 12.9713 7.12583C12.9636 7.08271 12.9623 7.03423 12.9623 6.96685C12.9623 6.90562 12.9633 6.82194 12.9533 6.73916C12.9287 6.53421 12.8708 6.29859 12.8401 6.12704C12.8349 6.09749 12.8326 6.06692 12.8276 6.01431C12.8254 5.99168 12.8226 5.96449 12.8181 5.93527L12.7988 5.84321L12.784 5.80234C12.7681 5.76465 12.7494 5.73726 12.7382 5.72105C12.7382 5.72105 12.7305 5.70825 12.7202 5.67255C12.7102 5.63772 12.7006 5.59208 12.6915 5.53468C12.6731 5.41802 12.6603 5.27838 12.6434 5.11881C12.6271 4.96398 12.6074 4.79448 12.5756 4.63558C12.5514 4.51431 12.5175 4.3891 12.4678 4.27586L12.4885 4.21343L12.5123 4.14068L12.4876 4.06837C12.3892 3.78079 12.3483 3.54543 12.3071 3.23036C12.3005 3.1804 12.2832 3.12396 12.2693 3.08126C12.2544 3.03517 12.2351 2.98103 12.2195 2.9353C12.2028 2.88648 12.1889 2.84371 12.1795 2.80866C12.1737 2.78699 12.1718 2.77494 12.171 2.77048C12.1728 2.74722 12.176 2.73052 12.18 2.7139C12.1824 2.70385 12.1957 2.65514 12.1993 2.6106C12.2086 2.49374 12.1609 2.39802 12.1 2.30297C12.0984 2.2979 12.0937 2.28168 12.0893 2.24953C12.0839 2.21045 12.0809 2.16192 12.0803 2.10806C12.079 2.00055 12.0869 1.88826 12.0928 1.81795L12.105 1.67379L11.9801 1.60058L11.95 1.58262C11.9522 1.34786 11.9016 1.12684 11.8692 0.941308L11.8562 0.866758L11.8014 0.814663C11.8001 0.813412 11.7991 0.811865 11.7978 0.810621C11.8027 0.797357 11.8081 0.78401 11.8117 0.769753C11.8197 0.738216 11.8224 0.706158 11.8238 0.675443C11.9997 0.533674 12.2516 0.34448 12.4467 0.191765C12.5431 0.212016 12.6332 0.201699 12.7009 0.188621C12.7497 0.179187 12.7988 0.166074 12.8366 0.156286C12.8776 0.145641 12.9088 0.138015 12.9372 0.133382C12.9543 0.130582 12.9659 0.130001 12.9731 0.129789C12.9802 0.135297 12.9938 0.145784 13.0095 0.155837C13.052 0.183155 13.1077 0.207331 13.1797 0.211076L13.247 0.21422L13.3054 0.180986L13.3247 0.170208L13.3256 0.169759C13.3256 0.169759 13.3275 0.168655 13.3288 0.167962C13.3311 0.166682 13.3344 0.16485 13.3377 0.163022C13.3411 0.161204 13.3452 0.15867 13.3494 0.156286C13.3512 0.155263 13.3543 0.15292 13.3584 0.150448C13.3783 0.149206 13.4044 0.148266 13.4357 0.147304C13.5111 0.144981 13.6087 0.14363 13.7069 0.143711C13.8051 0.143793 13.9018 0.145234 13.975 0.147304C14.0043 0.148133 14.0287 0.149021 14.0473 0.149999C14.065 0.158197 14.0803 0.163929 14.0922 0.167064C14.1027 0.169812 14.1145 0.172095 14.1205 0.173352C14.1842 0.186704 14.2428 0.176414 14.2903 0.154939C14.3105 0.145798 14.3262 0.135685 14.3356 0.12934C14.3392 0.12695 14.3427 0.123998 14.346 0.121705C14.4586 0.11281 14.6936 0.105385 14.9051 0.118113L14.919 0.119011L14.9329 0.118113C15.1442 0.105401 15.3788 0.112825 15.4916 0.121705C15.4949 0.124047 15.4987 0.126876 15.5024 0.12934C15.5119 0.135685 15.5275 0.145798 15.5478 0.154939C15.5953 0.176414 15.6538 0.186704 15.7175 0.173352C15.7235 0.172095 15.7353 0.169812 15.7458 0.167064C15.7577 0.163951 15.7727 0.158093 15.7903 0.149999C15.809 0.149013 15.8335 0.14814 15.863 0.147304C15.9362 0.145234 16.033 0.143793 16.1311 0.143711C16.2293 0.14363 16.3269 0.144981 16.4024 0.147304C16.4334 0.148259 16.4593 0.149217 16.4792 0.150448C16.4834 0.153017 16.4868 0.155236 16.4886 0.156286C16.4928 0.15867 16.497 0.161204 16.5003 0.163022C16.5036 0.16485 16.5069 0.166682 16.5093 0.167962C16.5106 0.168655 16.5124 0.169759 16.5124 0.169759L16.5133 0.170208L16.5326 0.180986L16.591 0.21422L16.6584 0.211076C16.7303 0.207331 16.786 0.183155 16.8286 0.155837C16.844 0.145914 16.8573 0.135351 16.8645 0.129789C16.8716 0.129977 16.8834 0.130523 16.9009 0.133382C16.9292 0.138015 16.9604 0.145641 17.0015 0.156286C17.0392 0.166074 17.0883 0.179187 17.1371 0.188621C17.2047 0.201679 17.2947 0.211893 17.3909 0.191765C17.586 0.344441 17.8378 0.533632 18.0138 0.675443C18.0151 0.706164 18.0184 0.738209 18.0263 0.769753C18.0299 0.783958 18.0349 0.797402 18.0398 0.810621C18.0386 0.81179 18.0379 0.813488 18.0367 0.814663L17.9819 0.866758L17.9688 0.941308C17.9364 1.12684 17.8854 1.34786 17.8876 1.58262L17.8579 1.60058L17.7331 1.67379L17.7452 1.81795C17.7512 1.88826 17.759 2.00055 17.7578 2.10806C17.7571 2.16192 17.7541 2.21045 17.7488 2.24953C17.7443 2.28197 17.7391 2.29805 17.7376 2.30297C17.6767 2.39795 17.6294 2.49383 17.6388 2.6106C17.6423 2.65514 17.6556 2.70385 17.6581 2.7139C17.6621 2.73052 17.6652 2.74722 17.667 2.77048C17.6662 2.77494 17.6643 2.78699 17.6585 2.80866C17.6491 2.84371 17.6352 2.88648 17.6185 2.9353C17.6029 2.98103 17.5836 3.03517 17.5687 3.08126C17.5549 3.12396 17.5376 3.18085 17.531 3.23081C17.4897 3.54588 17.4489 3.78079 17.3504 4.06837L17.3257 4.14068L17.3495 4.21343L17.3697 4.27586C17.3201 4.38906 17.2867 4.51437 17.2624 4.63558C17.2306 4.79448 17.211 4.96398 17.1946 5.11881C17.1777 5.27838 17.1649 5.41802 17.1465 5.53468C17.1375 5.59208 17.1278 5.63772 17.1178 5.67255C17.1075 5.70825 17.0998 5.72105 17.0998 5.72105C17.0849 5.74263 17.0564 5.78392 17.0392 5.84321C17.0212 5.90555 17.0148 5.96902 17.0105 6.01431C17.0054 6.06692 17.0031 6.09749 16.9979 6.12704C16.9673 6.29859 16.9094 6.53421 16.8847 6.73916C16.8748 6.82194 16.8757 6.90562 16.8757 6.96685C16.8757 7.03423 16.8745 7.08271 16.8668 7.12583C16.851 7.21365 16.8206 7.30328 16.7837 7.41999C16.7494 7.52809 16.7097 7.65974 16.6992 7.79633C16.6973 7.822 16.6985 7.84647 16.6997 7.86415C16.701 7.88297 16.7031 7.90217 16.7051 7.91939C16.7096 7.95852 16.7135 7.9857 16.7168 8.01864C16.7174 8.02511 16.7168 8.03127 16.7172 8.0366C16.7011 8.05269 16.6763 8.07894 16.6552 8.11474L16.6341 8.15786C16.6233 8.18496 16.6165 8.21667 16.613 8.23241C16.6082 8.25448 16.6029 8.28076 16.5977 8.30875C16.5874 8.36508 16.5761 8.43456 16.5654 8.50366C16.545 8.63514 16.5238 8.78743 16.521 8.84273C16.5142 8.97367 16.5199 9.02519 16.5039 9.1068L16.463 9.31653L16.6692 9.37267C16.7824 9.40359 16.8652 9.41553 16.9418 9.42431C16.9962 9.43056 17.0405 9.4359 17.0922 9.44362C17.1073 9.45643 17.1256 9.46995 17.1479 9.4818C17.1895 9.50393 17.236 9.51636 17.2853 9.51862L17.3904 9.52356L17.4627 9.44722L17.4897 9.41892L17.5705 9.33359L17.5485 9.21818C17.5478 9.21468 17.5469 9.21125 17.5462 9.20785C17.5559 9.19417 17.5667 9.17958 17.5781 9.16383C17.5947 9.14103 17.6146 9.11357 17.6307 9.08973C17.6388 9.07774 17.6482 9.06344 17.6567 9.04842C17.663 9.03722 17.6782 9.00898 17.6873 8.97387C17.8127 8.49012 18.0239 8.06388 18.2621 7.59379C18.3348 7.45024 18.3878 7.28436 18.4341 7.1384C18.4826 6.98539 18.5239 6.8525 18.5751 6.7414C18.6056 6.67711 18.6385 6.61621 18.6735 6.55188C18.7075 6.48924 18.7446 6.42151 18.7781 6.35159C18.8415 6.21937 18.8956 6.07129 18.9146 5.89126C18.9288 5.87054 18.9485 5.84469 18.9735 5.81177C18.9974 5.78018 19.0267 5.7417 19.0507 5.70623C19.0628 5.68834 19.0759 5.66777 19.0875 5.6465C19.0943 5.63407 19.103 5.615 19.1113 5.59216L19.1118 5.59261C19.1135 5.58857 19.1139 5.58409 19.1154 5.58004C19.1178 5.57245 19.1215 5.56494 19.1235 5.55668L19.1226 5.55623C19.1396 5.49805 19.142 5.44219 19.1401 5.40264C19.1808 5.36172 19.2141 5.31051 19.2313 5.24905C19.2446 5.20098 19.2679 5.13476 19.2959 5.0492C19.3198 4.97645 19.3508 4.87882 19.3606 4.8022C19.3628 4.78486 19.3662 4.77768 19.3862 4.75639C19.3937 4.7484 19.399 4.74309 19.4104 4.73124C19.4199 4.72148 19.4338 4.70724 19.4473 4.69082C19.4745 4.6576 19.5136 4.60038 19.5245 4.51972L19.5335 4.4528L19.52 4.42361C19.6547 4.18576 19.8159 3.91993 19.842 3.56943C19.913 3.47055 19.992 3.35722 20.0428 3.20117C20.0988 3.02866 20.1638 2.90405 20.2678 2.74129L20.3324 2.6398L20.3015 2.56659L20.4447 2.5136L20.4357 2.34474C20.4335 2.3026 20.4302 2.26701 20.4299 2.22752C20.4297 2.20917 20.4303 2.19504 20.4312 2.18531C20.4321 2.17712 20.4329 2.17644 20.4317 2.18082C20.5242 1.93607 20.6455 1.70061 20.7712 1.44564C20.8637 1.25823 20.952 1.03455 21.0321 0.85598C21.1177 0.665378 21.2057 0.497338 21.316 0.360176C21.3324 0.339697 21.3872 0.301352 21.4996 0.247453C21.5655 0.215917 21.6648 0.171058 21.7462 0.131136C21.7618 0.132157 21.7791 0.133451 21.7978 0.134729C21.841 0.137667 21.8906 0.140938 21.9402 0.143262C22.0281 0.147376 22.1534 0.150904 22.2442 0.12934C22.3364 0.107408 22.4212 0.0602766 22.4625 0.0399697C22.5129 0.0152208 22.5432 0.00449501 22.5752 0.00134729C22.5962 -0.000684545 22.6113 0.00257195 22.6718 0.0296404C22.7207 0.0515103 22.8503 0.117765 23.0073 0.0741011C22.9998 0.0761484 23.0024 0.0730194 23.036 0.0776939C23.0572 0.0806453 23.0641 0.0821109 23.0944 0.0866758C23.1175 0.0901615 23.1483 0.0942003 23.1815 0.0952087C23.2895 0.0984613 23.4549 0.113797 23.5835 0.110927C23.6967 0.108398 23.8166 0.0928164 23.9405 0.0476043C24.0521 0.0948434 24.1591 0.113834 24.2692 0.111376C24.3595 0.109337 24.4503 0.0914029 24.536 0.0723047L24.5576 0.0898195L24.6299 0.1491L24.7233 0.140568C24.8598 0.128292 25.1823 0.119846 25.5227 0.101496C25.6874 0.0926154 25.853 0.0816234 25.9902 0.0664664C26.0586 0.0589042 26.1235 0.0499209 26.1792 0.0390715C26.2196 0.0312157 26.269 0.0186729 26.3149 0Z" fill="#E77A4C"/>
</svg>
