<svg width="55" height="43" viewBox="0 0 55 43" fill="none" xmlns="http://www.w3.org/2000/svg">
<path d="M2.5 21.25C2.5 21.9404 1.94036 22.5 1.25 22.5C0.60283 22.5 0.0709032 22.0082 0.00683593 21.3779L0 21.25C3.84487e-06 20.5596 0.559645 20 1.25 20C1.89717 20 2.4291 20.4918 2.49316 21.1221L2.5 21.25ZM3.43652 13.1201C4.0184 13.4031 4.28232 14.0781 4.06445 14.6729L4.01367 14.791L3.95215 14.9033C3.61888 15.442 2.92472 15.6511 2.34277 15.3682C1.76099 15.085 1.49777 14.4102 1.71582 13.8154L1.76563 13.6973C2.06758 13.0766 2.81574 12.8183 3.43652 13.1201ZM4.01367 27.709C4.31554 28.3298 4.05729 29.078 3.43652 29.3799C2.85456 29.6629 2.16041 29.4537 1.82715 28.915L1.76562 28.8027C1.46381 28.182 1.72222 27.4339 2.34277 27.1318C2.96354 26.83 3.71171 27.0883 4.01367 27.709ZM8.15234 7.63379C8.5921 8.10845 8.59343 8.83325 8.17481 9.30859L8.08496 9.40039L7.98633 9.48242C7.48049 9.86361 6.75816 9.80764 6.31836 9.33301C5.87857 8.85838 5.87734 8.13357 6.2959 7.6582L6.38574 7.56641C6.89212 7.09718 7.68312 7.12741 8.15234 7.63379ZM8.1748 33.1914C8.59343 33.6668 8.5921 34.3915 8.15234 34.8662C7.71251 35.3409 6.99022 35.3969 6.48437 35.0156L6.38574 34.9336C5.87936 34.4644 5.84915 33.6734 6.31836 33.167C6.78756 32.6606 7.57858 32.6304 8.08496 33.0996L8.1748 33.1914ZM14.332 3.85937C14.6186 4.43936 14.4142 5.13392 13.8779 5.4707L13.7656 5.5332L13.6484 5.58398C13.055 5.80609 12.3777 5.54705 12.0908 4.9668C11.7851 4.34798 12.0394 3.5979 12.6582 3.29199C13.277 2.98634 14.0262 3.24064 14.332 3.85937ZM13.7656 36.9668C14.3844 37.2727 14.6378 38.0218 14.332 38.6406C14.0261 39.2594 13.277 39.5137 12.6582 39.208C12.0394 38.9021 11.7851 38.152 12.0908 37.5332C12.3968 36.9143 13.1468 36.6608 13.7656 36.9668ZM21.2676 1.75684C21.4075 2.38884 21.0422 3.01525 20.4404 3.21387L20.3174 3.24805L20.1914 3.26953C19.5622 3.34339 18.9672 2.92964 18.8271 2.29785C18.678 1.62381 19.1033 0.95582 19.7773 0.80664C20.4511 0.657679 21.1182 1.08315 21.2676 1.75684ZM20.3174 39.252C20.9914 39.4011 21.4168 40.0691 21.2676 40.7432C21.1182 41.4169 20.4511 41.8423 19.7773 41.6934C19.1033 41.5442 18.678 40.8762 18.8271 40.2021C18.9765 39.5283 19.6435 39.1028 20.3174 39.252ZM27.25 0C27.9404 3.01764e-08 28.5 0.559644 28.5 1.25C28.5 1.94036 27.9404 2.5 27.25 2.5C26.5596 2.5 26 1.94036 26 1.25C26 0.559645 26.5596 9.23497e-07 27.25 0ZM27.25 40C27.9404 40 28.5 40.5596 28.5 41.25C28.5 41.9404 27.9404 42.5 27.25 42.5C26.5596 42.5 26 41.9404 26 41.25C26 40.5596 26.5596 40 27.25 40ZM34.7227 0.806641C35.3967 0.955821 35.822 1.62381 35.6729 2.29785C35.5235 2.97166 34.8565 3.3972 34.1826 3.24805C33.5086 3.09887 33.0832 2.43088 33.2324 1.75684C33.3818 1.08315 34.0489 0.657677 34.7227 0.806641ZM35.6729 40.2021C35.8127 40.834 35.4481 41.4604 34.8467 41.6592L34.7227 41.6934L34.5967 41.7148C33.9676 41.7885 33.3725 41.3748 33.2324 40.7432C33.0832 40.0691 33.5086 39.4011 34.1826 39.252C34.8565 39.1028 35.5235 39.5283 35.6729 40.2021ZM41.8418 3.29199C42.4606 3.5979 42.7149 4.34798 42.4092 4.9668C42.1032 5.58566 41.3532 5.83915 40.7344 5.5332C40.1156 5.22729 39.8622 4.47819 40.168 3.85938C40.4739 3.24064 41.223 2.98634 41.8418 3.29199ZM42.4092 37.5332C42.6958 38.1133 42.4907 38.8088 41.9541 39.1455L41.8418 39.208L41.7246 39.2588C41.1312 39.4806 40.4548 39.2208 40.168 38.6406C39.8622 38.0218 40.1156 37.2727 40.7344 36.9668C41.3532 36.6608 42.1032 36.9143 42.4092 37.5332ZM48.1143 7.56641C48.6206 8.03563 48.6508 8.82663 48.1816 9.33301C47.7418 9.80764 47.0195 9.86362 46.5137 9.48242L46.415 9.40039C45.9087 8.9312 45.8785 8.14018 46.3477 7.63379C46.7875 7.15913 47.5098 7.10311 48.0156 7.48438L48.1143 7.56641ZM48.1816 33.167C48.6214 33.6416 48.6227 34.3664 48.2041 34.8418L48.1143 34.9336C47.6079 35.4028 46.8169 35.3726 46.3477 34.8662C45.9079 34.3915 45.9066 33.6668 46.3252 33.1914L46.415 33.0996C46.9214 32.6304 47.7124 32.6606 48.1816 33.167ZM52.7344 13.6973C53.0362 14.318 52.7778 15.0662 52.1572 15.3682C51.5365 15.67 50.7883 15.4117 50.4863 14.791C50.1845 14.1702 50.4427 13.422 51.0635 13.1201C51.6843 12.8183 52.4324 13.0766 52.7344 13.6973ZM52.1572 27.1318C52.739 27.415 53.0022 28.0898 52.7842 28.6846L52.7344 28.8027L52.6729 28.915C52.3396 29.4537 51.6454 29.6629 51.0635 29.3799C50.4427 29.078 50.1845 28.3298 50.4863 27.709C50.7883 27.0883 51.5365 26.83 52.1572 27.1318ZM54.4932 21.3779C54.4291 22.0082 53.8972 22.5 53.25 22.5C52.6028 22.5 52.0709 22.0082 52.0068 21.3779L52 21.25C52 20.5596 52.5596 20 53.25 20C53.9404 20 54.5 20.5596 54.5 21.25L54.4932 21.3779Z" fill="#1D1611"/>
<path d="M15.5 21.25C15.5 21.9404 14.9404 22.5 14.25 22.5C13.6028 22.5 13.0709 22.0082 13.0068 21.3779L13 21.25C13 20.5596 13.5596 20 14.25 20C14.8972 20 15.4291 20.4918 15.4932 21.1221L15.5 21.25ZM19.6982 13.041C20.0852 13.6125 19.9357 14.3892 19.3643 14.7764C18.7927 15.1635 18.015 15.014 17.6279 14.4424C17.2412 13.8709 17.3907 13.0941 17.9619 12.707C18.5335 12.3199 19.3111 12.4694 19.6982 13.041ZM19.3643 27.7236C19.9357 28.1108 20.0852 28.8875 19.6982 29.459C19.3111 30.0306 18.5335 30.1801 17.9619 29.793C17.3907 29.4059 17.2412 28.6291 17.6279 28.0576C18.015 27.486 18.7927 27.3365 19.3643 27.7236ZM27.25 10C27.9404 10 28.5 10.5596 28.5 11.25C28.5 11.9404 27.9404 12.5 27.25 12.5L27.1221 12.4932C26.4918 12.4291 26 11.8972 26 11.25C26 10.6028 26.4918 10.0709 27.1221 10.0068L27.25 10ZM27.25 30C27.9404 30 28.5 30.5596 28.5 31.25C28.5 31.9404 27.9404 32.5 27.25 32.5L27.1221 32.4932C26.4918 32.4291 26 31.8972 26 31.25C26 30.6028 26.4918 30.0709 27.1221 30.0068L27.25 30ZM36.5381 12.707C37.1093 13.0941 37.2588 13.8709 36.8721 14.4424C36.485 15.014 35.7073 15.1635 35.1357 14.7764C34.5643 14.3892 34.4148 13.6125 34.8018 13.041C35.1889 12.4694 35.9665 12.3199 36.5381 12.707ZM36.8721 28.0576C37.2588 28.6291 37.1093 29.4059 36.5381 29.793C35.9665 30.1801 35.1889 30.0306 34.8018 29.459C34.4148 28.8875 34.5643 28.1108 35.1357 27.7236C35.7073 27.3365 36.485 27.486 36.8721 28.0576ZM41.5 21.25C41.5 21.9404 40.9404 22.5 40.25 22.5C39.6028 22.5 39.0709 22.0082 39.0068 21.3779L39 21.25C39 20.5596 39.5596 20 40.25 20C40.8972 20 41.4291 20.4918 41.4932 21.1221L41.5 21.25Z" fill="#1D1611"/>
<path d="M27.5 22.75C26.8096 22.75 26.25 22.1904 26.25 21.5C26.25 20.8096 26.8096 20.25 27.5 20.25C28.1904 20.25 28.75 20.8096 28.75 21.5C28.75 22.1904 28.1904 22.75 27.5 22.75Z" fill="#1D1611"/>
</svg>
