<svg width="46" height="55" viewBox="0 0 46 55" fill="none" xmlns="http://www.w3.org/2000/svg">
<path d="M14.0225 52.3662C14.2986 52.0902 14.6718 51.9695 15.0322 52.0059C15.0365 52.0063 15.0407 52.0073 15.0449 52.0078C15.0819 52.0119 15.1188 52.017 15.1553 52.0244C15.1642 52.0262 15.1728 52.0293 15.1816 52.0312C15.2118 52.038 15.2418 52.0456 15.2715 52.0547C15.2854 52.0589 15.2988 52.0646 15.3125 52.0693C15.3377 52.078 15.363 52.0864 15.3877 52.0967C15.4792 52.1349 15.5646 52.1843 15.6436 52.2422C15.6617 52.2555 15.6807 52.2678 15.6982 52.2822C15.978 52.5115 16.1562 52.8601 16.1562 53.25C16.1562 53.9403 15.5966 54.5 14.9062 54.5C14.5748 54.5 14.2569 54.3682 14.0225 54.1338C13.5345 53.6456 13.5343 52.8543 14.0225 52.3662ZM22.8779 52.0068C23.5082 52.0709 24 52.6028 24 53.25C24 53.8972 23.5082 54.4291 22.8779 54.4932L22.75 54.5C22.0596 54.5 21.5 53.9404 21.5 53.25C21.5 52.5596 22.0596 52 22.75 52L22.8779 52.0068ZM30.5938 52.001C30.8929 52.0008 31.1933 52.1067 31.4326 52.3232C31.9444 52.7864 31.9836 53.577 31.5205 54.0889C31.2835 54.3506 30.9468 54.5 30.5938 54.5C29.9034 54.5 29.3438 53.9403 29.3438 53.25C29.3438 52.9272 29.4671 52.6339 29.668 52.4121L29.667 52.4111C29.6733 52.4041 29.6801 52.3975 29.6865 52.3906C29.7041 52.3721 29.7225 52.3544 29.7412 52.3369C29.7515 52.3273 29.7619 52.3178 29.7725 52.3086C29.7894 52.2938 29.8065 52.2795 29.8242 52.2656C29.8428 52.2511 29.8616 52.237 29.8809 52.2236C29.8963 52.2129 29.9118 52.2024 29.9277 52.1924C29.942 52.1834 29.9562 52.1744 29.9707 52.166C29.9914 52.1541 30.0128 52.1435 30.0342 52.1328C30.0542 52.1228 30.0743 52.1134 30.0947 52.1045C30.1054 52.0998 30.1161 52.0952 30.127 52.0908C30.1538 52.08 30.1806 52.0694 30.208 52.0605C30.2208 52.0564 30.2341 52.0536 30.2471 52.0498C30.2704 52.0431 30.2937 52.0366 30.3174 52.0312C30.3387 52.0264 30.3602 52.0223 30.3818 52.0186C30.3994 52.0155 30.4169 52.013 30.4346 52.0107C30.4562 52.008 30.478 52.0065 30.5 52.0049C30.5205 52.0033 30.541 52.0015 30.5615 52.001C30.5722 52.0007 30.583 52.001 30.5938 52.001ZM34.2188 47.3789C34.6819 46.867 35.4724 46.8279 35.9844 47.291C36.4963 47.7541 36.5363 48.5447 36.0732 49.0566C35.6101 49.5686 34.8196 49.6076 34.3076 49.1445C33.7956 48.6814 33.7556 47.8909 34.2188 47.3789ZM7.19434 45.5342C7.65212 45.0768 8.37637 45.0487 8.86719 45.4492L8.96191 45.5352L9.04785 45.6299C9.44824 46.1209 9.41962 46.8452 8.96191 47.3027C8.47376 47.7906 7.6824 47.7906 7.19434 47.3027C6.7063 46.8145 6.70606 46.0222 7.19434 45.5342ZM38.7705 42.3467C39.2336 41.8347 40.0242 41.7957 40.5361 42.2588C41.0481 42.7219 41.0881 43.5124 40.625 44.0244C40.1619 44.5362 39.3713 44.5754 38.8594 44.1123C38.3475 43.6492 38.3075 42.8586 38.7705 42.3467ZM16.3047 39.8691C16.569 39.6347 16.9049 39.5331 17.2314 39.5586C17.2534 39.5603 17.2752 39.5626 17.2969 39.5654C17.3172 39.5681 17.3373 39.5715 17.3574 39.5752C17.3768 39.5787 17.396 39.5825 17.415 39.5869C17.4333 39.5911 17.4516 39.5955 17.4697 39.6006C17.4924 39.6069 17.5149 39.6135 17.5371 39.6211C17.5536 39.6267 17.5697 39.6334 17.5859 39.6396C17.6067 39.6477 17.6273 39.6559 17.6475 39.665C17.6676 39.6741 17.6873 39.6842 17.707 39.6943C17.7197 39.7009 17.7327 39.7069 17.7451 39.7139C17.768 39.7267 17.7903 39.7405 17.8125 39.7549C17.8263 39.7638 17.8401 39.7728 17.8535 39.7822C17.8721 39.7953 17.8902 39.809 17.9082 39.8232C17.9225 39.8346 17.9364 39.8465 17.9502 39.8584C17.9674 39.8733 17.9845 39.8884 18.001 39.9043C18.0141 39.9169 18.0265 39.9302 18.0391 39.9434C18.0489 39.9537 18.0598 39.9638 18.0693 39.9746H18.0674C18.2638 40.1954 18.3838 40.4859 18.3838 40.8047C18.3835 41.4948 17.824 42.0547 17.1338 42.0547C16.7765 42.0546 16.4364 41.901 16.1992 41.6338C15.741 41.1175 15.7884 40.3274 16.3047 39.8691ZM28.8574 39.5596C29.2196 39.5271 29.5929 39.6516 29.8662 39.9326C30.3474 40.4274 30.3364 41.2189 29.8418 41.7002C29.6085 41.9271 29.2952 42.0547 28.9697 42.0547C28.2796 42.0546 27.72 41.4948 27.7197 40.8047C27.7197 40.4139 27.8988 40.0642 28.1797 39.835C28.1961 39.8215 28.2135 39.8094 28.2305 39.7969C28.25 39.7825 28.2696 39.7681 28.29 39.7549C28.3021 39.7471 28.3149 39.7407 28.3271 39.7334C28.3488 39.7204 28.3702 39.707 28.3926 39.6953C28.406 39.6883 28.4199 39.6823 28.4336 39.6758C28.4571 39.6646 28.4806 39.6533 28.5049 39.6436C28.5181 39.6383 28.5316 39.6337 28.5449 39.6289C28.5624 39.6226 28.5798 39.6159 28.5977 39.6104L28.6309 39.6006C28.6476 39.5959 28.6648 39.5929 28.6816 39.5889C28.6982 39.585 28.7146 39.5804 28.7314 39.5771C28.7505 39.5735 28.7698 39.5712 28.7891 39.5684C28.8117 39.5651 28.8344 39.5616 28.8574 39.5596ZM1.25 38.3369C1.64138 38.3369 1.99053 38.5172 2.21973 38.7988C2.25901 38.847 2.2932 38.898 2.32422 38.9502C2.33257 38.9642 2.3418 38.9778 2.34961 38.9922C2.36103 39.0133 2.37074 39.0351 2.38086 39.0566C2.38885 39.0737 2.39608 39.091 2.40332 39.1084C2.41057 39.1259 2.41741 39.1434 2.42383 39.1611C2.43109 39.1811 2.43808 39.2012 2.44434 39.2217C2.45095 39.2433 2.45651 39.2652 2.46191 39.2871C2.46616 39.3043 2.47108 39.3214 2.47461 39.3389C2.55473 39.7357 2.44157 40.164 2.13379 40.4717C1.64551 40.9596 0.854214 40.9589 0.366211 40.4707C0.131922 40.2363 0 39.9183 0 39.5869C0.000156656 38.8967 0.559741 38.3369 1.25 38.3369ZM44.25 36.9033C44.9404 36.9033 45.5 37.463 45.5 38.1533C45.5 38.4632 45.3846 38.7624 45.1768 38.9922C44.7136 39.5039 43.923 39.5431 43.4111 39.0801C43.1386 38.8335 43.0011 38.494 43.001 38.1533C43.001 38.1452 43.0008 38.137 43.001 38.1289C43.0012 38.1178 43.0005 38.1068 43.001 38.0957L43.0068 38.0254C43.0076 38.0182 43.0089 38.0111 43.0098 38.0039C43.0128 37.9787 43.0169 37.9537 43.0215 37.9287C43.0246 37.9117 43.0275 37.8947 43.0312 37.8779C43.0365 37.8544 43.0421 37.8309 43.0488 37.8076C43.0526 37.7945 43.0564 37.7815 43.0605 37.7686C43.0694 37.7412 43.08 37.7144 43.0908 37.6875C43.0951 37.6768 43.0989 37.6659 43.1035 37.6553C43.1075 37.6462 43.1111 37.6369 43.1152 37.6279L43.1504 37.5576C43.1545 37.5501 43.1588 37.5426 43.1631 37.5352C43.1722 37.5192 43.1825 37.5039 43.1924 37.4883C43.2044 37.4692 43.2165 37.4501 43.2295 37.4316C43.2391 37.418 43.2495 37.4049 43.2598 37.3916C43.2749 37.372 43.2904 37.3527 43.3066 37.334C43.3122 37.3276 43.3176 37.3207 43.3232 37.3145L43.3242 37.3154C43.5529 37.0628 43.8824 36.9033 44.25 36.9033ZM33.1641 35.4756C33.8543 35.4757 34.414 36.0354 34.4141 36.7256C34.4141 37.0632 34.2772 37.3867 34.0352 37.6221C33.5403 38.1032 32.7488 38.0924 32.2676 37.5977C32.0313 37.3546 31.915 37.0397 31.915 36.7256L31.9141 36.708C31.9152 36.6271 31.9237 36.5462 31.9404 36.4668C31.9831 36.264 32.0752 36.0793 32.2031 35.9258C32.2215 35.9038 32.2416 35.8833 32.2617 35.8623C32.4893 35.6246 32.809 35.4756 33.1641 35.4756ZM11.7041 33.4365C12.0754 33.4366 12.4078 33.5994 12.6367 33.8564H12.6387C12.6427 33.861 12.6464 33.8665 12.6504 33.8711C12.6684 33.892 12.6855 33.9135 12.7021 33.9355C12.7102 33.9462 12.7179 33.9569 12.7256 33.9678C12.7394 33.9874 12.7519 34.0079 12.7646 34.0283C12.7752 34.0453 12.7862 34.0618 12.7959 34.0791C12.8028 34.0916 12.8089 34.1045 12.8154 34.1172C12.8283 34.1423 12.8405 34.1676 12.8516 34.1934C12.8557 34.203 12.8594 34.2129 12.8633 34.2227C12.8743 34.2501 12.8846 34.2777 12.8936 34.3057C12.8973 34.3173 12.9009 34.329 12.9043 34.3408C12.9119 34.3674 12.919 34.394 12.9248 34.4209C12.9282 34.4364 12.9308 34.4521 12.9336 34.4678C12.9381 34.4934 12.9424 34.5191 12.9453 34.5449C12.947 34.5595 12.9471 34.5742 12.9482 34.5889C12.9502 34.6139 12.9517 34.6389 12.9521 34.6641C12.9523 34.6715 12.9541 34.679 12.9541 34.6865C12.954 35.0312 12.8121 35.3742 12.5342 35.6211C12.018 36.0793 11.2278 36.0326 10.7695 35.5166C10.5665 35.2879 10.4541 34.9924 10.4541 34.6865L10.46 34.5586C10.524 33.9283 11.0569 33.4365 11.7041 33.4365ZM0 31.3623C3.40154e-05 30.672 0.559665 30.1123 1.25 30.1123C1.94033 30.1123 2.49997 30.672 2.5 31.3623C2.5 32.0527 1.94036 32.6123 1.25 32.6123C0.559644 32.6123 0 32.0527 0 31.3623ZM43 31.2197C43.0001 30.5294 43.5597 29.9697 44.25 29.9697C44.9403 29.9697 45.4999 30.5294 45.5 31.2197C45.5 31.9101 44.9404 32.4697 44.25 32.4697C43.5596 32.4697 43 31.9101 43 31.2197ZM19.7158 29.1191C20.2039 28.6309 20.9951 28.6311 21.4834 29.1191C21.9716 29.6072 21.9724 30.3984 21.4844 30.8867C20.9964 31.375 20.2051 31.3747 19.7168 30.8867C19.2285 30.3987 19.2278 29.6074 19.7158 29.1191ZM32.1084 28.3125C32.4787 27.7299 33.2514 27.5585 33.834 27.9287C34.1949 28.1581 34.4141 28.5557 34.4141 28.9834C34.4141 29.6737 33.8543 30.2333 33.1641 30.2334C32.9168 30.2334 32.6872 30.16 32.4932 30.0361V30.0381C32.4874 30.0344 32.4822 30.0301 32.4766 30.0264C32.4613 30.0163 32.4464 30.0058 32.4316 29.9951C32.4116 29.9806 32.392 29.9657 32.373 29.9502C32.3668 29.9451 32.3607 29.9398 32.3545 29.9346C32.2931 29.8825 32.2375 29.8258 32.1885 29.7646C32.1517 29.7188 32.119 29.6699 32.0889 29.6191C32.0819 29.6073 32.074 29.596 32.0674 29.584C32.0581 29.5672 32.0505 29.5495 32.042 29.5322C32.034 29.5159 32.0248 29.5001 32.0176 29.4834L32.0117 29.4697C31.988 29.4136 31.9695 29.3549 31.9541 29.2949C31.9495 29.277 31.9442 29.2593 31.9404 29.2412C31.9378 29.2286 31.9359 29.2159 31.9336 29.2031C31.9288 29.1766 31.9249 29.1499 31.9219 29.123C31.92 29.1066 31.9192 29.0899 31.918 29.0732C31.9166 29.0547 31.9146 29.0362 31.9141 29.0176V28.9834C31.9138 28.7537 31.9761 28.5208 32.1084 28.3125ZM10.4541 28.4668C10.4542 27.7765 11.0138 27.2168 11.7041 27.2168C12.3944 27.2169 12.954 27.7765 12.9541 28.4668C12.9541 29.1571 12.3944 29.7167 11.7041 29.7168C11.0137 29.7168 10.4541 29.1572 10.4541 28.4668ZM25.2188 23.6133C25.607 23.2248 26.1998 23.138 26.6797 23.3877L26.7734 23.4424L26.8779 23.5156C27.3757 23.9076 27.5051 24.6207 27.1582 25.167C27.1081 25.2458 27.0497 25.3164 26.9863 25.3799C26.9845 25.3817 26.9832 25.384 26.9814 25.3857C26.956 25.4109 26.9295 25.4344 26.9023 25.457C26.8868 25.47 26.8705 25.482 26.8545 25.4941C26.8365 25.5077 26.8184 25.5207 26.7998 25.5332C26.7906 25.5394 26.7817 25.5459 26.7725 25.5518C26.746 25.5685 26.7189 25.584 26.6914 25.5986C26.6807 25.6043 26.67 25.6099 26.6592 25.6152C26.6367 25.6264 26.6139 25.6367 26.5908 25.6465C26.5711 25.6548 26.5513 25.6626 26.5312 25.6699C26.5118 25.677 26.4924 25.6843 26.4727 25.6904C26.4488 25.6978 26.4245 25.7031 26.4004 25.709C26.3896 25.7116 26.3791 25.7154 26.3682 25.7178C26.3387 25.7241 26.309 25.7282 26.2793 25.7324C26.2672 25.7341 26.2553 25.7369 26.2432 25.7383C26.2247 25.7404 26.2061 25.7409 26.1875 25.7422C26.1631 25.7439 26.1388 25.7459 26.1143 25.7461C26.0993 25.7462 26.0843 25.7455 26.0693 25.7451C26.0449 25.7445 26.0205 25.7433 25.9961 25.7412C25.9804 25.7399 25.9648 25.7383 25.9492 25.7363C25.9258 25.7334 25.9023 25.7308 25.8789 25.7266C25.8612 25.7233 25.8438 25.7188 25.8262 25.7148C25.8017 25.7093 25.7772 25.7034 25.7529 25.6963C25.7418 25.693 25.7308 25.6891 25.7197 25.6855C25.6936 25.6771 25.6674 25.6685 25.6416 25.6582C25.6231 25.6508 25.6052 25.6421 25.5869 25.6338C25.57 25.6261 25.5528 25.6189 25.5361 25.6104C25.5115 25.5978 25.4878 25.5836 25.4639 25.5693C25.4538 25.5633 25.4426 25.5581 25.4326 25.5518C25.3573 25.5037 25.2855 25.4466 25.2197 25.3809C24.7315 24.8928 24.7308 24.1015 25.2188 23.6133ZM43.2871 23.4893C43.7273 22.9577 44.5151 22.8833 45.0469 23.3232C45.3336 23.5606 45.4999 23.9139 45.5 24.2861C45.5 24.9765 44.9404 25.5361 44.25 25.5361C43.9027 25.5361 43.5888 25.3947 43.3623 25.166C43.3529 25.1565 43.344 25.1465 43.335 25.1367C43.2899 25.0882 43.2479 25.0367 43.2109 24.9814C43.1992 24.9639 43.1885 24.9458 43.1777 24.9277C43.1687 24.9127 43.1588 24.8982 43.1504 24.8828L43.1406 24.8633C43.1337 24.8499 43.1285 24.8358 43.1221 24.8223C43.1143 24.806 43.1057 24.7901 43.0986 24.7734L43.0898 24.7529C43.081 24.7308 43.074 24.7081 43.0664 24.6855C43.0626 24.6741 43.0582 24.6629 43.0547 24.6514C43.0478 24.6288 43.0427 24.6059 43.0371 24.583C43.0327 24.5648 43.0271 24.5468 43.0234 24.5283C43.0192 24.507 43.0168 24.4854 43.0137 24.4639C43.0101 24.4387 43.0069 24.4133 43.0049 24.3877C42.9794 24.0742 43.0707 23.7507 43.2871 23.4893ZM0 23.1377C0 22.4473 0.559644 21.8877 1.25 21.8877C1.94036 21.8877 2.5 22.4473 2.5 23.1377C2.49997 23.828 1.94033 24.3877 1.25 24.3877C0.559665 24.3877 3.40155e-05 23.828 0 23.1377ZM10.71 21.4902C11.1282 20.9411 11.9117 20.8349 12.4609 21.2529C12.7836 21.4986 12.9528 21.8706 12.9531 22.2471C12.9531 22.2568 12.9524 22.2667 12.9521 22.2764C12.9517 22.2985 12.9509 22.3206 12.9492 22.3428C12.9478 22.3612 12.9455 22.3793 12.9434 22.3975C12.9404 22.422 12.937 22.4463 12.9326 22.4707C12.9292 22.4898 12.9252 22.5086 12.9209 22.5273C12.9161 22.5483 12.9102 22.569 12.9043 22.5898C12.8991 22.6079 12.8936 22.6258 12.8877 22.6436C12.8807 22.6645 12.8734 22.6854 12.8652 22.7061C12.8586 22.7229 12.8511 22.7394 12.8438 22.7559C12.8335 22.7788 12.8233 22.8018 12.8115 22.8242C12.8046 22.8374 12.7974 22.8504 12.79 22.8633C12.7786 22.8834 12.7666 22.9032 12.7539 22.9229C12.7411 22.9428 12.7278 22.9623 12.7139 22.9814C12.7084 22.9889 12.7039 22.9975 12.6982 23.0049L12.6973 23.0039C12.4689 23.3033 12.1097 23.497 11.7041 23.4971C11.0137 23.4971 10.4541 22.9374 10.4541 22.2471C10.4542 21.9736 10.5443 21.7078 10.71 21.4902ZM37.749 18.9043C38.1892 18.3728 38.9771 18.2983 39.5088 18.7383L39.6035 18.8252C40.0481 19.2765 40.0875 20.0005 39.6748 20.499C39.2346 21.0307 38.4468 21.1043 37.915 20.6641C37.3833 20.2238 37.3088 19.4361 37.749 18.9043ZM33.1738 13.8662L33.2822 13.8711C33.5341 13.8931 33.7746 13.991 33.9707 14.1533L34.0645 14.2402C34.5094 14.6915 34.5495 15.4154 34.1367 15.9141C33.866 16.241 33.4636 16.3936 33.0703 16.3613C33.0493 16.3596 33.0286 16.3563 33.0078 16.3535C32.9391 16.3444 32.8707 16.3313 32.8037 16.3105C32.7925 16.3071 32.7816 16.3026 32.7705 16.2988C32.7444 16.2899 32.7181 16.2812 32.6924 16.2705C32.6302 16.2446 32.5712 16.2129 32.5146 16.1777C32.4932 16.1644 32.472 16.1505 32.4512 16.1357C32.1322 15.9092 31.9238 15.5372 31.9238 15.1162C31.9241 14.4261 32.4836 13.8662 33.1738 13.8662ZM17.1338 13.8662C17.824 13.8662 18.3835 14.4261 18.3838 15.1162C18.3838 15.401 18.2873 15.6629 18.127 15.873L18.1289 15.874C18.1242 15.8802 18.1181 15.8855 18.1133 15.8916C18.1006 15.9076 18.0876 15.9232 18.0742 15.9385C18.0605 15.9542 18.0466 15.9695 18.0322 15.9844C18.0181 15.999 18.0031 16.0125 17.9883 16.0264C17.971 16.0426 17.9535 16.0582 17.9355 16.0732C17.9283 16.0793 17.9215 16.0859 17.9141 16.0918C17.8914 16.1099 17.8684 16.1272 17.8447 16.1436C17.8276 16.1554 17.8097 16.1658 17.792 16.1768C17.775 16.1873 17.7586 16.1984 17.7412 16.208C17.7239 16.2176 17.7063 16.2265 17.6885 16.2354C17.6709 16.244 17.6536 16.2529 17.6357 16.2607C17.6137 16.2704 17.5911 16.2787 17.5684 16.2871C17.5531 16.2928 17.5379 16.2987 17.5225 16.3037C17.5048 16.3095 17.4868 16.3143 17.4688 16.3193C17.4441 16.3262 17.4195 16.3326 17.3945 16.3379C17.3829 16.3404 17.3712 16.3426 17.3594 16.3447C17.3331 16.3495 17.3068 16.3533 17.2803 16.3564C17.2644 16.3583 17.2485 16.3601 17.2324 16.3613C17.2019 16.3638 17.1713 16.365 17.1406 16.3652C17.1384 16.3652 17.136 16.3662 17.1338 16.3662C16.8696 16.3664 16.6034 16.2837 16.377 16.1113C15.862 15.7192 15.7363 15.0051 16.0674 14.4648L16.1396 14.3594L16.2344 14.249C16.4684 14.0063 16.7925 13.8663 17.1338 13.8662ZM25.1533 13.8662C25.8435 13.8662 26.4031 14.4261 26.4033 15.1162C26.4033 15.8066 25.8437 16.3662 25.1533 16.3662C24.4631 16.366 23.9033 15.8064 23.9033 15.1162C23.9036 14.4262 24.4633 13.8664 25.1533 13.8662ZM0.366211 14.0293C0.854214 13.5411 1.64551 13.5404 2.13379 14.0283C2.44133 14.3357 2.55436 14.7636 2.47461 15.1602C2.47163 15.175 2.46737 15.1895 2.46387 15.2041C2.45799 15.2287 2.45172 15.2531 2.44434 15.2773C2.4393 15.2939 2.43342 15.31 2.42773 15.3262C2.42014 15.3478 2.41214 15.3693 2.40332 15.3906C2.39609 15.4081 2.38884 15.4254 2.38086 15.4424C2.37168 15.462 2.3628 15.4818 2.35254 15.501C2.34958 15.5065 2.34678 15.5121 2.34375 15.5176C2.3262 15.5493 2.30665 15.58 2.28613 15.6104C2.06156 15.9433 1.68179 16.1631 1.25 16.1631C0.559741 16.1631 0.000157687 15.6033 0 14.9131C0 14.5817 0.131922 14.2637 0.366211 14.0293ZM7.19434 7.19727C7.6824 6.70936 8.47376 6.70935 8.96191 7.19727C9.4501 7.68531 9.44992 8.4766 8.96191 8.96484C8.47393 9.45307 7.68262 9.45371 7.19434 8.96582C6.70606 8.47778 6.7063 7.68554 7.19434 7.19727ZM14.9062 0C15.5966 4.22613e-05 16.1562 0.55967 16.1562 1.25C16.1562 1.59516 16.0162 1.90759 15.79 2.13379L15.6953 2.21973C15.6835 2.22935 15.6703 2.23697 15.6582 2.24609C15.6385 2.26098 15.6192 2.27632 15.5986 2.29004C15.5891 2.29638 15.579 2.30157 15.5693 2.30762C15.5116 2.34387 15.4512 2.37577 15.3877 2.40234C15.363 2.41266 15.3377 2.42102 15.3125 2.42969C15.2988 2.43441 15.2854 2.44008 15.2715 2.44434C15.2418 2.4534 15.2118 2.46097 15.1816 2.46777C15.1728 2.46977 15.1642 2.47281 15.1553 2.47461C15.1187 2.48201 15.0819 2.4871 15.0449 2.49121C15.0407 2.49168 15.0365 2.49274 15.0322 2.49316C14.6718 2.52953 14.2987 2.40986 14.0225 2.13379C13.5343 1.64574 13.5345 0.854436 14.0225 0.366211L14.1133 0.283203C14.3358 0.100726 14.616 0 14.9062 0ZM23.874 0C24.5644 0 25.124 0.559644 25.124 1.25C25.124 1.94036 24.5644 2.5 23.874 2.5C23.1838 2.49987 22.624 1.94028 22.624 1.25C22.624 0.559722 23.1838 0.000125741 23.874 0Z" fill="#1D1611"/>
</svg>
