<svg width="36" height="55" viewBox="0 0 36 55" fill="none" xmlns="http://www.w3.org/2000/svg">
<path d="M16.6846 53.2502C16.6846 52.56 17.2444 52.0005 17.9346 52.0002C18.6249 52.0002 19.1846 52.5599 19.1846 53.2502C19.1844 53.9405 18.6248 54.5002 17.9346 54.5002C17.2445 54.5 16.6847 53.9403 16.6846 53.2502ZM17.9551 41.4983C17.9688 41.4985 17.9824 41.4996 17.9961 41.5002C17.9938 41.5001 17.9915 41.5003 17.9893 41.5002C18.0082 41.501 18.027 41.5015 18.0459 41.5032C18.0514 41.5036 18.057 41.5036 18.0625 41.5041L18.0801 41.5061C18.0912 41.5074 18.1022 41.5094 18.1133 41.511C18.1299 41.5134 18.1465 41.5157 18.1631 41.5188C18.1738 41.5208 18.1847 41.5224 18.1953 41.5246C18.2081 41.5274 18.2207 41.5313 18.2334 41.5344C18.2513 41.5388 18.2693 41.5429 18.2871 41.5481C18.2936 41.55 18.3002 41.5519 18.3066 41.5539L18.3154 41.5569C18.3227 41.5592 18.3297 41.5622 18.3369 41.5647C18.3599 41.5725 18.3827 41.5809 18.4053 41.5901C18.4117 41.5927 18.4185 41.5942 18.4248 41.5969C18.4384 41.6027 18.4514 41.6101 18.4648 41.6164C18.4792 41.6232 18.4937 41.6296 18.5078 41.637C18.5303 41.6485 18.5523 41.661 18.5742 41.6741C18.59 41.6835 18.6056 41.6932 18.6211 41.7034C18.64 41.7158 18.6584 41.7289 18.6768 41.7424C18.6909 41.7529 18.705 41.7635 18.7188 41.7746C18.7384 41.7905 18.7575 41.8072 18.7764 41.8245C18.7843 41.8317 18.793 41.8384 18.8008 41.8459C18.8111 41.8558 18.8201 41.866 18.8301 41.8762C18.8321 41.8783 18.8349 41.8799 18.8369 41.8821C18.8449 41.8904 18.8516 41.8999 18.8594 41.9084C18.8758 41.9266 18.8918 41.945 18.9072 41.9641C18.9221 41.9825 18.9366 42.0008 18.9502 42.0198C18.9602 42.0336 18.9701 42.0475 18.9795 42.0618C18.9923 42.0813 19.004 42.1013 19.0156 42.1213C19.0246 42.1368 19.0336 42.1523 19.042 42.1682C19.0514 42.1862 19.0599 42.2046 19.0684 42.2229C19.0779 42.2435 19.0873 42.2642 19.0957 42.2854C19.1017 42.3005 19.1069 42.316 19.1123 42.3313C19.1198 42.3526 19.1274 42.3739 19.1338 42.3957C19.1406 42.419 19.1459 42.4425 19.1514 42.4661C19.1547 42.4803 19.1583 42.4945 19.1611 42.509C19.1658 42.5333 19.1696 42.5578 19.1729 42.5823C19.1752 42.5998 19.1771 42.6173 19.1787 42.635C19.1812 42.6623 19.182 42.6896 19.1826 42.717C19.1829 42.7271 19.1846 42.7372 19.1846 42.7473C19.1846 42.7501 19.1836 42.7533 19.1836 42.7561C19.1834 42.7822 19.1815 42.8082 19.1797 42.8342C19.1786 42.8506 19.1785 42.8669 19.1768 42.883C19.1696 42.9493 19.1564 43.0147 19.1387 43.0793C19.1345 43.0947 19.1308 43.1101 19.126 43.1252C19.0955 43.2217 19.0524 43.3145 18.998 43.4026C18.9662 43.4542 18.9314 43.5037 18.8926 43.55C18.8855 43.5585 18.8775 43.5661 18.8701 43.5745C18.8475 43.6 18.8254 43.626 18.8008 43.6496L18.7998 43.6487C18.5752 43.8643 18.2705 43.9973 17.9346 43.9973C17.5985 43.9972 17.2939 43.8645 17.0693 43.6487C17.0675 43.6469 17.0653 43.6456 17.0635 43.6438C17.0408 43.6218 17.0199 43.5981 16.999 43.5745C16.9917 43.5662 16.9837 43.5585 16.9766 43.55C16.9378 43.5037 16.9029 43.4542 16.8711 43.4026C16.8174 43.3154 16.7745 43.2235 16.7441 43.1282L16.7412 43.1194C16.7227 43.06 16.7097 42.9986 16.7002 42.9358C16.698 42.9214 16.695 42.9072 16.6934 42.8928L16.6914 42.8752C16.6872 42.8333 16.6846 42.7903 16.6846 42.7473C16.6846 42.7283 16.6867 42.7095 16.6875 42.6907C16.6883 42.6728 16.6879 42.6548 16.6895 42.637C16.6914 42.6149 16.6952 42.5932 16.6982 42.5715C16.7006 42.5546 16.703 42.5376 16.7061 42.5207C16.7106 42.4958 16.7156 42.471 16.7217 42.4465C16.7257 42.4301 16.7306 42.4139 16.7354 42.3977C16.7419 42.3753 16.7491 42.3532 16.7568 42.3313C16.7622 42.316 16.7674 42.3005 16.7734 42.2854C16.7819 42.2642 16.7912 42.2435 16.8008 42.2229C16.8093 42.2046 16.8177 42.1862 16.8271 42.1682C16.8355 42.1523 16.8445 42.1368 16.8535 42.1213C16.8651 42.1013 16.8768 42.0812 16.8896 42.0618C16.8991 42.0473 16.9099 42.0338 16.9199 42.0198C16.9334 42.001 16.9472 41.9823 16.9619 41.9641C16.965 41.9603 16.9676 41.9561 16.9707 41.9524L17.0332 41.8821C17.0351 41.8801 17.0372 41.8782 17.0391 41.8762C17.049 41.866 17.059 41.8558 17.0693 41.8459L17.0928 41.8245C17.1116 41.8072 17.1308 41.7905 17.1504 41.7746C17.1642 41.7635 17.1783 41.7529 17.1924 41.7424C17.2107 41.7289 17.2292 41.7158 17.248 41.7034C17.2635 41.6932 17.2792 41.6835 17.2949 41.6741C17.3168 41.661 17.3389 41.6486 17.3613 41.637C17.3755 41.6296 17.39 41.6232 17.4043 41.6164C17.4178 41.6101 17.4307 41.6027 17.4443 41.5969C17.4507 41.5942 17.4575 41.5927 17.4639 41.5901C17.4865 41.5809 17.5093 41.5725 17.5322 41.5647C17.5404 41.5619 17.5484 41.5585 17.5566 41.5559C17.5651 41.5532 17.5735 41.5506 17.582 41.5481C17.5998 41.5429 17.6178 41.5388 17.6357 41.5344C17.6485 41.5313 17.661 41.5274 17.6738 41.5246C17.6845 41.5224 17.6953 41.5208 17.7061 41.5188C17.7229 41.5157 17.7399 41.5134 17.7568 41.511C17.7705 41.509 17.7841 41.5066 17.7979 41.5051C17.8066 41.5042 17.8154 41.5039 17.8242 41.5032C17.8421 41.5016 17.86 41.501 17.8779 41.5002C17.89 41.4997 17.902 41.4985 17.9141 41.4983C17.9209 41.4982 17.9277 41.4973 17.9346 41.4973C17.9413 41.4973 17.9484 41.4982 17.9551 41.4983ZM11.4717 36.5432C11.9199 36.0764 12.6436 36.0328 13.1426 36.4231L13.2393 36.5071L13.3271 36.6008C13.7371 37.0835 13.7233 37.8079 13.2754 38.2746C12.8272 38.7415 12.1035 38.785 11.6045 38.3948L11.5078 38.3108C11.0098 37.8327 10.9936 37.0412 11.4717 36.5432ZM22.6309 36.5071C23.1289 36.029 23.9204 36.0453 24.3984 36.5432C24.8467 37.0102 24.8608 37.7353 24.4502 38.218L24.3623 38.3108C23.8643 38.7888 23.0728 38.7727 22.5947 38.2746C22.1168 37.7766 22.1329 36.9851 22.6309 36.5071ZM16.6846 35.6584C16.6846 34.9683 17.2445 34.4087 17.9346 34.4084C18.6249 34.4084 19.1845 34.9681 19.1846 35.6584C19.1846 36.3488 18.6249 36.9084 17.9346 36.9084C17.2444 36.9082 16.6846 36.3486 16.6846 35.6584ZM0 34.9934C0 34.303 0.559644 33.7434 1.25 33.7434C1.94036 33.7434 2.5 34.303 2.5 34.9934C2.49993 35.6837 1.94031 36.2434 1.25 36.2434C0.559687 36.2434 7.00899e-05 35.6837 0 34.9934ZM33.3701 34.9934C33.3701 34.303 33.9298 33.7434 34.6201 33.7434C35.3105 33.7434 35.8701 34.3031 35.8701 34.9934C35.87 35.6837 35.3104 36.2434 34.6201 36.2434C33.9298 36.2434 33.3702 35.6837 33.3701 34.9934ZM5.91016 31.2043C6.35839 30.7377 7.08211 30.6939 7.58105 31.0842L7.67773 31.1682L7.76465 31.262C8.17504 31.7445 8.16181 32.4688 7.71387 32.9358C7.2358 33.4338 6.44433 33.45 5.94629 32.9719C5.44825 32.4938 5.43209 31.7024 5.91016 31.2043ZM28.1924 31.1682C28.6903 30.6902 29.4819 30.7066 29.96 31.2043C30.438 31.7024 30.4219 32.4938 29.9238 32.9719C29.4258 33.45 28.6343 33.4338 28.1562 32.9358C27.6785 32.4377 27.6944 31.6462 28.1924 31.1682ZM16.6846 28.5696C16.6846 27.8794 17.2444 27.3198 17.9346 27.3196C18.6249 27.3196 19.1846 27.8792 19.1846 28.5696L19.1787 28.6975C19.1147 29.3278 18.5818 29.8196 17.9346 29.8196C17.2876 29.8193 16.7554 29.3276 16.6914 28.6975L16.6846 28.5696ZM0.759766 25.5813C1.16292 25.4095 1.62217 25.4629 1.97266 25.7112L2.11523 25.8303L2.20312 25.9231C2.40054 26.1552 2.49898 26.4432 2.49902 26.7317C2.49902 26.7448 2.49747 26.7578 2.49707 26.7707C2.49632 26.7949 2.49531 26.8189 2.49316 26.843C2.49139 26.863 2.48903 26.8828 2.48633 26.9026C2.4836 26.9225 2.48123 26.9424 2.47754 26.9621C2.47416 26.9802 2.46997 26.998 2.46582 27.0159C2.45995 27.0411 2.45374 27.0662 2.44629 27.0911C2.44273 27.1029 2.43847 27.1145 2.43457 27.1262C2.42571 27.1529 2.41598 27.1792 2.40527 27.2053C2.40067 27.2165 2.39554 27.2275 2.39062 27.2385C2.38 27.2624 2.36962 27.2865 2.35742 27.3098C2.34678 27.3301 2.33495 27.3497 2.32324 27.3694C2.31526 27.3828 2.30736 27.3962 2.29883 27.4094C2.28545 27.4301 2.27138 27.4502 2.25684 27.47C2.24764 27.4825 2.23824 27.4948 2.22852 27.5071C2.2081 27.5328 2.1864 27.5573 2.16406 27.5813C2.15951 27.5862 2.15601 27.5921 2.15137 27.5969C2.14993 27.5984 2.14792 27.5993 2.14648 27.6008C2.12497 27.623 2.1022 27.6437 2.0791 27.6643C2.07013 27.6723 2.06188 27.681 2.05273 27.6887C2.03762 27.7014 2.02157 27.7129 2.00586 27.7248C1.9867 27.7395 1.96803 27.7544 1.94824 27.7678C1.89723 27.8023 1.8431 27.8319 1.78711 27.8586C1.73288 27.8845 1.67785 27.9074 1.62109 27.925C1.56204 27.9434 1.50092 27.9556 1.43848 27.9651C1.42087 27.9678 1.40343 27.971 1.38574 27.9729C1.37182 27.9744 1.35781 27.9748 1.34375 27.9758C1.31542 27.9779 1.28719 27.9805 1.25879 27.9807C1.25586 27.9807 1.25293 27.9817 1.25 27.9817C1.23691 27.9817 1.22393 27.9791 1.21094 27.9787C1.18679 27.978 1.16276 27.977 1.13867 27.9748C1.11864 27.9731 1.09885 27.9707 1.0791 27.968C1.05984 27.9654 1.04063 27.9628 1.02148 27.9592C0.99703 27.9547 0.973152 27.9485 0.949219 27.9426C0.933577 27.9387 0.917859 27.9354 0.902344 27.9309C0.883173 27.9253 0.864482 27.9188 0.845703 27.9123C0.822427 27.9044 0.799241 27.8963 0.776367 27.887C0.765145 27.8823 0.75422 27.8772 0.743164 27.8723C0.719256 27.8617 0.695223 27.8513 0.671875 27.8391C0.651533 27.8285 0.631969 27.8166 0.612305 27.8049C0.598891 27.7969 0.58544 27.789 0.572266 27.7805C0.548693 27.7652 0.52635 27.7485 0.503906 27.7317C0.494222 27.7244 0.48413 27.7178 0.474609 27.7102C0.448882 27.6898 0.424415 27.6681 0.400391 27.6457C0.395506 27.6412 0.389596 27.6377 0.384766 27.633L0.385742 27.6321C0.14883 27.4046 0 27.0861 0 26.7317L0.0136719 26.5461C0.0773097 26.1214 0.356663 25.7531 0.759766 25.5813ZM33.7549 25.8303C34.1162 25.4834 34.6496 25.3849 35.1104 25.5813C35.5712 25.7777 35.8701 26.2308 35.8701 26.7317L35.8633 26.8596C35.8325 27.1627 35.6924 27.4323 35.4844 27.6321L35.4854 27.633C35.4805 27.6377 35.4746 27.6412 35.4697 27.6457C35.4457 27.6681 35.4212 27.6898 35.3955 27.7102C35.386 27.7178 35.3759 27.7244 35.3662 27.7317C35.3438 27.7485 35.3214 27.7652 35.2979 27.7805C35.2847 27.789 35.2712 27.7969 35.2578 27.8049C35.2381 27.8166 35.2186 27.8285 35.1982 27.8391C35.1749 27.8513 35.1509 27.8617 35.127 27.8723C35.1159 27.8772 35.105 27.8823 35.0938 27.887C35.0709 27.8963 35.0477 27.9044 35.0244 27.9123C35.0056 27.9188 34.9869 27.9253 34.9678 27.9309C34.9523 27.9354 34.9365 27.9387 34.9209 27.9426C34.897 27.9485 34.8731 27.9547 34.8486 27.9592C34.8295 27.9628 34.8103 27.9654 34.791 27.968C34.7713 27.9707 34.7515 27.9731 34.7314 27.9748C34.7074 27.977 34.6833 27.978 34.6592 27.9787C34.6462 27.9791 34.6332 27.9817 34.6201 27.9817C34.6169 27.9817 34.6136 27.9807 34.6104 27.9807C34.5819 27.9805 34.5537 27.978 34.5254 27.9758C34.5113 27.9748 34.4973 27.9744 34.4834 27.9729C34.4657 27.971 34.4483 27.9678 34.4307 27.9651C34.4058 27.9613 34.3808 27.9586 34.3564 27.9534C34.2624 27.9332 34.1711 27.9006 34.083 27.8586C34.0268 27.8318 33.9721 27.8024 33.9209 27.7678C33.9011 27.7544 33.8824 27.7395 33.8633 27.7248C33.8476 27.7129 33.8315 27.7014 33.8164 27.6887C33.8073 27.681 33.799 27.6723 33.79 27.6643C33.767 27.6437 33.7441 27.623 33.7227 27.6008C33.7214 27.5995 33.72 27.5982 33.7188 27.5969C33.714 27.5919 33.7098 27.5863 33.7051 27.5813C33.6828 27.5573 33.661 27.5328 33.6406 27.5071C33.631 27.495 33.6224 27.4823 33.6133 27.47C33.5986 27.45 33.5838 27.4302 33.5703 27.4094C33.5618 27.3962 33.5539 27.3828 33.5459 27.3694C33.5342 27.3497 33.5223 27.3301 33.5117 27.3098C33.4995 27.2865 33.4891 27.2624 33.4785 27.2385C33.4736 27.2275 33.4685 27.2165 33.4639 27.2053C33.4532 27.1792 33.4434 27.1528 33.4346 27.1262C33.4307 27.1145 33.4264 27.1029 33.4229 27.0911C33.4154 27.0662 33.4092 27.0411 33.4033 27.0159C33.3992 26.9981 33.395 26.9802 33.3916 26.9621C33.3906 26.9566 33.3896 26.9511 33.3887 26.9455L33.377 26.8596C33.3764 26.8541 33.3765 26.8485 33.376 26.843C33.3738 26.8189 33.3728 26.7949 33.3721 26.7707C33.3717 26.7578 33.3701 26.7447 33.3701 26.7317C33.3702 26.4032 33.4992 26.0757 33.7549 25.8303ZM18.002 20.2327C18.0163 20.2334 18.0306 20.2343 18.0449 20.2356C18.0688 20.2377 18.0925 20.2409 18.1162 20.2444C18.1368 20.2474 18.1573 20.2511 18.1777 20.2551C18.1931 20.2581 18.2084 20.2613 18.2236 20.2649C18.2512 20.2714 18.2785 20.2789 18.3057 20.2873C18.3165 20.2907 18.3272 20.2944 18.3379 20.2981C18.3604 20.3058 18.3831 20.3135 18.4053 20.3225C18.4274 20.3315 18.4491 20.3415 18.4707 20.3518C18.4821 20.3572 18.4936 20.3626 18.5049 20.3684C18.5283 20.3804 18.5515 20.393 18.5742 20.4065C18.5911 20.4166 18.6075 20.4277 18.624 20.4387C18.6419 20.4505 18.6594 20.463 18.6768 20.4758C18.6857 20.4824 18.6953 20.4885 18.7041 20.4953L18.7031 20.4963C18.7821 20.558 18.8564 20.6286 18.9209 20.7112C19.0994 20.9399 19.1838 21.2115 19.1836 21.4807C19.1836 21.4833 19.1836 21.4859 19.1836 21.4885C19.1834 21.515 19.1815 21.5412 19.1797 21.5676C19.1784 21.5856 19.1778 21.6035 19.1758 21.6213C19.1732 21.6443 19.1689 21.6669 19.165 21.6897C19.1622 21.7067 19.1598 21.7237 19.1562 21.7405C19.1516 21.7622 19.1454 21.7834 19.1396 21.8049C19.1348 21.8228 19.1316 21.8411 19.126 21.8586C19.1193 21.8798 19.1104 21.9003 19.1025 21.9211C19.096 21.9384 19.0903 21.956 19.083 21.9729C19.074 21.994 19.064 22.0147 19.0537 22.0354C19.046 22.0508 19.0385 22.0662 19.0303 22.0813C19.0206 22.0989 19.0096 22.1158 18.999 22.133C18.9881 22.1508 18.9776 22.1686 18.9658 22.1858C18.9535 22.2038 18.9401 22.2211 18.9268 22.2385C18.9162 22.2523 18.9057 22.2662 18.8945 22.2795C18.8826 22.2938 18.8701 22.3077 18.8574 22.3215C18.8402 22.3404 18.8231 22.3594 18.8047 22.3772C18.7984 22.3833 18.7916 22.3888 18.7852 22.3948C18.7615 22.4168 18.7372 22.4381 18.7119 22.4582C18.7091 22.4605 18.7069 22.4638 18.7041 22.4661L18.7031 22.4651C18.4911 22.6308 18.2245 22.7307 17.9346 22.7307C17.6445 22.7306 17.3781 22.6309 17.166 22.4651C17.163 22.4627 17.1602 22.4606 17.1572 22.4582C17.1319 22.4381 17.1076 22.4168 17.084 22.3948C17.0776 22.3888 17.0707 22.3833 17.0645 22.3772C17.0461 22.3594 17.0289 22.3404 17.0117 22.3215C16.9991 22.3077 16.9865 22.2938 16.9746 22.2795C16.9635 22.2662 16.953 22.2523 16.9424 22.2385C16.929 22.2211 16.9156 22.2038 16.9033 22.1858C16.8916 22.1686 16.881 22.1508 16.8701 22.133C16.8596 22.1158 16.8485 22.0989 16.8389 22.0813C16.8306 22.0662 16.8231 22.0508 16.8154 22.0354C16.8052 22.0147 16.7952 21.994 16.7861 21.9729C16.7789 21.956 16.7731 21.9384 16.7666 21.9211C16.7588 21.9003 16.7499 21.8798 16.7432 21.8586C16.7231 21.7953 16.709 21.7296 16.6992 21.6623C16.6973 21.6493 16.6949 21.6364 16.6934 21.6233C16.6907 21.6 16.6888 21.5766 16.6875 21.553C16.6865 21.5361 16.6859 21.5191 16.6855 21.5022C16.6854 21.495 16.6846 21.4879 16.6846 21.4807H16.6865C16.6863 21.2115 16.7707 20.9399 16.9492 20.7112C17.0135 20.6288 17.0873 20.5579 17.166 20.4963C17.1746 20.4896 17.1836 20.4823 17.1924 20.4758C17.2097 20.463 17.2272 20.4506 17.2451 20.4387C17.2617 20.4277 17.278 20.4166 17.2949 20.4065C17.3176 20.3929 17.3408 20.3804 17.3643 20.3684C17.3694 20.3657 17.3747 20.3632 17.3799 20.3606L17.4355 20.3342C17.4449 20.3301 17.4544 20.3263 17.4639 20.3225C17.4861 20.3134 17.5087 20.3058 17.5312 20.2981C17.5368 20.2962 17.5423 20.294 17.5479 20.2922L17.6104 20.2727C17.622 20.2696 17.6338 20.2677 17.6455 20.2649C17.6607 20.2613 17.6761 20.2582 17.6914 20.2551C17.7119 20.2511 17.7323 20.2474 17.7529 20.2444C17.7766 20.2409 17.8004 20.2377 17.8242 20.2356C17.8385 20.2343 17.8529 20.2334 17.8672 20.2327C17.8786 20.232 17.89 20.231 17.9014 20.2307H17.9688C17.9798 20.231 17.9909 20.2321 18.002 20.2327ZM11.7354 16.6418C12.1601 16.0976 12.946 16.0013 13.4902 16.426C14.0342 16.8508 14.1307 17.6358 13.7061 18.1799C13.2814 18.7239 12.4963 18.8211 11.9521 18.3967C11.408 17.972 11.3107 17.186 11.7354 16.6418ZM22.3799 16.425C22.9241 16.0004 23.71 16.0977 24.1348 16.6418C24.5594 17.186 24.4621 17.972 23.918 18.3967C23.3738 18.8211 22.5888 18.7239 22.1641 18.1799C21.7393 17.6357 21.8357 16.8498 22.3799 16.425ZM7.50684 12.0911C7.79692 12.0911 8.06329 12.1909 8.27539 12.3567L8.27637 12.3557C8.28074 12.3591 8.28475 12.363 8.28906 12.3664C8.30562 12.3797 8.32106 12.3943 8.33691 12.4084C8.35251 12.4223 8.36806 12.436 8.38281 12.4504C8.39399 12.4614 8.40428 12.4732 8.41504 12.4846C8.43254 12.5031 8.45061 12.5209 8.4668 12.5403C8.48019 12.5563 8.49229 12.5734 8.50488 12.5901C8.51602 12.6048 8.5267 12.6198 8.53711 12.635C8.54764 12.6503 8.55753 12.6661 8.56738 12.6819C8.57953 12.7014 8.59252 12.7204 8.60352 12.7405C8.60869 12.7499 8.61225 12.7602 8.61719 12.7698C8.63161 12.7978 8.646 12.8258 8.6582 12.8547C8.68328 12.914 8.70298 12.9758 8.71875 13.0393C8.72207 13.0526 8.72564 13.0659 8.72852 13.0793C8.73291 13.1 8.73589 13.1209 8.73926 13.1418C8.7423 13.1607 8.74489 13.1795 8.74707 13.1985C8.74884 13.214 8.74978 13.2296 8.75098 13.2453C8.75317 13.2737 8.75559 13.3019 8.75586 13.3303C8.75589 13.3339 8.75684 13.3375 8.75684 13.3411C8.75707 13.6103 8.6707 13.8819 8.49219 14.1106C8.06743 14.6546 7.28243 14.751 6.73828 14.3264C6.43479 14.0895 6.25684 13.726 6.25684 13.3411C6.25691 12.6508 6.81655 12.0911 7.50684 12.0911ZM28.3633 12.0911C29.0536 12.0911 29.6132 12.6508 29.6133 13.3411C29.6133 13.726 29.4353 14.0895 29.1318 14.3264C28.5877 14.751 27.8027 14.6546 27.3779 14.1106C27.1994 13.8819 27.114 13.6103 27.1143 13.3411L27.1133 13.3078C27.115 13.2439 27.1224 13.1803 27.1338 13.1174C27.136 13.105 27.138 13.0926 27.1406 13.0803C27.1436 13.0666 27.147 13.0529 27.1504 13.0393C27.1662 12.9757 27.1868 12.9141 27.2119 12.8547C27.2241 12.8259 27.2376 12.7977 27.252 12.7698C27.2569 12.7602 27.2605 12.7499 27.2656 12.7405C27.2766 12.7204 27.2896 12.7014 27.3018 12.6819C27.3116 12.6661 27.3215 12.6503 27.332 12.635C27.3424 12.6198 27.3531 12.6048 27.3643 12.5901C27.3768 12.5734 27.389 12.5563 27.4023 12.5403C27.4185 12.5209 27.4366 12.5031 27.4541 12.4846C27.4626 12.4756 27.4707 12.4661 27.4795 12.4573L27.4971 12.4397C27.5084 12.4289 27.5205 12.4189 27.5322 12.4084C27.5481 12.3943 27.5635 12.3798 27.5801 12.3664C27.5846 12.3628 27.5892 12.3593 27.5938 12.3557C27.8059 12.1896 28.0729 12.0911 28.3633 12.0911ZM6.25684 2.5764C6.25684 1.88607 6.81651 1.32644 7.50684 1.3264C8.19719 1.3264 8.75684 1.88605 8.75684 2.5764C8.75684 3.26676 8.19719 3.8264 7.50684 3.8264C6.81651 3.82637 6.25684 3.26674 6.25684 2.5764ZM27.1133 2.5764C27.1133 1.88605 27.6729 1.3264 28.3633 1.3264C29.0536 1.32645 29.6133 1.88608 29.6133 2.5764C29.6133 3.26673 29.0536 3.82636 28.3633 3.8264C27.6729 3.8264 27.1133 3.26676 27.1133 2.5764Z" fill="#1D1611"/>
<path d="M18.4375 13.095L18.5654 13.1008C18.5855 13.1029 18.6052 13.1066 18.625 13.1096C18.6458 13.1127 18.6668 13.1152 18.6875 13.1194C18.6925 13.1204 18.6972 13.1222 18.7021 13.1233C18.7359 13.1306 18.7696 13.1386 18.8027 13.1487C18.8192 13.1537 18.8354 13.1596 18.8516 13.1653C18.8731 13.1728 18.8948 13.18 18.916 13.1887C18.9327 13.1956 18.9485 13.2045 18.9648 13.2121C18.9864 13.2222 19.0082 13.232 19.0293 13.2434C19.046 13.2524 19.0618 13.263 19.0781 13.2727C19.0946 13.2826 19.1118 13.2913 19.1279 13.302C19.4654 13.5258 19.6875 13.9096 19.6875 14.345C19.6874 14.8504 19.383 15.3058 18.916 15.4993C18.4489 15.6927 17.9112 15.5862 17.5537 15.2287C17.2483 14.9233 17.1342 14.499 17.2109 14.1047C17.2157 14.0803 17.2224 14.0564 17.2285 14.0325C17.2331 14.0146 17.2368 13.9964 17.2422 13.9787C17.2472 13.9623 17.2531 13.9461 17.2588 13.9299C17.2663 13.9084 17.2735 13.8866 17.2822 13.8655C17.2892 13.8488 17.298 13.833 17.3057 13.8166C17.3656 13.6881 17.4477 13.5673 17.5537 13.4612C17.593 13.4219 17.6348 13.3857 17.6777 13.3528C17.7318 13.3113 17.7891 13.2738 17.8496 13.2414C17.866 13.2327 17.8828 13.225 17.8994 13.217C17.9192 13.2076 17.9386 13.1971 17.959 13.1887C17.9802 13.18 18.0019 13.1728 18.0234 13.1653C18.0396 13.1596 18.0558 13.1537 18.0723 13.1487C18.0997 13.1403 18.1275 13.1336 18.1553 13.1272C18.1666 13.1246 18.178 13.1217 18.1895 13.1194C18.2066 13.1159 18.2239 13.1133 18.2412 13.1106C18.3052 13.1005 18.3707 13.095 18.4375 13.095ZM11.0068 6.91332C11.4949 6.42535 12.2863 6.42538 12.7744 6.91332C13.1101 7.24901 13.2149 7.72827 13.0889 8.15355C13.066 8.23082 13.0362 8.30661 12.998 8.37914C12.9409 8.48788 12.8658 8.58945 12.7744 8.6809C12.2863 9.16905 11.495 9.16905 11.0068 8.6809C10.5189 8.19273 10.5187 7.40142 11.0068 6.91332ZM17.1875 7.79711C17.1877 7.10701 17.7474 6.54729 18.4375 6.54711C19.1278 6.54711 19.6873 7.10689 19.6875 7.79711C19.6875 8.48746 19.1279 9.04711 18.4375 9.04711C17.7473 9.04692 17.1875 8.48735 17.1875 7.79711ZM17.5537 0.366444C17.9111 0.00902501 18.449 -0.0983421 18.916 0.0949595C19.3831 0.288436 19.6875 0.744655 19.6875 1.25023C19.6875 1.64178 19.5074 1.99076 19.2256 2.21996C19.1707 2.26463 19.1127 2.30318 19.0527 2.33715C19.0451 2.34147 19.038 2.34666 19.0303 2.35082C19.007 2.36338 18.9829 2.37403 18.959 2.385C18.9448 2.39152 18.9305 2.39755 18.916 2.40355C18.8947 2.41238 18.8732 2.42037 18.8516 2.42797C18.8354 2.43366 18.8192 2.43953 18.8027 2.44457C18.773 2.45362 18.7431 2.46122 18.7129 2.46801C18.704 2.47 18.6954 2.47304 18.6865 2.47484C18.65 2.48223 18.6131 2.48735 18.5762 2.49144C18.5719 2.49191 18.5677 2.49297 18.5635 2.4934C18.4797 2.50182 18.3953 2.50186 18.3115 2.4934C18.3027 2.49251 18.294 2.49056 18.2852 2.48949C18.2531 2.48557 18.2212 2.48124 18.1895 2.47484C18.1746 2.47185 18.1601 2.46761 18.1455 2.4641C18.1209 2.45821 18.0965 2.45197 18.0723 2.44457C18.0558 2.43952 18.0396 2.43367 18.0234 2.42797C18.0018 2.42036 17.9803 2.41239 17.959 2.40355C17.9416 2.39631 17.9242 2.38909 17.9072 2.38109C17.8876 2.3719 17.8678 2.36304 17.8486 2.35277C17.8323 2.34401 17.8167 2.33391 17.8008 2.32445C17.713 2.27229 17.6292 2.20955 17.5537 2.13402C17.5053 2.0856 17.4626 2.03352 17.4238 1.97973C17.415 1.96742 17.4059 1.95526 17.3975 1.94262C17.3866 1.92639 17.3772 1.90942 17.3672 1.89281C17.3563 1.87469 17.345 1.85683 17.335 1.83812C17.3237 1.81697 17.3137 1.7953 17.3037 1.77367C17.2972 1.75967 17.2901 1.74595 17.2842 1.73168C17.2752 1.71013 17.2675 1.68817 17.2598 1.66625C17.2534 1.64813 17.2468 1.63005 17.2412 1.61156C17.2371 1.59801 17.2341 1.5842 17.2305 1.57055C17.2138 1.50746 17.2 1.44279 17.1934 1.37621C17.1571 1.01583 17.2777 0.642561 17.5537 0.366444Z" fill="#1D1611"/>
<path d="M18.4395 13.095L18.3115 13.1008C18.2915 13.1029 18.2717 13.1066 18.252 13.1096C18.2311 13.1127 18.2101 13.1152 18.1895 13.1194C18.1845 13.1204 18.1797 13.1222 18.1748 13.1233C18.1411 13.1306 18.1074 13.1386 18.0742 13.1487C18.0577 13.1537 18.0416 13.1596 18.0254 13.1653C18.0039 13.1728 17.9821 13.18 17.9609 13.1887C17.9442 13.1956 17.9284 13.2045 17.9121 13.2121C17.8905 13.2222 17.8688 13.232 17.8477 13.2434C17.8309 13.2524 17.8151 13.263 17.7988 13.2727C17.7823 13.2826 17.7651 13.2913 17.749 13.302C17.4115 13.5258 17.1895 13.9096 17.1895 14.345C17.1896 14.8504 17.4939 15.3058 17.9609 15.4993C18.428 15.6927 18.9658 15.5862 19.3232 15.2287C19.6286 14.9233 19.7427 14.499 19.666 14.1047C19.6613 14.0803 19.6546 14.0564 19.6484 14.0325C19.6438 14.0146 19.6402 13.9964 19.6348 13.9787C19.6297 13.9623 19.6239 13.9461 19.6182 13.9299C19.6106 13.9084 19.6035 13.8866 19.5947 13.8655C19.5878 13.8488 19.5789 13.833 19.5713 13.8166C19.5114 13.6881 19.4293 13.5673 19.3232 13.4612C19.2839 13.4219 19.2421 13.3857 19.1992 13.3528C19.1452 13.3113 19.0879 13.2738 19.0273 13.2414C19.011 13.2327 18.9942 13.225 18.9775 13.217C18.9577 13.2076 18.9383 13.1971 18.918 13.1887C18.8968 13.18 18.875 13.1728 18.8535 13.1653C18.8373 13.1596 18.8212 13.1537 18.8047 13.1487C18.7773 13.1403 18.7495 13.1336 18.7217 13.1272C18.7103 13.1246 18.699 13.1217 18.6875 13.1194C18.6703 13.1159 18.653 13.1133 18.6357 13.1106C18.5718 13.1005 18.5063 13.095 18.4395 13.095ZM25.8701 6.91332C25.382 6.42535 24.5907 6.42538 24.1025 6.91332C23.7669 7.24901 23.6621 7.72827 23.7881 8.15355C23.811 8.23082 23.8408 8.30661 23.8789 8.37914C23.9361 8.48788 24.0111 8.58945 24.1025 8.6809C24.5907 9.16905 25.382 9.16905 25.8701 8.6809C26.3581 8.19273 26.3582 7.40142 25.8701 6.91332ZM19.6895 7.79711C19.6893 7.10701 19.1295 6.54729 18.4395 6.54711C17.7492 6.54711 17.1896 7.10689 17.1895 7.79711C17.1895 8.48746 17.7491 9.04711 18.4395 9.04711C19.1296 9.04692 19.6895 8.48735 19.6895 7.79711ZM19.3232 0.366444C18.9658 0.00902501 18.428 -0.0983421 17.9609 0.0949595C17.4938 0.288436 17.1895 0.744655 17.1895 1.25023C17.1895 1.64178 17.3696 1.99076 17.6514 2.21996C17.7062 2.26463 17.7643 2.30318 17.8242 2.33715C17.8318 2.34147 17.839 2.34666 17.8467 2.35082C17.87 2.36338 17.8941 2.37403 17.918 2.385C17.9321 2.39152 17.9465 2.39755 17.9609 2.40355C17.9822 2.41238 18.0037 2.42037 18.0254 2.42797C18.0416 2.43366 18.0577 2.43953 18.0742 2.44457C18.1039 2.45362 18.1339 2.46122 18.1641 2.46801C18.1729 2.47 18.1805 2.47304 18.1895 2.47484C18.226 2.48223 18.2638 2.48735 18.3008 2.49144C18.305 2.49191 18.3092 2.49297 18.3135 2.4934C18.3973 2.50182 18.4816 2.50186 18.5654 2.4934C18.5743 2.49251 18.583 2.49056 18.5918 2.48949C18.6238 2.48557 18.6548 2.48124 18.6865 2.47484C18.7014 2.47185 18.7168 2.46761 18.7314 2.4641C18.756 2.45821 18.7804 2.45197 18.8047 2.44457C18.8212 2.43952 18.8373 2.43367 18.8535 2.42797C18.8752 2.42036 18.8967 2.41239 18.918 2.40355C18.9354 2.39631 18.9527 2.38909 18.9697 2.38109C18.9893 2.3719 19.0091 2.36304 19.0283 2.35277C19.0447 2.34401 19.0603 2.33391 19.0762 2.32445C19.164 2.27229 19.2477 2.20955 19.3232 2.13402C19.3716 2.0856 19.4143 2.03352 19.4531 1.97973C19.462 1.96742 19.4711 1.95526 19.4795 1.94262C19.4903 1.92639 19.4998 1.90942 19.5098 1.89281C19.5207 1.87469 19.532 1.85683 19.542 1.83812C19.5533 1.81697 19.5633 1.7953 19.5732 1.77367C19.5797 1.75967 19.5868 1.74595 19.5928 1.73168C19.6018 1.71013 19.6095 1.68817 19.6172 1.66625C19.6236 1.64813 19.6302 1.63005 19.6357 1.61156C19.6398 1.59801 19.6429 1.5842 19.6465 1.57055C19.6632 1.50746 19.6769 1.44279 19.6836 1.37621C19.7198 1.01583 19.5993 0.642561 19.3232 0.366444Z" fill="#1D1611"/>
</svg>
