<svg width="55" height="55" viewBox="0 0 55 55" fill="none" xmlns="http://www.w3.org/2000/svg">
<path d="M13.3662 52.3662C13.6424 52.0901 14.0155 51.9696 14.376 52.0059C14.3809 52.0064 14.3857 52.0082 14.3906 52.0088C14.4262 52.0128 14.4618 52.0173 14.4971 52.0244C14.5149 52.028 14.5323 52.0328 14.5498 52.0371C14.5704 52.0422 14.5909 52.0476 14.6113 52.0537C14.6298 52.0593 14.6479 52.0659 14.666 52.0723C14.6882 52.0801 14.7106 52.0876 14.7324 52.0967C14.7428 52.101 14.7525 52.1067 14.7627 52.1113C14.7879 52.1227 14.8134 52.1334 14.8379 52.1465C14.8591 52.1578 14.879 52.1711 14.8994 52.1836C14.9136 52.1922 14.9285 52.1997 14.9424 52.209C14.9629 52.2227 14.9823 52.2381 15.002 52.2529C15.0151 52.2629 15.0292 52.2717 15.042 52.2822C15.3218 52.5115 15.5 52.8601 15.5 53.25C15.5 53.9404 14.9404 54.5 14.25 54.5C13.9185 54.5 13.6006 54.3682 13.3662 54.1338C12.8781 53.6456 12.8781 52.8544 13.3662 52.3662ZM20.8779 52.0068C21.5082 52.0709 22 52.6028 22 53.25C22 53.8972 21.5082 54.4291 20.8779 54.4932L20.75 54.5C20.0596 54.5 19.5 53.9404 19.5 53.25C19.5 52.5596 20.0596 52 20.75 52L20.8779 52.0068ZM27.25 52C27.9404 52 28.5 52.5596 28.5 53.25C28.5 53.8972 28.0082 54.4291 27.3779 54.4932L27.25 54.5C26.5596 54.5 26 53.9404 26 53.25C26 52.6028 26.4918 52.0709 27.1221 52.0068L27.25 52ZM33.8779 52.0068C34.5082 52.0709 35 52.6028 35 53.25C35 53.8972 34.5082 54.4291 33.8779 54.4932L33.75 54.5C33.0596 54.5 32.5 53.9404 32.5 53.25C32.5 52.5596 33.0596 52 33.75 52L33.8779 52.0068ZM40.123 52.0059C40.4838 51.9692 40.8574 52.0898 41.1338 52.3662C41.6219 52.8544 41.6219 53.6456 41.1338 54.1338C40.8994 54.3682 40.5815 54.5 40.25 54.5C39.5596 54.5 39 53.9404 39 53.25C39 52.8603 39.1776 52.5115 39.457 52.2822C39.4698 52.2717 39.4839 52.2629 39.4971 52.2529C39.5167 52.2381 39.5361 52.2227 39.5566 52.209C39.5705 52.1997 39.5855 52.1922 39.5996 52.1836C39.62 52.1711 39.64 52.1578 39.6611 52.1465C39.6856 52.1334 39.7112 52.1227 39.7363 52.1113C39.7465 52.1067 39.7563 52.101 39.7666 52.0967C39.7884 52.0875 39.8108 52.0801 39.833 52.0723C39.8511 52.0659 39.8692 52.0593 39.8877 52.0537C39.9081 52.0476 39.9286 52.0422 39.9492 52.0371C39.9667 52.0328 39.9842 52.028 40.002 52.0244C40.0372 52.0173 40.0728 52.0128 40.1084 52.0088C40.1133 52.0082 40.1181 52.0064 40.123 52.0059ZM6.86621 45.8662C7.32389 45.4085 8.04809 45.3798 8.53906 45.7803L8.63379 45.8662L8.71973 45.9609C9.12025 46.4519 9.09146 47.1761 8.63379 47.6338C8.14563 48.1219 7.35437 48.1219 6.86621 47.6338C6.37806 47.1456 6.37806 46.3544 6.86621 45.8662ZM45.8662 45.8662C46.3544 45.3781 47.1456 45.3781 47.6338 45.8662C48.1219 46.3544 48.1219 47.1456 47.6338 47.6338C47.1456 48.1219 46.3544 48.1219 45.8662 47.6338C45.3781 47.1456 45.3781 46.3544 45.8662 45.8662ZM1.25 39C1.59519 39 1.90758 39.14 2.13379 39.3662L2.21973 39.4609C2.22918 39.4725 2.23712 39.4852 2.24609 39.4971C2.25957 39.5149 2.27361 39.5323 2.28613 39.5508L2.29395 39.5625C2.30184 39.5745 2.30799 39.5874 2.31543 39.5996C2.32792 39.62 2.34121 39.64 2.35254 39.6611C2.38224 39.7167 2.40605 39.7744 2.42676 39.833C2.43318 39.8511 2.43971 39.8692 2.44531 39.8877C2.45147 39.9081 2.45682 39.9286 2.46191 39.9492C2.46625 39.9667 2.47102 39.9842 2.47461 40.002C2.55458 40.3986 2.44133 40.8262 2.13379 41.1338C1.64563 41.6219 0.854366 41.6219 0.366211 41.1338C0.131791 40.8994 0 40.5815 0 40.25L0.00683594 40.1221C0.070904 39.4918 0.602833 39 1.25 39ZM53.25 39C53.9404 39 54.5 39.5596 54.5 40.25C54.5 40.5815 54.3682 40.8994 54.1338 41.1338C53.6456 41.6219 52.8544 41.6219 52.3662 41.1338C52.0587 40.8263 51.9445 40.3985 52.0244 40.002C52.028 39.9842 52.0328 39.9667 52.0371 39.9492C52.0422 39.9286 52.0476 39.9081 52.0537 39.8877C52.0593 39.8692 52.0659 39.8511 52.0723 39.833C52.0929 39.7745 52.1168 39.7167 52.1465 39.6611C52.1578 39.64 52.1711 39.62 52.1836 39.5996C52.1922 39.5855 52.1997 39.5705 52.209 39.5566C52.2227 39.5361 52.2381 39.5167 52.2529 39.4971C52.2873 39.4516 52.3248 39.4076 52.3662 39.3662C52.5924 39.14 52.9048 39 53.25 39ZM0 33.75C0 33.0596 0.559644 32.5 1.25 32.5C1.94036 32.5 2.5 33.0596 2.5 33.75L2.49316 33.8779C2.4291 34.5082 1.89717 35 1.25 35C0.602832 35 0.0709038 34.5082 0.00683594 33.8779L0 33.75ZM52 33.75C52 33.0596 52.5596 32.5 53.25 32.5C53.9404 32.5 54.5 33.0596 54.5 33.75L54.4932 33.8779C54.4291 34.5082 53.8972 35 53.25 35C52.6028 35 52.0709 34.5082 52.0068 33.8779L52 33.75ZM0 27.25C0 26.5596 0.559644 26 1.25 26C1.94036 26 2.5 26.5596 2.5 27.25L2.49316 27.3779C2.4291 28.0082 1.89717 28.5 1.25 28.5C0.602832 28.5 0.0709039 28.0082 0.00683594 27.3779L0 27.25ZM52 27.25C52 26.5596 52.5596 26 53.25 26C53.9404 26 54.5 26.5596 54.5 27.25L54.4932 27.3779C54.4291 28.0082 53.8972 28.5 53.25 28.5C52.6028 28.5 52.0709 28.0082 52.0068 27.3779L52 27.25ZM0 20.75C0 20.0596 0.559644 19.5 1.25 19.5C1.94036 19.5 2.5 20.0596 2.5 20.75L2.49316 20.8779C2.4291 21.5082 1.89717 22 1.25 22C0.602833 22 0.0709046 21.5082 0.00683594 20.8779L0 20.75ZM52 20.75C52 20.0596 52.5596 19.5 53.25 19.5C53.9404 19.5 54.5 20.0596 54.5 20.75L54.4932 20.8779C54.4291 21.5082 53.8972 22 53.25 22C52.6028 22 52.0709 21.5082 52.0068 20.8779L52 20.75ZM0.366211 13.3662C0.854366 12.8781 1.64563 12.8781 2.13379 13.3662C2.44109 13.6735 2.55421 14.1007 2.47461 14.4971C2.47104 14.5149 2.46623 14.5323 2.46191 14.5498C2.45683 14.5704 2.45146 14.5909 2.44531 14.6113C2.43973 14.6298 2.43317 14.6479 2.42676 14.666C2.40609 14.7246 2.38221 14.7823 2.35254 14.8379C2.34122 14.8591 2.32791 14.879 2.31543 14.8994C2.30678 14.9136 2.29931 14.9285 2.29004 14.9424C2.27632 14.963 2.26098 14.9823 2.24609 15.002C2.23614 15.0151 2.22734 15.0292 2.2168 15.042C1.98755 15.3215 1.63971 15.5 1.25 15.5C0.559644 15.5 0 14.9404 0 14.25C0 13.9185 0.131791 13.6006 0.366211 13.3662ZM52.3662 13.3662C52.8544 12.8781 53.6456 12.8781 54.1338 13.3662C54.3682 13.6006 54.5 13.9185 54.5 14.25C54.5 14.9404 53.9404 15.5 53.25 15.5C52.8601 15.5 52.5115 15.3218 52.2822 15.042C52.2717 15.0292 52.2629 15.0151 52.2529 15.002C52.2381 14.9823 52.2227 14.9629 52.209 14.9424C52.1997 14.9285 52.1922 14.9136 52.1836 14.8994C52.1711 14.879 52.1578 14.8591 52.1465 14.8379C52.1169 14.7823 52.0929 14.7246 52.0723 14.666C52.0659 14.6479 52.0593 14.6298 52.0537 14.6113C52.0476 14.5909 52.0422 14.5704 52.0371 14.5498C52.0328 14.5323 52.028 14.5149 52.0244 14.4971C51.9449 14.1008 52.059 13.6735 52.3662 13.3662ZM6.86621 6.86621C7.35437 6.37806 8.14563 6.37806 8.63379 6.86621C9.12194 7.35437 9.12194 8.14563 8.63379 8.63379C8.14563 9.12194 7.35437 9.12194 6.86621 8.63379C6.37806 8.14563 6.37806 7.35437 6.86621 6.86621ZM45.8662 6.86621C46.3239 6.40854 47.0481 6.37975 47.5391 6.78027L47.6338 6.86621L47.7197 6.96094C48.1202 7.45191 48.0915 8.17611 47.6338 8.63379C47.1456 9.12194 46.3544 9.12194 45.8662 8.63379C45.3781 8.14563 45.3781 7.35437 45.8662 6.86621ZM14.25 0C14.9404 0 15.5 0.559644 15.5 1.25C15.5 1.59519 15.36 1.90758 15.1338 2.13379C15.0923 2.17526 15.0474 2.21167 15.002 2.24609C14.9823 2.26098 14.963 2.27632 14.9424 2.29004C14.9285 2.29931 14.9136 2.30678 14.8994 2.31543C14.879 2.32791 14.8591 2.34122 14.8379 2.35254C14.8134 2.36563 14.7879 2.37635 14.7627 2.3877C14.7525 2.3923 14.7428 2.398 14.7324 2.40234C14.7106 2.41148 14.6882 2.41892 14.666 2.42676C14.6479 2.43317 14.6298 2.43973 14.6113 2.44531C14.5909 2.45146 14.5704 2.45683 14.5498 2.46191C14.5323 2.46623 14.5149 2.47104 14.4971 2.47461C14.4618 2.48169 14.4263 2.48621 14.3906 2.49023C14.3857 2.49079 14.3809 2.49267 14.376 2.49316C14.0155 2.52949 13.6424 2.40997 13.3662 2.13379C12.8781 1.64563 12.8781 0.854366 13.3662 0.366211L13.458 0.283203C13.6804 0.100985 13.9599 0 14.25 0ZM20.8779 0.00683594C21.5082 0.0709039 22 0.602832 22 1.25C22 1.89717 21.5082 2.4291 20.8779 2.49316L20.75 2.5C20.0596 2.5 19.5 1.94036 19.5 1.25C19.5 0.559644 20.0596 0 20.75 0L20.8779 0.00683594ZM27.25 0C27.9404 0 28.5 0.559644 28.5 1.25C28.5 1.89717 28.0082 2.4291 27.3779 2.49316L27.25 2.5C26.5596 2.5 26 1.94036 26 1.25C26 0.602833 26.4918 0.0709048 27.1221 0.00683594L27.25 0ZM33.8779 0.00683594C34.5082 0.0709038 35 0.602832 35 1.25C35 1.89717 34.5082 2.4291 33.8779 2.49316L33.75 2.5C33.0596 2.5 32.5 1.94036 32.5 1.25C32.5 0.559644 33.0596 0 33.75 0L33.8779 0.00683594ZM40.25 0C40.5815 0 40.8994 0.131791 41.1338 0.366211C41.6219 0.854366 41.6219 1.64563 41.1338 2.13379C40.8574 2.41022 40.4838 2.52981 40.123 2.49316C40.1181 2.49267 40.1133 2.49079 40.1084 2.49023C40.0728 2.48619 40.0372 2.48172 40.002 2.47461C39.9842 2.47102 39.9667 2.46625 39.9492 2.46191C39.9286 2.45682 39.9081 2.45147 39.8877 2.44531C39.8692 2.43971 39.8511 2.43318 39.833 2.42676C39.8108 2.4189 39.7884 2.41149 39.7666 2.40234C39.7563 2.398 39.7465 2.39231 39.7363 2.3877C39.7112 2.37634 39.6856 2.36565 39.6611 2.35254C39.64 2.34121 39.62 2.32792 39.5996 2.31543C39.5874 2.30799 39.5745 2.30184 39.5625 2.29395L39.5508 2.28613C39.5323 2.27361 39.5149 2.25957 39.4971 2.24609C39.4852 2.23712 39.4725 2.22918 39.4609 2.21973L39.3662 2.13379C39.14 1.90758 39 1.59519 39 1.25C39 0.559644 39.5596 0 40.25 0Z" fill="#1D1611"/>
<path d="M20.7949 37.5088C21.071 37.2328 21.4444 37.1122 21.8047 37.1484C21.8112 37.1491 21.8177 37.1506 21.8242 37.1514C21.8592 37.1554 21.8941 37.1609 21.9287 37.168C21.9337 37.169 21.9384 37.1708 21.9434 37.1719C21.9771 37.1792 22.0108 37.1872 22.0439 37.1973C22.0579 37.2015 22.0713 37.2072 22.085 37.2119C22.1101 37.2206 22.1355 37.229 22.1602 37.2393C22.1744 37.2452 22.1882 37.2523 22.2021 37.2588C22.2238 37.2688 22.2455 37.2788 22.2666 37.29C22.2853 37.3 22.3032 37.3114 22.3213 37.3223C22.3379 37.3322 22.3549 37.3417 22.3711 37.3525C22.3733 37.354 22.3758 37.355 22.3779 37.3564L22.4678 37.4238L22.4707 37.4258C22.7504 37.655 22.9287 38.0037 22.9287 38.3936C22.9285 39.0837 22.3689 39.6436 21.6787 39.6436C21.3473 39.6435 21.0293 39.5116 20.7949 39.2773C20.3068 38.7892 20.3068 37.9969 20.7949 37.5088ZM27.25 37.1436C27.9404 37.1436 28.5 37.7032 28.5 38.3936C28.4998 39.0837 27.9402 39.6436 27.25 39.6436C26.5599 39.6434 26.0002 39.0836 26 38.3936C26 37.7033 26.5598 37.1437 27.25 37.1436ZM32.6953 37.1484C33.0559 37.112 33.4298 37.2325 33.7061 37.5088C34.1942 37.9969 34.1942 38.7892 33.7061 39.2773C33.4716 39.5118 33.1528 39.6436 32.8213 39.6436C32.1313 39.6433 31.5715 39.0836 31.5713 38.3936C31.5713 37.9615 31.7908 37.58 32.124 37.3555C32.1453 37.3411 32.1675 37.3283 32.1895 37.3154C32.2038 37.307 32.2177 37.2979 32.2324 37.29C32.249 37.2812 32.2663 37.2737 32.2832 37.2656C32.303 37.2562 32.3224 37.2457 32.3428 37.2373C32.3639 37.2285 32.3857 37.2214 32.4072 37.2139C32.4234 37.2082 32.4396 37.2023 32.4561 37.1973C32.4835 37.1889 32.5113 37.1822 32.5391 37.1758C32.5504 37.1732 32.5618 37.1703 32.5732 37.168C32.6066 37.1612 32.6402 37.1563 32.6738 37.1523C32.681 37.1515 32.6881 37.1492 32.6953 37.1484ZM16.1074 31.5713C16.4988 31.5713 16.8479 31.7517 17.0771 32.0332C17.1164 32.0814 17.1506 32.1324 17.1816 32.1846C17.1911 32.2005 17.2012 32.2161 17.21 32.2324C17.2202 32.2516 17.2291 32.2714 17.2383 32.291C17.2463 32.308 17.2535 32.3254 17.2607 32.3428C17.2696 32.3641 17.2775 32.3856 17.2852 32.4072C17.2909 32.4234 17.2967 32.4396 17.3018 32.4561C17.3092 32.4803 17.3154 32.5047 17.3213 32.5293C17.3248 32.5439 17.329 32.5584 17.332 32.5732C17.4122 32.97 17.2989 33.3984 16.9912 33.7061C16.5031 34.1938 15.7117 34.1939 15.2236 33.7061C14.9892 33.4716 14.8574 33.1528 14.8574 32.8213C14.8576 32.1311 15.4172 31.5713 16.1074 31.5713ZM38.3936 31.5713C39.0836 31.5715 39.6433 32.1313 39.6436 32.8213C39.6436 33.1528 39.5118 33.4716 39.2773 33.7061C38.7892 34.1942 37.9969 34.1942 37.5088 33.7061C37.1706 33.3679 37.0669 32.8837 37.1973 32.4561C37.2023 32.4396 37.2082 32.4234 37.2139 32.4072C37.2214 32.3857 37.2285 32.3639 37.2373 32.3428C37.2457 32.3224 37.2562 32.303 37.2656 32.2832C37.2737 32.2663 37.2812 32.249 37.29 32.2324C37.2979 32.2177 37.307 32.2038 37.3154 32.1895C37.3472 32.1353 37.3832 32.083 37.4238 32.0332C37.653 31.7518 38.0023 31.5713 38.3936 31.5713ZM14.8574 27.25C14.8576 26.5598 15.4172 26 16.1074 26C16.7977 26 17.3573 26.5598 17.3574 27.25C17.3574 27.9404 16.7978 28.5 16.1074 28.5C15.4171 28.5 14.8574 27.9404 14.8574 27.25ZM37.1436 27.25C37.1437 26.5598 37.7033 26 38.3936 26C39.0836 26.0002 39.6434 26.5599 39.6436 27.25C39.6436 27.9402 39.0837 28.4998 38.3936 28.5C37.7032 28.5 37.1436 27.9404 37.1436 27.25ZM15.2236 20.7949C15.7118 20.3068 16.5031 20.3069 16.9912 20.7949C17.3294 21.1331 17.4321 21.6164 17.3018 22.0439C17.2975 22.0579 17.2918 22.0712 17.2871 22.085C17.2658 22.1469 17.2413 22.208 17.21 22.2666C17.1986 22.2878 17.1853 22.3077 17.1729 22.3281C17.1642 22.3423 17.1567 22.3572 17.1475 22.3711C17.1337 22.3917 17.1184 22.411 17.1035 22.4307C17.0936 22.4438 17.0848 22.4579 17.0742 22.4707C16.845 22.7503 16.4972 22.9287 16.1074 22.9287C15.4171 22.9287 14.8574 22.3691 14.8574 21.6787C14.8575 21.3472 14.9892 21.0293 15.2236 20.7949ZM37.5088 20.7949C37.9969 20.3068 38.7892 20.3068 39.2773 20.7949C39.5116 21.0293 39.6435 21.3473 39.6436 21.6787C39.6436 22.3689 39.0837 22.9285 38.3936 22.9287C37.9593 22.9287 37.5766 22.7072 37.3525 22.3711C37.3417 22.3549 37.3322 22.3379 37.3223 22.3213C37.3114 22.3032 37.3 22.2853 37.29 22.2666C37.2788 22.2455 37.2688 22.2238 37.2588 22.2021C37.2523 22.1882 37.2452 22.1744 37.2393 22.1602C37.229 22.1355 37.2206 22.1101 37.2119 22.085C37.2072 22.0713 37.2015 22.0579 37.1973 22.0439C37.0672 21.6166 37.1709 21.1329 37.5088 20.7949ZM21.6787 14.8574C22.3691 14.8574 22.9287 15.4171 22.9287 16.1074C22.9287 16.4526 22.7888 16.765 22.5625 16.9912C22.521 17.0327 22.4762 17.0691 22.4307 17.1035C22.411 17.1184 22.3917 17.1337 22.3711 17.1475C22.3572 17.1567 22.3423 17.1642 22.3281 17.1729C22.3077 17.1853 22.2878 17.1986 22.2666 17.21C22.2421 17.2231 22.2166 17.2338 22.1914 17.2451C22.1812 17.2497 22.1715 17.2554 22.1611 17.2598C22.1361 17.2702 22.1105 17.2784 22.085 17.2871C22.0712 17.2918 22.0579 17.2975 22.0439 17.3018C22.0142 17.3108 21.9843 17.3184 21.9541 17.3252C21.9453 17.3272 21.9366 17.3302 21.9277 17.332C21.8912 17.3394 21.8543 17.3445 21.8174 17.3486C21.8131 17.3491 21.809 17.3502 21.8047 17.3506C21.4442 17.3869 21.0711 17.2674 20.7949 16.9912C20.3069 16.5031 20.3068 15.7118 20.7949 15.2236C21.0293 14.9892 21.3472 14.8575 21.6787 14.8574ZM27.25 14.8574C27.9404 14.8574 28.5 15.4171 28.5 16.1074C28.5 16.7978 27.9404 17.3574 27.25 17.3574C26.5598 17.3573 26 16.7977 26 16.1074C26 15.4172 26.5598 14.8576 27.25 14.8574ZM32.8213 14.8574C33.1115 14.8574 33.3918 14.9582 33.6143 15.1406L33.7061 15.2236L33.791 15.3184C34.1916 15.8092 34.1635 16.5335 33.7061 16.9912C33.4298 17.2675 33.0559 17.387 32.6953 17.3506C32.6907 17.3501 32.6862 17.3491 32.6816 17.3486C32.6453 17.3446 32.6092 17.3393 32.5732 17.332C32.5584 17.329 32.5439 17.3248 32.5293 17.3213C32.5047 17.3154 32.4803 17.3092 32.4561 17.3018C32.4396 17.2967 32.4234 17.2909 32.4072 17.2852C32.3856 17.2775 32.3641 17.2696 32.3428 17.2607C32.3254 17.2535 32.308 17.2463 32.291 17.2383C32.2714 17.2291 32.2516 17.2202 32.2324 17.21C32.2161 17.2012 32.2005 17.1911 32.1846 17.1816C32.1326 17.1507 32.0822 17.1162 32.0342 17.0771C31.7523 16.848 31.5713 16.499 31.5713 16.1074C31.5713 15.4172 32.1311 14.8576 32.8213 14.8574Z" fill="#1D1611"/>
</svg>
