<svg width="161" height="33" viewBox="0 0 161 33" fill="none" xmlns="http://www.w3.org/2000/svg">
<path d="M37.0071 17.3417C37.0071 12.5243 40.0951 9.06573 44.8816 9.06573C48.896 9.06573 51.4591 12.092 51.4591 16.8476H40.2495V17.3417C40.2495 21.1708 42.3185 23.8265 45.3139 23.8265C47.3211 23.8265 49.4519 22.684 50.3783 20.5223L51.5208 21.3252C50.2547 23.8265 48.1549 25.4632 44.7889 25.4632C40.3113 25.4632 37.0071 22.159 37.0071 17.3417ZM40.4039 15.3653H48.649C48.5563 12.4935 47.0123 10.4554 44.6963 10.4554C42.3802 10.4554 40.8362 12.3699 40.4039 15.3653ZM59.6076 18.4842C61.6149 18.4842 62.9427 16.9093 62.9427 14.408C62.9427 11.9376 61.6149 10.3627 59.6076 10.3627C57.6004 10.3627 56.2725 11.9376 56.2725 14.408C56.2725 16.9093 57.6004 18.4842 59.6076 18.4842ZM52.1037 28.7983C52.1037 27.069 53.2154 25.7411 55.5005 24.7838C54.1109 24.3824 53.1536 23.6721 53.1536 22.2516C53.1536 20.862 54.4197 19.9974 56.3343 19.1019C54.4197 18.2372 53.2463 16.5388 53.2463 14.408C53.2463 11.2582 55.8711 9.06573 59.6076 9.06573C60.4414 9.06573 61.2134 9.15838 61.9237 9.37454L67.7909 9.18926V10.795L64.2397 10.5789C65.3205 11.5053 65.969 12.8331 65.969 14.408C65.969 17.5578 63.375 19.7812 59.6076 19.7812C58.8974 19.7812 58.218 19.6886 57.6004 19.5342C56.2108 20.1209 55.6858 20.615 55.6858 21.1708C55.6858 24.0118 67.3895 20.9547 67.3895 27.9645C67.3895 30.5893 65.0117 32.998 59.7003 32.998C54.358 32.998 52.1037 30.8981 52.1037 28.7983ZM54.605 28.2116C54.605 29.8482 55.6549 31.6393 59.6694 31.6393C63.1897 31.6393 64.8573 30.4041 64.8573 28.6439C64.8573 25.5867 60.534 25.7102 57.1681 25.1544C55.5623 25.7102 54.605 26.8219 54.605 28.2116ZM73.4855 21.9428C73.4855 23.1472 74.2266 23.8265 75.5544 23.8265H76.5426V25H68.174V23.8265H69.1622C70.0886 23.8265 70.6136 23.1781 70.6136 22.0355V13.7904C70.6136 11.7214 70.3048 11.567 67.9579 11.7523V10.5789C70.3974 10.3318 71.2312 10.0539 72.1885 9.37454H73.4855V12.8949C74.5663 10.4245 76.2956 9.06573 78.0866 9.06573C78.5498 9.06573 78.9822 9.1275 79.4454 9.2819V11.9067L78.9822 12.3082C78.4881 12.0611 77.9631 11.9067 77.4999 11.9067C75.9559 11.9067 74.3501 12.8023 73.4855 14.9639V21.9428ZM80.0224 17.3417C80.0224 12.5243 83.1105 9.06573 87.8969 9.06573C91.9114 9.06573 94.4744 12.092 94.4744 16.8476H83.2649V17.3417C83.2649 21.1708 85.3339 23.8265 88.3293 23.8265C90.3365 23.8265 92.4672 22.684 93.3936 20.5223L94.5362 21.3252C93.2701 23.8265 91.1702 25.4632 87.8043 25.4632C83.3266 25.4632 80.0224 22.159 80.0224 17.3417ZM83.4193 15.3653H91.6643C91.5717 12.4935 90.0277 10.4554 87.7116 10.4554C85.3956 10.4554 83.8516 12.3699 83.4193 15.3653ZM102.623 18.4842C104.63 18.4842 105.958 16.9093 105.958 14.408C105.958 11.9376 104.63 10.3627 102.623 10.3627C100.616 10.3627 99.2879 11.9376 99.2879 14.408C99.2879 16.9093 100.616 18.4842 102.623 18.4842ZM95.1191 28.7983C95.1191 27.069 96.2308 25.7411 98.5159 24.7838C97.1263 24.3824 96.169 23.6721 96.169 22.2516C96.169 20.862 97.4351 19.9974 99.3497 19.1019C97.4351 18.2372 96.2616 16.5388 96.2616 14.408C96.2616 11.2582 98.8865 9.06573 102.623 9.06573C103.457 9.06573 104.229 9.15838 104.939 9.37454L110.806 9.18926V10.795L107.255 10.5789C108.336 11.5053 108.984 12.8331 108.984 14.408C108.984 17.5578 106.39 19.7812 102.623 19.7812C101.913 19.7812 101.233 19.6886 100.616 19.5342C99.2262 20.1209 98.7012 20.615 98.7012 21.1708C98.7012 24.0118 110.405 20.9547 110.405 27.9645C110.405 30.5893 108.027 32.998 102.716 32.998C97.3733 32.998 95.1191 30.8981 95.1191 28.7983ZM97.6204 28.2116C97.6204 29.8482 98.6703 31.6393 102.685 31.6393C106.205 31.6393 107.873 30.4041 107.873 28.6439C107.873 25.5867 103.549 25.7102 100.183 25.1544C98.5777 25.7102 97.6204 26.8219 97.6204 28.2116ZM118.43 24.0118C121.147 24.0118 122.908 21.387 122.908 17.249C122.908 13.1111 121.147 10.5171 118.43 10.5171C115.712 10.5171 113.952 13.1111 113.952 17.249C113.952 21.387 115.712 24.0118 118.43 24.0118ZM110.71 17.249C110.71 12.4317 113.89 9.06573 118.43 9.06573C122.969 9.06573 126.119 12.4317 126.119 17.249C126.119 22.0664 122.969 25.4632 118.43 25.4632C113.89 25.4632 110.71 22.0664 110.71 17.249ZM132.327 21.9428C132.327 23.1472 133.068 23.8265 134.396 23.8265H135.384V25H127.016V23.8265H128.004C128.93 23.8265 129.455 23.1781 129.455 22.0355V13.7904C129.455 11.7214 129.146 11.567 126.799 11.7523V10.5789C129.239 10.3318 130.073 10.0539 131.03 9.37454H132.327V12.8949C133.408 10.4245 135.137 9.06573 136.928 9.06573C137.391 9.06573 137.824 9.1275 138.287 9.2819V11.9067L137.824 12.3082C137.33 12.0611 136.805 11.9067 136.341 11.9067C134.797 11.9067 133.192 12.8023 132.327 14.9639V21.9428ZM138.864 17.3417C138.864 12.5243 141.952 9.06573 146.738 9.06573C150.753 9.06573 153.316 12.092 153.316 16.8476H142.106V17.3417C142.106 21.1708 144.175 23.8265 147.171 23.8265C149.178 23.8265 151.309 22.684 152.235 20.5223L153.378 21.3252C152.112 23.8265 150.012 25.4632 146.646 25.4632C142.168 25.4632 138.864 22.159 138.864 17.3417ZM142.261 15.3653H150.506C150.413 12.4935 148.869 10.4554 146.553 10.4554C144.237 10.4554 142.693 12.3699 142.261 15.3653Z" fill="#F5F2ED"/>
<path d="M156.795 8.1364C154.852 8.1364 153.279 6.56356 153.279 4.62015C153.279 2.68498 154.852 1.11215 156.795 1.11215C158.73 1.11215 160.303 2.68498 160.303 4.62015C160.303 6.56356 158.73 8.1364 156.795 8.1364ZM153.913 4.62015C153.913 6.23417 155.181 7.50232 156.795 7.50232C158.401 7.50232 159.669 6.23417 159.669 4.62015C159.669 3.01438 158.401 1.74622 156.795 1.74622C155.181 1.74622 153.913 3.01438 153.913 4.62015ZM154.942 4.62015C154.942 3.48376 155.766 2.68498 156.943 2.68498C157.371 2.68498 157.808 2.79204 158.17 2.96497L158.302 3.97784H157.898C157.824 3.81315 157.775 3.64845 157.693 3.50023C157.544 3.19554 157.33 3.12143 157.058 3.12143C156.342 3.12143 155.971 3.64845 155.971 4.62015C155.971 5.58362 156.342 6.11065 157.058 6.11065C157.33 6.11065 157.544 6.03653 157.693 5.74008C157.775 5.59186 157.824 5.41893 157.898 5.25423H158.302L158.17 6.26711C157.808 6.44004 157.371 6.54709 156.943 6.54709C155.766 6.54709 154.942 5.75655 154.942 4.62015Z" fill="#F5F2ED"/>
<path d="M26.3149 1.15918C26.5092 1.19689 26.6853 1.20242 26.8376 1.20948C27.0147 1.21769 27.1658 1.2284 27.328 1.27999L27.4107 1.30648L27.4902 1.27145C27.51 1.26272 27.5221 1.25777 27.5306 1.25484C27.5318 1.25441 27.5328 1.25378 27.5337 1.25349C27.5362 1.254 27.5411 1.2551 27.5485 1.25753C27.5963 1.27308 27.6552 1.28791 27.7066 1.30109C27.7618 1.31523 27.8157 1.32908 27.8665 1.34511C27.8934 1.3536 27.9177 1.36187 27.9388 1.37026C27.9056 1.42638 27.8602 1.51694 27.8557 1.63567C27.8563 1.61972 27.8593 1.6279 27.8391 1.67115C27.8222 1.70745 27.7971 1.75192 27.7668 1.80004C27.7063 1.89621 27.6352 1.99079 27.5966 2.03806C27.4512 2.21613 27.3156 2.41558 27.1902 2.58686C27.0603 2.76423 26.9329 2.92372 26.786 3.05662C26.7319 3.10559 26.7141 3.16663 26.7096 3.18147C26.7046 3.19812 26.7017 3.21443 26.6993 3.22817L26.6984 3.22952C26.6653 3.25965 26.6218 3.29815 26.5767 3.3373C26.5318 3.3763 26.4862 3.41516 26.4496 3.44598C26.4313 3.46139 26.4155 3.47463 26.4033 3.48461C26.3916 3.49423 26.3861 3.49854 26.3849 3.49943L26.3185 3.54883L26.2987 3.62877L26.2758 3.71814C26.2317 3.75026 26.1797 3.79863 26.1456 3.86634L26.1249 3.90766L26.1213 3.94763C26.1074 3.95341 26.093 3.96 26.08 3.96604C26.0711 3.97019 26.0592 3.9759 26.0472 3.98266C26.0413 3.98599 26.032 3.99187 26.0216 3.99927C26.0157 4.00347 25.9895 4.02151 25.9664 4.05316L25.9538 4.06798C25.9448 4.0784 25.9335 4.09171 25.9197 4.10706C25.8832 4.14746 25.8669 4.1646 25.824 4.21214C25.7908 4.24891 25.7558 4.28826 25.7279 4.32217C25.7142 4.33884 25.6996 4.35747 25.687 4.37562C25.6808 4.38464 25.6729 4.39667 25.6655 4.4102C25.66 4.4202 25.6453 4.44687 25.6376 4.4825L25.6372 4.48475C25.6229 4.55335 25.594 4.59689 25.5388 4.65091C25.5068 4.68225 25.4725 4.71066 25.4243 4.75286C25.379 4.79251 25.3263 4.83981 25.2734 4.89747C25.2024 4.97481 25.1227 5.10168 25.0632 5.19342C25.0302 5.24436 25.0006 5.2902 24.9734 5.32815C24.9714 5.331 24.9686 5.3336 24.9667 5.33624C24.9488 5.33824 24.9214 5.34255 24.8917 5.35285C24.8649 5.36213 24.8109 5.3849 24.7682 5.43953L24.7677 5.44043C24.6959 5.53314 24.6391 5.63751 24.5944 5.71482C24.5463 5.79794 24.5066 5.85988 24.4596 5.90973C24.4554 5.91322 24.4489 5.9186 24.4394 5.9259C24.4294 5.93366 24.4179 5.94251 24.4049 5.9524C24.3921 5.96203 24.378 5.9726 24.364 5.98339C24.3372 6.00407 24.3049 6.02945 24.2782 6.05389C24.2654 6.06563 24.2477 6.08275 24.2315 6.10285C24.2235 6.11284 24.2118 6.12918 24.201 6.15C24.1917 6.16768 24.1722 6.20924 24.1727 6.26542C24.1728 6.27628 24.1643 6.31467 24.0555 6.40778C24.0319 6.42797 24.0066 6.44818 23.9791 6.47021C23.9526 6.49145 23.9229 6.51517 23.8947 6.53892C23.841 6.58414 23.7741 6.64483 23.7254 6.71901C23.5799 6.94085 23.4745 7.08818 23.2906 7.25972C23.227 7.31904 23.1703 7.40157 23.1326 7.45553C23.086 7.52212 23.0567 7.56228 23.0329 7.58532L23.0297 7.58846C22.7813 7.83695 22.5724 8.11355 22.374 8.37393C22.1725 8.63845 21.9809 8.88756 21.7565 9.10731L21.7543 9.10955L21.7516 9.1118C21.5144 9.3584 21.3084 9.635 21.1323 9.92062C21.0815 10.0029 21.0101 10.0733 20.9136 10.1618C20.8237 10.2442 20.7058 10.3476 20.6113 10.4775C20.568 10.5371 20.5402 10.5962 20.5206 10.6423C20.4968 10.6984 20.4921 10.7147 20.4788 10.7416L20.4779 10.742L20.4025 10.7497L20.3446 10.8049C20.2287 10.9159 20.1839 11.014 20.1622 11.0483C20.1506 11.0667 20.1308 11.1011 20.0059 11.1741L19.9453 11.2095L19.9148 11.2724C19.8519 11.4021 19.79 11.4882 19.7199 11.5773C19.6499 11.6663 19.5601 11.7718 19.4661 11.9169L19.397 12.0233L19.4504 12.1387C19.4709 12.1827 19.5036 12.2572 19.5371 12.317L19.6624 12.5402L19.8708 12.392C19.9674 12.3234 20.0437 12.2714 20.1128 12.2128C20.1729 12.162 20.225 12.1067 20.2889 12.0332C20.349 12.0135 20.4226 11.9893 20.482 11.9645L20.5386 11.9411L20.5759 11.8922C20.6305 11.8206 20.6871 11.7502 20.7443 11.6802C20.8237 11.6539 20.9327 11.6035 21.0056 11.4862L21.0389 11.4327L21.0398 11.3851C21.0563 11.3771 21.0766 11.3677 21.1017 11.3568C21.1554 11.3336 21.2476 11.2966 21.3223 11.2423C21.4164 11.1737 21.5085 11.0781 21.5823 11.0012C21.663 10.917 21.7239 10.8524 21.7763 10.8107C21.9516 10.6848 22.1542 10.5525 22.3399 10.4025C22.4161 10.341 22.4897 10.2769 22.5595 10.2161C22.6304 10.1544 22.6974 10.0959 22.7657 10.0405C22.862 9.96233 22.9334 9.91515 23.0311 9.78275C23.0328 9.78152 23.035 9.78034 23.0374 9.77871C23.0548 9.76664 23.0778 9.75155 23.1061 9.73335C23.1324 9.71637 23.1634 9.69652 23.19 9.67811C23.2035 9.66883 23.2182 9.65865 23.2318 9.64802C23.2381 9.64314 23.2455 9.63519 23.2547 9.62691L23.2552 9.62736C23.3294 9.56721 23.4121 9.505 23.5013 9.43829C23.5894 9.37237 23.684 9.30191 23.7761 9.22946C23.9395 9.10095 24.1084 8.95542 24.2409 8.79339C24.3596 8.74473 24.4546 8.67214 24.5315 8.60387C24.5776 8.56294 24.622 8.51951 24.6604 8.48216C24.7005 8.44319 24.7356 8.40929 24.7709 8.37932L24.9384 8.25178C25 8.20618 25.0746 8.15033 25.1324 8.09325C25.2697 7.95761 25.3205 7.8942 25.3983 7.82738C25.4599 7.77444 25.531 7.72794 25.6704 7.67379L25.7414 7.64639L25.7818 7.58217C25.8829 7.42163 25.9556 7.36807 26.0274 7.32439C26.1069 7.27606 26.2483 7.21063 26.4038 7.06526L26.4527 7.01945L26.4694 6.95523C26.4673 6.96299 26.469 6.95096 26.4972 6.91796C26.5235 6.88722 26.5627 6.85007 26.6158 6.80658C26.7225 6.71907 26.8632 6.62369 27.0164 6.52365C27.1649 6.42666 27.3268 6.3238 27.4587 6.22904C27.5253 6.18123 27.5895 6.13223 27.6437 6.08308C27.6732 6.05642 27.7032 6.02527 27.7313 5.99147C27.8859 5.93731 28.0274 5.87171 28.1553 5.80824C28.3087 5.73207 28.437 5.66502 28.5684 5.61378C28.8007 5.52323 29.0187 5.49277 29.3 5.61692C29.3553 5.68722 29.4205 5.76503 29.4734 5.82934C29.5488 5.92109 29.5985 5.98817 29.6189 6.02964C29.6154 6.02262 29.6193 6.02672 29.6216 6.05883C29.624 6.09378 29.6233 6.12382 29.6243 6.18144C29.6252 6.23535 29.6269 6.3268 29.6602 6.42081L29.644 6.44551L29.6476 6.52006C29.6492 6.55455 29.6576 6.59945 29.6638 6.63188C29.6711 6.67024 29.6805 6.71592 29.6898 6.76077C29.7096 6.85566 29.728 6.94329 29.7347 6.99251C29.7475 7.08531 29.739 7.18741 29.7249 7.30508C29.7125 7.40761 29.6906 7.55018 29.7002 7.66885C29.7055 7.73519 29.717 7.81451 29.7276 7.88846C29.7386 7.96585 29.7495 8.04423 29.7563 8.12154C29.7709 8.28817 29.7609 8.40076 29.7321 8.45971L29.6943 8.5365L29.7163 8.61914C29.732 8.67889 29.7489 8.74367 29.768 8.81L29.7091 8.95551L29.7442 9.04219C29.791 9.15775 29.7908 9.21642 29.7832 9.27302C29.7782 9.31074 29.7695 9.3481 29.7563 9.40955C29.75 9.43865 29.7434 9.47092 29.737 9.50656L29.7195 9.62467C29.7044 9.75495 29.6992 9.89499 29.6934 10.0248C29.6875 10.1585 29.6806 10.2855 29.6642 10.4065C29.6313 10.6499 29.5636 10.8329 29.4222 10.9576C29.3564 11.0155 29.256 11.0708 29.1267 11.1323C29.01 11.1877 28.8572 11.2535 28.7391 11.3205C28.5896 11.4054 28.512 11.4351 28.3955 11.4251H28.3942L28.3295 11.4197L28.1899 11.4085L28.1157 11.5275C28.1032 11.5477 28.092 11.563 28.0834 11.5764L27.9994 11.5558L27.9231 11.5953C27.413 11.8587 26.8799 12.0755 26.3306 12.2434L26.2399 12.2712L26.2012 12.3422C26.1889 12.342 26.1765 12.342 26.1653 12.3422C26.1572 12.3423 26.1453 12.3426 26.1334 12.3435C26.128 12.3439 26.1171 12.3447 26.1042 12.3471C26.0979 12.3483 26.0861 12.3509 26.0719 12.3556C26.063 12.3586 26.0272 12.3707 25.992 12.4019L25.9848 12.4082L25.978 12.4149C25.916 12.4797 25.8568 12.507 25.7755 12.5281C25.7287 12.5402 25.682 12.5485 25.6165 12.5618C25.5548 12.5743 25.483 12.5903 25.4054 12.6152C25.2904 12.6523 25.1703 12.7074 25.0578 12.7639L24.7552 12.9192C24.7233 12.9347 24.6761 12.9483 24.602 12.9669C24.5384 12.9828 24.4473 13.0039 24.3685 13.0356L24.3658 13.0369C24.2718 13.0761 24.183 13.1274 24.1098 13.1689C24.0316 13.2134 23.9683 13.2484 23.9064 13.2731C23.7593 13.3319 23.6047 13.3826 23.4388 13.4398C23.2765 13.4957 23.1059 13.5569 22.9444 13.6324C22.6032 13.7921 22.392 13.9351 22.0821 14.0276C21.9938 14.054 21.9137 14.0855 21.8818 14.0963C21.8449 14.1089 21.8051 14.1198 21.7246 14.1282L21.6627 14.1345L21.6124 14.1718C21.5396 14.2253 21.5074 14.2511 21.4669 14.2688C21.3916 14.3015 21.0749 14.4134 20.7393 14.5436C20.5784 14.6061 20.4169 14.6713 20.2929 14.7287C20.2319 14.7569 20.1738 14.7859 20.1277 14.814C20.1051 14.8277 20.0782 14.8454 20.054 14.8665C20.0405 14.8783 19.9817 14.9289 19.9633 15.0143L19.9318 15.1602L20.0527 15.2483C20.1526 15.3213 20.2736 15.3368 20.3603 15.3399C20.4537 15.3432 20.5524 15.333 20.6378 15.321C20.7177 15.3098 20.815 15.2926 20.8705 15.2842C20.9028 15.2793 20.9276 15.2762 20.9459 15.2748C20.9578 15.2738 20.963 15.2739 20.963 15.2739L21.0847 15.2905C21.2045 15.3024 21.2946 15.2969 21.3829 15.2815C21.5069 15.2598 21.5434 15.2413 21.6824 15.2267L21.7848 15.2159L21.845 15.132C21.8481 15.1276 21.8507 15.1236 21.8531 15.1203C21.8833 15.121 21.9076 15.1229 21.9285 15.1252C21.951 15.1277 22.0066 15.1357 22.0516 15.1355C22.153 15.1351 22.2352 15.0999 22.3215 15.0457C22.3728 15.0555 22.4288 15.0671 22.4796 15.0736L22.5887 15.0875L22.6682 15.0111C22.6815 14.9983 22.6932 14.9875 22.7032 14.9779C22.704 14.9785 22.7047 14.9791 22.7055 14.9797L22.7939 15.052L22.9049 15.0251C22.9525 15.0136 22.9975 15.0032 23.0418 14.9869C23.0678 14.9774 23.0917 14.966 23.1164 14.9537C23.1897 14.9584 23.2527 14.9635 23.3257 14.9734L23.4649 14.9923L23.5453 14.8773C23.549 14.872 23.5523 14.8668 23.5556 14.862C23.6559 14.8925 23.7461 14.901 23.8435 14.8701C23.9585 14.8337 23.9457 14.8132 24.0986 14.792C24.1385 14.7865 24.181 14.7935 24.2845 14.8019C24.3641 14.8083 24.4945 14.8158 24.6195 14.7619L24.62 14.7623C24.667 14.7427 24.705 14.7296 24.7345 14.7206C24.7586 14.7275 24.7872 14.7339 24.8207 14.7354L24.8787 14.7381L24.9308 14.7129C24.9646 14.6966 24.9974 14.6771 25.0201 14.6635C25.0462 14.648 25.0634 14.6374 25.0794 14.6294C25.0805 14.6289 25.0815 14.6281 25.0825 14.6276L25.0839 14.6285C25.097 14.6342 25.1234 14.6464 25.1522 14.6555C25.217 14.676 25.3107 14.6875 25.4117 14.6388L25.4122 14.6397C25.4162 14.6379 25.42 14.6354 25.4239 14.6335L25.4261 14.6326L25.4257 14.6321C25.4578 14.6158 25.4834 14.5963 25.5025 14.58C25.5132 14.5827 25.5243 14.5865 25.5366 14.5881C25.5732 14.5928 25.6064 14.59 25.6327 14.5863L25.7126 14.5751L25.7679 14.5162L25.7899 14.4924C25.9186 14.4913 26.049 14.4902 26.1483 14.5005L26.2282 14.5091L26.2956 14.4655C26.3063 14.4586 26.3163 14.4528 26.3252 14.4471C26.3803 14.4632 26.4353 14.4798 26.4905 14.4951L26.5601 14.5144L26.6283 14.4906C26.68 14.4725 26.8236 14.4124 26.9544 14.3555C27.0408 14.3179 27.1366 14.2734 27.2054 14.2405C27.2874 14.2497 27.3632 14.2573 27.4273 14.2634C27.5131 14.2716 27.592 14.2814 27.6806 14.3029L27.7735 14.3254L27.8548 14.2755C28.0139 14.178 28.0549 14.159 28.0897 14.1525C28.125 14.1459 28.1702 14.1495 28.3542 14.1821L28.4391 14.1969L28.5132 14.1525C28.5425 14.1349 28.5721 14.1177 28.6017 14.1004C28.6418 14.1188 28.6986 14.1388 28.7656 14.1385H28.8119L28.8541 14.1206L28.8918 14.1049L28.9138 14.0954L28.9336 14.082C28.9431 14.0753 28.9717 14.0598 29.0198 14.0438C29.0652 14.0286 29.1175 14.0164 29.168 14.0101C29.1768 14.009 29.1855 14.009 29.1936 14.0083L29.1909 14.0438L29.2861 14.121C29.3915 14.2062 29.4799 14.2355 29.5466 14.2656C29.6497 14.3123 29.7134 14.3664 29.7761 14.4565L29.7594 14.4853L29.7163 14.5589L29.7312 14.6424C29.7465 14.7281 29.7638 14.7973 29.794 14.8674C29.8069 14.8972 29.8217 14.9255 29.8376 14.9537C29.8155 15.0241 29.8042 15.0945 29.7999 15.1589C29.7925 15.2682 29.7992 15.3855 29.8053 15.4881C29.8187 15.7171 29.8251 15.8775 29.7779 15.9897L29.7347 16.0917L29.7361 16.0944L29.7347 16.0971L29.7779 16.199C29.8251 16.3113 29.8187 16.4716 29.8053 16.7006C29.7992 16.8033 29.7925 16.9206 29.7999 17.0298C29.8042 17.0941 29.8156 17.1644 29.8376 17.2346C29.8216 17.2629 29.8069 17.2914 29.794 17.3213C29.7638 17.3915 29.7465 17.4606 29.7312 17.5463L29.7163 17.6298L29.7594 17.7035L29.7761 17.7318C29.7133 17.8221 29.6498 17.8764 29.5466 17.9231C29.4799 17.9533 29.3915 17.9825 29.2861 18.0677L29.1909 18.1449L29.1936 18.18C29.1855 18.1793 29.1768 18.1797 29.168 18.1786C29.1175 18.1723 29.0652 18.1601 29.0198 18.1449C28.9717 18.1289 28.9431 18.1134 28.9336 18.1068L28.9138 18.0933L28.8918 18.0839L28.8541 18.0682L28.8119 18.0502H28.7656C28.6987 18.05 28.6418 18.0695 28.6017 18.0879C28.5722 18.0706 28.5424 18.0538 28.5132 18.0363L28.4391 17.9918L28.3542 18.0066C28.1702 18.0393 28.125 18.0428 28.0897 18.0363C28.0549 18.0298 28.0139 18.0108 27.8548 17.9132L27.7735 17.8634L27.6806 17.8858C27.592 17.9073 27.5131 17.9172 27.4273 17.9253C27.3632 17.9314 27.2874 17.9386 27.2054 17.9478C27.1366 17.9149 27.0407 17.8708 26.9544 17.8333C26.8236 17.7764 26.68 17.7162 26.6283 17.6981L26.5601 17.6743L26.4905 17.6936C26.4353 17.7089 26.3803 17.7251 26.3252 17.7412C26.3164 17.7355 26.3062 17.73 26.2956 17.7232L26.2282 17.6797L26.1483 17.6882C26.049 17.6985 25.9186 17.6969 25.7899 17.6958L25.7679 17.6725L25.7126 17.6137L25.6327 17.6024L25.5887 17.5984C25.5725 17.5979 25.5549 17.5983 25.5366 17.6006C25.5244 17.6022 25.5132 17.6056 25.5025 17.6083C25.4834 17.592 25.4582 17.5724 25.4261 17.5562L25.4239 17.5548C25.4201 17.5529 25.4161 17.5508 25.4122 17.549L25.4117 17.5494C25.3107 17.5009 25.217 17.5127 25.1522 17.5333C25.1234 17.5424 25.097 17.5545 25.0839 17.5602L25.0825 17.5607C25.0816 17.5602 25.0805 17.5599 25.0794 17.5593C25.0634 17.5513 25.0462 17.5407 25.0201 17.5252C24.9974 17.5117 24.9646 17.4921 24.9308 17.4758L24.8787 17.4506L24.8207 17.4533C24.7872 17.4549 24.7586 17.4608 24.7345 17.4677C24.705 17.4586 24.6665 17.446 24.6195 17.4264C24.4945 17.3726 24.3641 17.3804 24.2845 17.3869C24.181 17.3953 24.1385 17.4023 24.0986 17.3967C23.9457 17.3755 23.9585 17.3551 23.8435 17.3186C23.7461 17.2878 23.6558 17.2958 23.5556 17.3262C23.5524 17.3216 23.5489 17.3166 23.5453 17.3114L23.4649 17.1965L23.3257 17.2153C23.2528 17.2253 23.1896 17.2299 23.1164 17.2346C23.0918 17.2223 23.0677 17.2114 23.0418 17.2018C22.9975 17.1856 22.9525 17.1752 22.9049 17.1637L22.7939 17.1367L22.7055 17.209L22.7032 17.2104C22.6932 17.2008 22.6814 17.1903 22.6682 17.1776L22.5887 17.1012L22.4796 17.1152C22.4289 17.1216 22.3728 17.1328 22.3215 17.1426C22.2353 17.0885 22.1529 17.0536 22.0516 17.0532C22.0066 17.053 21.951 17.0611 21.9285 17.0635C21.9076 17.0658 21.8833 17.0673 21.8531 17.068C21.8508 17.0647 21.848 17.061 21.845 17.0568L21.7848 16.9728L21.6824 16.962L21.5944 16.9503C21.5196 16.938 21.4759 16.9235 21.3829 16.9072C21.2946 16.8918 21.2045 16.8863 21.0847 16.8983L20.954 16.9162C20.9664 16.9141 20.9675 16.9157 20.9459 16.914C20.9276 16.9125 20.9028 16.9095 20.8705 16.9045C20.815 16.8961 20.7177 16.8789 20.6378 16.8677C20.5524 16.8558 20.4537 16.8456 20.3603 16.8489C20.2736 16.8519 20.1526 16.8674 20.0527 16.9405L19.9318 17.0285L19.9633 17.1744C19.9817 17.2598 20.0405 17.3104 20.054 17.3222C20.0782 17.3433 20.1051 17.361 20.1277 17.3747C20.1738 17.4028 20.2319 17.4319 20.2929 17.4601C20.4169 17.5174 20.5784 17.5826 20.7393 17.6451C21.0749 17.7754 21.3916 17.8872 21.4669 17.9199C21.5074 17.9376 21.5396 17.9635 21.6124 18.017L21.6627 18.0542L21.7246 18.0605C21.8051 18.0689 21.8449 18.0799 21.8818 18.0924C21.9137 18.1032 21.9938 18.1352 22.0821 18.1616C22.392 18.2541 22.6032 18.3967 22.9444 18.5563C23.1059 18.6319 23.2765 18.693 23.4388 18.749C23.6047 18.8061 23.7593 18.8569 23.9064 18.9156C23.9683 18.9403 24.0316 18.9754 24.1098 19.0198C24.183 19.0614 24.2718 19.1126 24.3658 19.1518L24.3685 19.1532C24.4473 19.1848 24.5384 19.206 24.602 19.2219C24.6761 19.2404 24.7233 19.254 24.7552 19.2695L25.0578 19.4249C25.1703 19.4813 25.2904 19.5365 25.4054 19.5735C25.483 19.5985 25.5548 19.6145 25.6165 19.627C25.682 19.6402 25.7287 19.6485 25.7755 19.6606C25.8568 19.6818 25.916 19.709 25.978 19.7738L25.9848 19.7806L25.992 19.7868C26.0272 19.818 26.063 19.8301 26.0719 19.8331C26.0861 19.8379 26.0979 19.8404 26.1042 19.8416C26.1171 19.8441 26.128 19.8448 26.1334 19.8452C26.1453 19.8462 26.1572 19.8465 26.1653 19.8466C26.1765 19.8467 26.1889 19.8463 26.2012 19.8461L26.2399 19.9175L26.3306 19.9454C26.8799 20.1132 27.413 20.33 27.9231 20.5934L27.9994 20.6329L28.0834 20.6123L28.0839 20.6118C28.0925 20.6253 28.1031 20.6409 28.1157 20.6612L28.1899 20.7802L28.3295 20.769L28.3942 20.7636H28.3955C28.512 20.7537 28.5896 20.7834 28.7391 20.8683C28.8572 20.9353 29.01 21.001 29.1267 21.0564C29.256 21.1179 29.3564 21.1732 29.4222 21.2311C29.5636 21.3558 29.6313 21.5388 29.6642 21.7822C29.6806 21.9032 29.6875 22.0302 29.6934 22.1639C29.6992 22.2937 29.7044 22.4338 29.7195 22.5641L29.737 22.6822C29.7434 22.7178 29.75 22.7501 29.7563 22.7792C29.7695 22.8406 29.7782 22.878 29.7832 22.9157C29.7908 22.9723 29.791 23.031 29.7442 23.1465L29.7091 23.2332L29.7442 23.3199L29.768 23.3783C29.7489 23.4448 29.732 23.5097 29.7163 23.5696L29.6943 23.6522L29.7321 23.729C29.7609 23.788 29.7709 23.9006 29.7563 24.0672C29.7495 24.1445 29.7386 24.2229 29.7276 24.3003C29.717 24.3742 29.7055 24.4535 29.7002 24.5199C29.6906 24.6386 29.7125 24.7811 29.7249 24.8837C29.739 25.0013 29.7475 25.1034 29.7347 25.1962C29.728 25.2454 29.7096 25.3331 29.6898 25.428C29.6805 25.4728 29.6711 25.5185 29.6638 25.5569C29.6576 25.5893 29.6492 25.6342 29.6476 25.6687L29.644 25.7432L29.6602 25.7675C29.6268 25.8616 29.6252 25.9533 29.6243 26.0073C29.6233 26.0649 29.624 26.095 29.6216 26.1299C29.6193 26.162 29.6154 26.1661 29.6189 26.1591C29.5985 26.2006 29.5488 26.2676 29.4734 26.3594C29.4206 26.4236 29.3553 26.5011 29.3 26.5714C29.0186 26.6956 28.8008 26.6655 28.5684 26.575C28.437 26.5237 28.3087 26.4567 28.1553 26.3805C28.0273 26.317 27.886 26.251 27.7313 26.1968C27.7033 26.1631 27.6731 26.1322 27.6437 26.1056C27.5895 26.0565 27.5253 26.0075 27.4587 25.9597C27.3268 25.8649 27.1649 25.7621 27.0164 25.6651C26.8632 25.565 26.7225 25.4697 26.6158 25.3822C26.5627 25.3387 26.5235 25.3015 26.4972 25.2708C26.469 25.2378 26.4673 25.2257 26.4694 25.2335L26.4527 25.1693L26.4038 25.1235C26.2483 24.9781 26.1069 24.9127 26.0274 24.8643C25.9556 24.8207 25.8829 24.7671 25.7818 24.6066L25.7414 24.5423L25.6704 24.5149L25.5779 24.4754C25.4962 24.4371 25.4445 24.4011 25.3983 24.3614C25.3205 24.2945 25.2697 24.2311 25.1324 24.0955C25.0746 24.0384 25 23.9826 24.9384 23.937L24.7709 23.8094C24.7356 23.7794 24.7005 23.7455 24.6604 23.7066C24.622 23.6692 24.5776 23.6258 24.5315 23.5849C24.4546 23.5166 24.3596 23.4436 24.2409 23.3949C24.1084 23.233 23.9394 23.0877 23.7761 22.9593C23.684 22.8868 23.5894 22.8164 23.5013 22.7504C23.4121 22.6837 23.3289 22.6215 23.2547 22.5614C23.2455 22.5532 23.238 22.5456 23.2318 22.5407C23.2182 22.5301 23.2035 22.5199 23.19 22.5106C23.1634 22.4922 23.1324 22.4724 23.1061 22.4554C23.0778 22.4372 23.0548 22.4221 23.0374 22.41C23.0349 22.4083 23.0328 22.4068 23.0311 22.4055C22.9335 22.2734 22.862 22.2264 22.7657 22.1482C22.6974 22.0928 22.6304 22.0343 22.5595 21.9726C22.4897 21.9118 22.4161 21.8478 22.3399 21.7862C22.1541 21.6362 21.9517 21.5035 21.7763 21.3775C21.7239 21.3359 21.6629 21.2716 21.5823 21.1876C21.5085 21.1106 21.4164 21.015 21.3223 20.9464C21.2476 20.8921 21.1554 20.8551 21.1017 20.8319C21.0765 20.821 21.0564 20.8112 21.0398 20.8032L21.0389 20.756L21.0056 20.7026L20.9657 20.6482C20.8965 20.5685 20.8102 20.5299 20.7443 20.5081C20.6872 20.4382 20.6304 20.3681 20.5759 20.2966L20.5386 20.2476L20.482 20.2243L20.3504 20.1758C20.3291 20.1686 20.3083 20.1615 20.2889 20.1551C20.2251 20.0817 20.1728 20.0267 20.1128 19.9759C20.0437 19.9174 19.9674 19.8654 19.8708 19.7967L19.6624 19.6485L19.5371 19.8717C19.5036 19.9315 19.4709 20.006 19.4504 20.05L19.397 20.1654L19.4661 20.2719C19.5601 20.4169 19.6499 20.5225 19.7199 20.6114C19.79 20.7005 19.8519 20.7866 19.9148 20.9163L19.9453 20.9792L20.0059 21.0147C20.1308 21.0877 20.1506 21.122 20.1622 21.1404C20.1839 21.1747 20.2287 21.2728 20.3446 21.3838L20.4025 21.4391L20.4779 21.4463L20.4788 21.4472C20.4921 21.474 20.4968 21.4903 20.5206 21.5464C20.5402 21.5925 20.568 21.6517 20.6113 21.7112C20.7058 21.8411 20.8237 21.9446 20.9136 22.0269C21.0101 22.1154 21.0815 22.1858 21.1323 22.2681C21.3084 22.5537 21.5144 22.8303 21.7516 23.0769L21.7543 23.0792L21.7565 23.0814C21.9809 23.3012 22.1725 23.5503 22.374 23.8148C22.5724 24.0752 22.7813 24.3518 23.0297 24.6003L23.0329 24.6034C23.0567 24.6265 23.086 24.6666 23.1326 24.7332C23.1703 24.7872 23.227 24.8697 23.2906 24.929C23.4745 25.1006 23.5799 25.2479 23.7254 25.4697C23.7741 25.5439 23.841 25.6046 23.8947 25.6498C23.9229 25.6736 23.9526 25.6973 23.9791 25.7185C24.0066 25.7405 24.0319 25.7608 24.0555 25.781C24.1632 25.8731 24.1726 25.9115 24.1727 25.9229C24.1721 25.9792 24.1917 26.021 24.201 26.0387C24.2118 26.0595 24.2235 26.0759 24.2315 26.0859C24.2477 26.106 24.2654 26.1231 24.2782 26.1348C24.3049 26.1593 24.3372 26.1847 24.364 26.2053C24.378 26.2161 24.3921 26.2267 24.4049 26.2363C24.4179 26.2462 24.4294 26.2551 24.4394 26.2628C24.4487 26.27 24.4554 26.2751 24.4596 26.2786C24.5067 26.3284 24.5462 26.3907 24.5944 26.4739C24.6391 26.5512 24.6959 26.6556 24.7677 26.7483L24.7682 26.7492C24.8109 26.8038 24.8649 26.8266 24.8917 26.8359C24.9214 26.8462 24.9488 26.8505 24.9667 26.8525C24.9687 26.8552 24.9713 26.8576 24.9734 26.8606C25.0006 26.8985 25.0302 26.9444 25.0632 26.9953C25.1227 27.0871 25.2024 27.2139 25.2734 27.2913C25.3263 27.3489 25.379 27.3962 25.4243 27.4359C25.4725 27.4781 25.5068 27.5065 25.5388 27.5378C25.594 27.5918 25.6229 27.6354 25.6372 27.704L25.6376 27.7062C25.6453 27.7419 25.66 27.7685 25.6655 27.7785C25.6729 27.7921 25.6808 27.8041 25.687 27.8131C25.6996 27.8313 25.7142 27.8499 25.7279 27.8666C25.7558 27.9005 25.7908 27.9398 25.824 27.9766C25.8669 28.0241 25.8832 28.0413 25.9197 28.0817C25.9335 28.097 25.9448 28.1103 25.9538 28.1207C25.9618 28.13 25.9655 28.1341 25.9664 28.1351C25.9895 28.1669 26.0157 28.1853 26.0216 28.1895C26.032 28.1969 26.0413 28.2027 26.0472 28.2061C26.0592 28.2128 26.0711 28.2185 26.08 28.2227C26.0929 28.2287 26.1074 28.2349 26.1213 28.2407L26.1249 28.2811L26.1456 28.3224C26.1796 28.39 26.2317 28.438 26.2758 28.4701L26.2987 28.56L26.3185 28.6399L26.3849 28.6893C26.3861 28.6902 26.3916 28.6945 26.4033 28.7041C26.4155 28.7141 26.4313 28.7273 26.4496 28.7427C26.4862 28.7736 26.5318 28.8124 26.5767 28.8514C26.6218 28.8906 26.6653 28.9291 26.6984 28.9592L26.6993 28.9601C26.7017 28.9739 26.7046 28.9904 26.7096 29.0073C26.7141 29.0221 26.7316 29.0827 26.7855 29.1317L26.786 29.1321C26.9329 29.265 27.0603 29.4245 27.1902 29.6019C27.3156 29.7732 27.4512 29.9726 27.5966 30.1507C27.6352 30.1979 27.7063 30.2925 27.7668 30.3887C27.7971 30.4368 27.8222 30.4813 27.8391 30.5176C27.8593 30.5608 27.8563 30.569 27.8557 30.5531C27.8602 30.6716 27.9056 30.7619 27.9388 30.818C27.9177 30.8264 27.8935 30.8351 27.8665 30.8436C27.8157 30.8597 27.7618 30.8735 27.7066 30.8876C27.6552 30.9008 27.5963 30.9157 27.5485 30.9312C27.5412 30.9336 27.5362 30.9343 27.5337 30.9348C27.5328 30.9345 27.5318 30.9343 27.5306 30.9339C27.5221 30.931 27.51 30.926 27.4902 30.9173L27.4107 30.8822L27.328 30.9087C27.1658 30.9603 27.0147 30.971 26.8376 30.9793C26.6853 30.9863 26.5092 30.9914 26.3149 31.0291C26.2691 31.0105 26.2196 30.9983 26.1792 30.9905C26.1235 30.9796 26.0586 30.9711 25.9902 30.9635C25.853 30.9484 25.6874 30.9369 25.5227 30.9281C25.1823 30.9097 24.8598 30.9013 24.7233 30.889L24.6299 30.8805L24.5576 30.9397L24.536 30.9568C24.4503 30.9377 24.3595 30.9202 24.2692 30.9182C24.1592 30.9157 24.052 30.9343 23.9405 30.9815C23.8166 30.9363 23.6966 30.9212 23.5835 30.9186C23.4549 30.9158 23.2895 30.9311 23.1815 30.9343C23.1483 30.9354 23.1175 30.9394 23.0944 30.9429C23.0641 30.9474 23.0572 30.9489 23.036 30.9519C23.0024 30.9565 22.9998 30.9534 23.0073 30.9555C22.8503 30.9118 22.7207 30.978 22.6718 30.9999C22.6113 31.027 22.5962 31.0302 22.5752 31.0282C22.5432 31.0251 22.5129 31.0143 22.4625 30.9896C22.4212 30.9693 22.3364 30.9221 22.2442 30.9002C22.1534 30.8787 22.0281 30.8822 21.9402 30.8863C21.8906 30.8886 21.841 30.8919 21.7978 30.8948C21.7791 30.8961 21.7618 30.8969 21.7462 30.898C21.6648 30.8581 21.5654 30.8136 21.4996 30.7821C21.3872 30.7282 21.3324 30.6899 21.316 30.6694C21.2057 30.5322 21.1177 30.3642 21.0321 30.1736C20.952 29.995 20.8637 29.7713 20.7712 29.5839C20.6454 29.3288 20.5242 29.0932 20.4317 28.8483C20.4331 28.8531 20.4321 28.8527 20.4312 28.8442C20.4303 28.8345 20.4297 28.8204 20.4299 28.802C20.4302 28.7625 20.4335 28.727 20.4357 28.6848L20.4447 28.516L20.3015 28.4625L20.3324 28.3898L20.2678 28.2883C20.1638 28.1255 20.0988 28.0009 20.0428 27.8284C19.992 27.6722 19.913 27.5586 19.842 27.4597C19.8158 27.1092 19.6546 26.8433 19.52 26.6055L19.5335 26.5768L19.5245 26.5098C19.5136 26.4292 19.4745 26.372 19.4473 26.3387C19.4338 26.3223 19.4199 26.3081 19.4104 26.2983C19.399 26.2865 19.3937 26.2812 19.3862 26.2732C19.3662 26.2519 19.3628 26.2447 19.3606 26.2274C19.3508 26.1507 19.3198 26.0531 19.2959 25.9804C19.2679 25.8948 19.2446 25.8281 19.2313 25.7801L19.2128 25.7302C19.1946 25.6902 19.1693 25.6558 19.1401 25.6265C19.1419 25.5868 19.1396 25.531 19.1226 25.4729H19.1235C19.1215 25.4645 19.1179 25.4568 19.1154 25.4491C19.1139 25.4452 19.113 25.4409 19.1113 25.4369C19.103 25.4143 19.0943 25.3954 19.0875 25.3831C19.0759 25.3618 19.0628 25.3412 19.0507 25.3233C19.0267 25.2879 18.9974 25.2494 18.9735 25.2178C18.9484 25.1847 18.9289 25.1586 18.9146 25.1378C18.8956 24.958 18.8415 24.8101 18.7781 24.678C18.7446 24.608 18.7075 24.5403 18.6735 24.4777C18.6385 24.4133 18.6056 24.3524 18.5751 24.2882C18.5239 24.1771 18.4826 24.0442 18.4341 23.8911C18.3878 23.7452 18.3348 23.5793 18.2621 23.4358C18.0537 23.0244 17.8661 22.6465 17.7385 22.2344L17.6873 22.0557L17.6711 22.0094C17.6653 21.9967 17.6599 21.9867 17.6567 21.9811C17.6482 21.9661 17.6388 21.9518 17.6307 21.9398C17.6146 21.916 17.5947 21.8885 17.5781 21.8657C17.5666 21.8499 17.5559 21.835 17.5462 21.8213C17.5469 21.818 17.5479 21.8147 17.5485 21.8114L17.5705 21.696L17.4897 21.6106L17.4627 21.5823L17.3904 21.506L17.2853 21.5109C17.236 21.5132 17.1895 21.5256 17.1479 21.5478C17.1257 21.5595 17.1073 21.5727 17.0922 21.5855C17.0405 21.5932 16.9962 21.599 16.9418 21.6052C16.8652 21.614 16.7824 21.626 16.6692 21.6569L16.463 21.713L16.5039 21.9228C16.5199 22.0044 16.5142 22.0559 16.521 22.1868C16.5238 22.2421 16.545 22.3944 16.5654 22.5259C16.5761 22.595 16.5874 22.6645 16.5977 22.7208C16.6029 22.7488 16.6082 22.7751 16.613 22.7971C16.6165 22.8129 16.6233 22.8446 16.6341 22.8717C16.6573 22.9295 16.6951 22.9705 16.7172 22.9925C16.7168 22.9979 16.7174 23.0043 16.7168 23.0109C16.7135 23.0439 16.7096 23.071 16.7051 23.1102C16.7031 23.1274 16.701 23.1466 16.6997 23.1654C16.6985 23.1831 16.6973 23.2076 16.6992 23.2332C16.7097 23.3698 16.7494 23.5015 16.7837 23.6096C16.8206 23.7263 16.851 23.8159 16.8668 23.9037C16.8745 23.9468 16.8757 23.9953 16.8757 24.0627C16.8757 24.1239 16.8748 24.2076 16.8847 24.2904C16.9094 24.4953 16.9673 24.731 16.9979 24.9025C17.0031 24.9321 17.0054 24.9626 17.0105 25.0152C17.0148 25.0605 17.0212 25.124 17.0392 25.1863C17.0564 25.2456 17.0849 25.2869 17.0998 25.3085C17.0998 25.3085 17.1075 25.3213 17.1178 25.357C17.1278 25.3918 17.1375 25.4375 17.1465 25.4949C17.1649 25.6115 17.1777 25.7512 17.1946 25.9107C17.211 26.0656 17.2306 26.2351 17.2624 26.394C17.2866 26.515 17.3202 26.6401 17.3697 26.7532L17.3495 26.8161L17.3257 26.8889L17.3504 26.9612C17.4489 27.2488 17.4897 27.4841 17.531 27.7992C17.5376 27.8492 17.5549 27.9056 17.5687 27.9483C17.5836 27.9944 17.6029 28.0485 17.6185 28.0943C17.6352 28.1431 17.6491 28.1858 17.6585 28.2209C17.6643 28.2426 17.6662 28.2546 17.667 28.2591L17.6581 28.3157C17.6556 28.3257 17.6423 28.3744 17.6388 28.4189C17.6294 28.5356 17.6768 28.6313 17.7376 28.7261C17.739 28.7305 17.7442 28.7466 17.7488 28.78C17.7541 28.8191 17.7571 28.8676 17.7578 28.9215C17.759 29.029 17.7512 29.1413 17.7452 29.2116L17.7331 29.3558L17.8579 29.429L17.8876 29.4465C17.8853 29.6814 17.9364 29.9026 17.9688 30.0882L17.9819 30.1628L18.0367 30.2149C18.0378 30.216 18.0387 30.2174 18.0398 30.2185C18.0349 30.2318 18.0299 30.2455 18.0263 30.2598C18.0184 30.2912 18.0152 30.3231 18.0138 30.3537C17.8379 30.4954 17.586 30.6846 17.3909 30.8373C17.2947 30.8172 17.2047 30.8279 17.1371 30.8409C17.0883 30.8504 17.0392 30.8635 17.0015 30.8733C16.9604 30.8839 16.9292 30.8915 16.9009 30.8962C16.8834 30.899 16.8716 30.8991 16.8645 30.8993C16.8573 30.8937 16.8439 30.8835 16.8286 30.8737C16.786 30.8464 16.7303 30.8222 16.6584 30.8185L16.591 30.8153L16.5326 30.8486L16.5133 30.8593L16.5124 30.8598C16.5124 30.8598 16.5106 30.8609 16.5093 30.8616C16.5069 30.8629 16.5036 30.8647 16.5003 30.8665C16.497 30.8684 16.4928 30.8709 16.4886 30.8733C16.4868 30.8743 16.4833 30.8761 16.4792 30.8787C16.4593 30.8799 16.4334 30.8813 16.4024 30.8822C16.3269 30.8846 16.2293 30.8859 16.1311 30.8858C16.033 30.8858 15.9362 30.8843 15.863 30.8822C15.8335 30.8814 15.809 30.8801 15.7903 30.8791C15.7728 30.8711 15.7576 30.8656 15.7458 30.8625L15.7175 30.8562L15.6708 30.8504C15.6253 30.8487 15.5834 30.8585 15.5478 30.8746C15.5275 30.8838 15.5119 30.8939 15.5024 30.9002C15.4988 30.9026 15.4949 30.9051 15.4916 30.9074C15.3788 30.9163 15.1442 30.9242 14.9329 30.9114L14.919 30.9105L14.9051 30.9114C14.6935 30.9242 14.4586 30.9163 14.346 30.9074C14.3428 30.9051 14.3391 30.9026 14.3356 30.9002C14.3262 30.8939 14.3105 30.8838 14.2903 30.8746C14.2428 30.8531 14.1842 30.8428 14.1205 30.8562C14.1145 30.8575 14.1027 30.8597 14.0922 30.8625C14.0803 30.8656 14.0649 30.871 14.0473 30.8791C14.0287 30.8801 14.0043 30.8814 13.975 30.8822C13.9018 30.8843 13.8051 30.8858 13.7069 30.8858C13.6087 30.8859 13.5111 30.8846 13.4357 30.8822C13.4044 30.8813 13.3783 30.8799 13.3584 30.8787C13.3544 30.8762 13.3512 30.8743 13.3494 30.8733C13.3452 30.8709 13.3411 30.8684 13.3377 30.8665C13.3344 30.8647 13.3311 30.8629 13.3288 30.8616C13.3275 30.8609 13.3256 30.8598 13.3256 30.8598L13.3247 30.8593L13.3054 30.8486L13.247 30.8153L13.1797 30.8185C13.1077 30.8222 13.052 30.8464 13.0095 30.8737C12.994 30.8837 12.9803 30.8938 12.9731 30.8993C12.9659 30.8991 12.9543 30.899 12.9372 30.8962C12.9088 30.8915 12.8776 30.8839 12.8366 30.8733C12.7988 30.8635 12.7497 30.8504 12.7009 30.8409C12.6333 30.8279 12.543 30.8171 12.4467 30.8373C12.2515 30.6846 11.9996 30.4954 11.8238 30.3537C11.8224 30.3231 11.8196 30.2912 11.8117 30.2598C11.8081 30.2454 11.8027 30.2319 11.7978 30.2185C11.799 30.2173 11.8001 30.2161 11.8014 30.2149L11.8562 30.1628L11.8692 30.0882C11.9016 29.9026 11.9523 29.6814 11.95 29.4465L11.9801 29.429L12.105 29.3558L12.0928 29.2116C12.0869 29.1413 12.079 29.029 12.0803 28.9215C12.0809 28.8676 12.0839 28.8191 12.0893 28.78C12.0938 28.747 12.0986 28.7307 12.1 28.7261C12.1608 28.6312 12.2086 28.5357 12.1993 28.4189C12.1957 28.3744 12.1824 28.3257 12.18 28.3157L12.171 28.2591C12.1718 28.2546 12.1737 28.2426 12.1795 28.2209C12.1889 28.1858 12.2028 28.1431 12.2195 28.0943C12.2351 28.0485 12.2544 27.9944 12.2693 27.9483C12.2832 27.9056 12.3005 27.8487 12.3071 27.7987C12.3483 27.4837 12.3892 27.2488 12.4876 26.9612L12.5123 26.8889L12.4885 26.8161L12.4678 26.7532C12.5174 26.6401 12.5514 26.5151 12.5756 26.394C12.6074 26.2351 12.6271 26.0656 12.6434 25.9107C12.6603 25.7512 12.6731 25.6115 12.6915 25.4949C12.7006 25.4375 12.7102 25.3918 12.7202 25.357C12.7305 25.3213 12.7382 25.3085 12.7382 25.3085C12.7531 25.2869 12.7817 25.2456 12.7988 25.1863C12.8169 25.124 12.8232 25.0605 12.8276 25.0152C12.8326 24.9626 12.8349 24.9321 12.8401 24.9025C12.8708 24.731 12.9287 24.4953 12.9533 24.2904C12.9633 24.2076 12.9623 24.1239 12.9623 24.0627C12.9623 23.9953 12.9636 23.9468 12.9713 23.9037C12.987 23.8159 13.0174 23.7263 13.0544 23.6096C13.0886 23.5015 13.1283 23.3698 13.1388 23.2332C13.1407 23.2076 13.1395 23.1831 13.1383 23.1654C13.1371 23.1466 13.135 23.1274 13.133 23.1102C13.1284 23.071 13.1245 23.0439 13.1213 23.0109C13.1206 23.0042 13.1208 22.998 13.1204 22.9925C13.1424 22.9705 13.1807 22.9297 13.2039 22.8717C13.2148 22.8446 13.2216 22.8129 13.225 22.7971C13.2299 22.7751 13.2352 22.7488 13.2403 22.7208C13.2506 22.6645 13.2619 22.595 13.2726 22.5259C13.293 22.3944 13.3142 22.2421 13.3171 22.1868C13.3238 22.0559 13.3182 22.0044 13.3342 21.9228L13.375 21.713L13.1689 21.6569C13.0556 21.626 12.9728 21.614 12.8963 21.6052C12.8417 21.599 12.7973 21.5933 12.7454 21.5855C12.7304 21.5728 12.7122 21.5595 12.6901 21.5478C12.6485 21.5256 12.602 21.5132 12.5527 21.5109L12.4476 21.506L12.3753 21.5823L12.3484 21.6106L12.2675 21.696L12.2896 21.8114C12.2902 21.8147 12.2907 21.818 12.2913 21.8213C12.2817 21.835 12.2714 21.8499 12.2599 21.8657C12.2433 21.8885 12.2234 21.916 12.2074 21.9398C12.1993 21.9518 12.1898 21.9661 12.1813 21.9811C12.1782 21.9867 12.1727 21.9967 12.1669 22.0094L12.1508 22.0557C12.0568 22.4184 11.9144 22.7487 11.7488 23.0895L11.5759 23.4358C11.5032 23.5793 11.4502 23.7452 11.4039 23.8911C11.3554 24.0442 11.3141 24.1771 11.2629 24.2882C11.2324 24.3524 11.1995 24.4133 11.1646 24.4777C11.1306 24.5403 11.0935 24.608 11.0599 24.678C10.9966 24.8101 10.942 24.958 10.9229 25.1378C10.9087 25.1586 10.8895 25.1848 10.8646 25.2178C10.8406 25.2494 10.8114 25.2879 10.7873 25.3233C10.7752 25.3412 10.7621 25.3618 10.7505 25.3831C10.7404 25.4015 10.7241 25.4338 10.715 25.4729C10.698 25.5309 10.6956 25.5869 10.6975 25.6265C10.6568 25.6674 10.6239 25.719 10.6068 25.7805C10.5935 25.8286 10.5702 25.8948 10.5421 25.9804C10.5183 26.0531 10.4872 26.1507 10.4774 26.2274C10.4752 26.2447 10.4718 26.2519 10.4518 26.2732C10.4444 26.2812 10.4391 26.2865 10.4276 26.2983C10.4181 26.3081 10.4042 26.3223 10.3908 26.3387C10.3636 26.372 10.3244 26.4292 10.3135 26.5098L10.3045 26.5768L10.3176 26.6055C10.183 26.8433 10.0218 27.1093 9.99556 27.4597C9.92459 27.5586 9.84604 27.6723 9.79527 27.8284C9.7392 28.0009 9.67424 28.1255 9.57027 28.2883L9.5056 28.3898L9.53614 28.4625L9.39332 28.516L9.40231 28.6848C9.40456 28.727 9.40781 28.7625 9.40814 28.802C9.4083 28.8204 9.40778 28.8345 9.4068 28.8442C9.40663 28.8459 9.40604 28.8472 9.4059 28.8483C9.31336 29.0931 9.19263 29.3289 9.06683 29.5839C8.97438 29.7713 8.88606 29.995 8.8059 30.1736C8.72034 30.3642 8.63232 30.5322 8.52207 30.6694C8.50561 30.6899 8.45088 30.7282 8.33839 30.7821C8.27252 30.8137 8.17284 30.858 8.09139 30.898C8.07596 30.897 8.05876 30.8961 8.04019 30.8948C7.99705 30.8919 7.94746 30.8886 7.89783 30.8863C7.80993 30.8822 7.68463 30.8787 7.59379 30.9002C7.50164 30.9221 7.41684 30.9693 7.37553 30.9896C7.32516 31.0143 7.29488 31.0251 7.2628 31.0282C7.24182 31.0302 7.22677 31.027 7.16625 30.9999C7.11736 30.978 6.98769 30.9118 6.83077 30.9555C6.83825 30.9534 6.83562 30.9565 6.80203 30.9519C6.78084 30.9489 6.77392 30.9474 6.74365 30.9429C6.72053 30.9394 6.68979 30.9354 6.65652 30.9343C6.54853 30.9311 6.38317 30.9158 6.25458 30.9186C6.14129 30.9212 6.0211 30.9362 5.8971 30.9815C5.78568 30.9344 5.67876 30.9157 5.56881 30.9182C5.47839 30.9202 5.38744 30.9377 5.3016 30.9568L5.28049 30.9397L5.20818 30.8805L5.11477 30.889C4.97822 30.9013 4.65575 30.9097 4.31538 30.9281C4.15067 30.9369 3.98504 30.9484 3.84787 30.9635C3.77945 30.9711 3.71458 30.9796 3.6588 30.9905C3.61835 30.9984 3.56864 31.0104 3.52272 31.0291C3.32859 30.9915 3.15261 30.9863 3.00042 30.9793C2.82332 30.971 2.67226 30.9603 2.51001 30.9087L2.42737 30.8822L2.34788 30.9173C2.32805 30.926 2.31597 30.931 2.30746 30.9339C2.3061 30.9344 2.30485 30.9345 2.30387 30.9348C2.30127 30.9342 2.29648 30.9335 2.2895 30.9312C2.24175 30.9157 2.18286 30.9008 2.13142 30.8876C2.07624 30.8735 2.02237 30.8597 1.97154 30.8436C1.94439 30.8351 1.92 30.8265 1.89878 30.818C1.93203 30.7619 1.97786 30.6717 1.98232 30.5531C1.98172 30.569 1.97875 30.5608 1.99893 30.5176C2.01587 30.4813 2.04095 30.4368 2.07124 30.3887C2.13177 30.2925 2.20285 30.1979 2.24145 30.1507C2.38683 29.9726 2.52244 29.7732 2.64788 29.6019C2.77778 29.4245 2.90512 29.265 3.05207 29.1321L3.05252 29.1317C3.10643 29.0827 3.12398 29.0221 3.12841 29.0073C3.13345 28.9905 3.13589 28.9739 3.13829 28.9601L3.13964 28.9592C3.17269 28.9291 3.21626 28.8906 3.26135 28.8514C3.30625 28.8124 3.35189 28.7736 3.38844 28.7427C3.40671 28.7273 3.42257 28.7141 3.4347 28.7041C3.4464 28.6945 3.45199 28.6902 3.45311 28.6893L3.51958 28.6399L3.53934 28.56L3.56179 28.4701C3.60591 28.438 3.65835 28.3901 3.69248 28.3224L3.71314 28.2811L3.71628 28.2407C3.73028 28.2348 3.74499 28.2288 3.75805 28.2227C3.76696 28.2185 3.77888 28.2128 3.79083 28.2061C3.79673 28.2027 3.80606 28.1969 3.81643 28.1895C3.82232 28.1853 3.84808 28.1668 3.87122 28.1351L3.87167 28.1356C3.87252 28.1345 3.87621 28.13 3.88424 28.1207C3.89324 28.1103 3.90454 28.097 3.91838 28.0817C3.9548 28.0413 3.97112 28.0241 4.01403 27.9766C4.04722 27.9398 4.08227 27.9005 4.11014 27.8666C4.12384 27.8499 4.13841 27.8313 4.15101 27.8131C4.15727 27.8041 4.16511 27.7921 4.17256 27.7785C4.17807 27.7685 4.1927 27.7419 4.20041 27.7062L4.20086 27.704C4.2151 27.6354 4.244 27.5918 4.29921 27.5378C4.33123 27.5065 4.36551 27.4781 4.41373 27.4359C4.45903 27.3962 4.5117 27.3489 4.56463 27.2913C4.63563 27.2139 4.71538 27.0871 4.7748 26.9953C4.8078 26.9444 4.83745 26.8985 4.86462 26.8606C4.86668 26.8577 4.86897 26.8552 4.87091 26.8525C4.88883 26.8505 4.91649 26.8462 4.94636 26.8359C4.97313 26.8266 5.02711 26.8038 5.06986 26.7492L5.07031 26.7483C5.14213 26.6556 5.19895 26.5512 5.24366 26.4739C5.29173 26.3908 5.33101 26.3284 5.37794 26.2786C5.38217 26.2751 5.3891 26.2702 5.3986 26.2628C5.40867 26.2551 5.42013 26.2462 5.43318 26.2363C5.4459 26.2267 5.46006 26.2161 5.47405 26.2053C5.50086 26.1847 5.53315 26.1593 5.55983 26.1348C5.57263 26.1231 5.59037 26.106 5.60653 26.0859C5.61457 26.0759 5.6262 26.0595 5.63707 26.0387C5.64631 26.021 5.66591 25.9792 5.66537 25.9229C5.66545 25.9115 5.67483 25.8731 5.78258 25.781C5.80619 25.7608 5.83145 25.7405 5.85893 25.7185C5.88544 25.6973 5.91517 25.6736 5.94336 25.6498C5.99703 25.6046 6.06397 25.5439 6.11267 25.4697C6.25814 25.2479 6.36349 25.1006 6.54739 24.929C6.611 24.8697 6.66772 24.7872 6.70547 24.7332C6.75208 24.6666 6.78131 24.6265 6.80517 24.6034L6.80832 24.6003C7.0567 24.3518 7.2656 24.0752 7.464 23.8148C7.66556 23.5503 7.85718 23.3012 8.08151 23.0814L8.08376 23.0792L8.08645 23.0769C8.32367 22.8303 8.52965 22.5537 8.70576 22.2681C8.75649 22.1858 8.82789 22.1154 8.92447 22.0269C9.01436 21.9446 9.13226 21.8411 9.22671 21.7112C9.27 21.6517 9.29787 21.5925 9.31743 21.5464C9.3412 21.4903 9.34595 21.474 9.35919 21.4472L9.35964 21.4463L9.43554 21.4391L9.49347 21.3838C9.60933 21.2728 9.65417 21.1747 9.67581 21.1404C9.68744 21.122 9.7072 21.0877 9.83209 21.0147L9.89272 20.9792L9.92326 20.9163C9.98618 20.7866 10.048 20.7005 10.1182 20.6114C10.1881 20.5225 10.2779 20.4169 10.3719 20.2719L10.4411 20.1654L10.3876 20.05C10.3672 20.006 10.3344 19.9315 10.3009 19.8717L10.1757 19.6485L9.96727 19.7967C9.8706 19.8654 9.7943 19.9174 9.72521 19.9759C9.66519 20.0268 9.61253 20.0816 9.54871 20.1551C9.48867 20.1748 9.41535 20.1995 9.35605 20.2243L9.29946 20.2476L9.26219 20.2966C9.20757 20.3681 9.15046 20.4381 9.09333 20.5081C9.01393 20.5345 8.90525 20.5854 8.8324 20.7026L8.79917 20.756L8.79782 20.8032C8.78128 20.8111 8.76134 20.8211 8.73629 20.8319C8.68261 20.8551 8.5904 20.8921 8.51579 20.9464C8.42164 21.015 8.32958 21.1106 8.25576 21.1876C8.17504 21.2718 8.11373 21.3359 8.0613 21.3775C7.88596 21.5034 7.68381 21.6363 7.49813 21.7862C7.42195 21.8478 7.34835 21.9118 7.27852 21.9726C7.20764 22.0343 7.14061 22.0928 7.07239 22.1482C6.97603 22.2264 6.90415 22.2732 6.80652 22.4055C6.80481 22.4067 6.803 22.4084 6.80068 22.41C6.78325 22.4221 6.76022 22.4372 6.73197 22.4554C6.70562 22.4724 6.67467 22.4922 6.64799 22.5106C6.63455 22.5199 6.61984 22.5301 6.60622 22.5407C6.59997 22.5456 6.59214 22.5531 6.58287 22.5614L6.33677 22.7504C6.24864 22.8164 6.15403 22.8868 6.06192 22.9593C5.89856 23.0878 5.72918 23.2329 5.59665 23.3949C5.47812 23.4436 5.38338 23.5166 5.30654 23.5849C5.26044 23.6258 5.21605 23.6692 5.17765 23.7066L5.06717 23.8094C5.02356 23.8464 4.96757 23.8867 4.89965 23.937C4.83805 23.9826 4.7634 24.0384 4.70564 24.0955C4.56838 24.2311 4.51756 24.2945 4.43978 24.3614C4.37814 24.4143 4.30701 24.4608 4.16762 24.5149L4.09667 24.5423L4.05625 24.6066C3.95512 24.7671 3.88241 24.8207 3.81059 24.8643C3.73109 24.9127 3.58975 24.9781 3.43425 25.1235L3.3853 25.1693L3.36868 25.2335C3.37072 25.2257 3.36903 25.2378 3.34084 25.2708C3.31455 25.3015 3.27532 25.3387 3.22227 25.3822C3.11552 25.4697 2.97486 25.565 2.82168 25.6651C2.67319 25.7621 2.51119 25.8649 2.37932 25.9597C2.31278 26.0075 2.24851 26.0565 2.19429 26.1056C2.16489 26.1323 2.13434 26.163 2.10627 26.1968C1.95177 26.251 1.81059 26.3171 1.68277 26.3805C1.5293 26.4567 1.401 26.5237 1.2696 26.575C1.03717 26.6656 0.8192 26.6958 0.53757 26.5714C0.482331 26.5012 0.417395 26.4235 0.364667 26.3594C0.289273 26.2676 0.239547 26.2006 0.21916 26.1591C0.222606 26.1661 0.218711 26.162 0.216465 26.1299C0.214037 26.095 0.214781 26.0649 0.21377 26.0073C0.212823 25.9533 0.210882 25.8617 0.177394 25.7675L0.19401 25.7432L0.190417 25.6687C0.188793 25.6342 0.180409 25.5893 0.17425 25.5569C0.166964 25.5185 0.157553 25.4728 0.148202 25.428C0.128418 25.3331 0.110058 25.2454 0.103292 25.1962C0.0905699 25.1034 0.0989948 25.0013 0.113173 24.8837C0.125528 24.7811 0.147395 24.6386 0.137873 24.5199C0.132527 24.4535 0.121015 24.3742 0.110478 24.3003C0.0994492 24.2229 0.0885356 24.1445 0.0817357 24.0672C0.0670916 23.9006 0.0771175 23.788 0.105987 23.729L0.143711 23.6522L0.121705 23.5696C0.106042 23.5097 0.0887151 23.4448 0.0696101 23.3783L0.0938614 23.3199L0.128891 23.2332L0.0938614 23.1465C0.0470132 23.031 0.047272 22.9723 0.0547899 22.9157C0.059805 22.878 0.0684986 22.8406 0.0817357 22.7792C0.0942854 22.7209 0.108503 22.65 0.118562 22.5641L0.135178 22.3638C0.139095 22.2963 0.141707 22.2288 0.144609 22.1639C0.150588 22.0302 0.157437 21.9032 0.173801 21.7822C0.206729 21.5388 0.274458 21.3558 0.415864 21.2311C0.481616 21.1732 0.581993 21.1179 0.71137 21.0564C0.828074 21.001 0.98087 20.9353 1.09894 20.8683C1.24847 20.7834 1.32607 20.7537 1.4425 20.7636H1.44385L1.50852 20.769L1.64819 20.7802L1.72229 20.6612C1.7349 20.641 1.74516 20.6253 1.75373 20.6118L1.75462 20.6123L1.83861 20.6329L1.91495 20.5934C2.425 20.33 2.95814 20.1132 3.50745 19.9454L3.59817 19.9175L3.63634 19.8461C3.64882 19.8463 3.66144 19.8467 3.67272 19.8466C3.68086 19.8465 3.69276 19.8462 3.70461 19.8452C3.70999 19.8448 3.72093 19.8441 3.7338 19.8416C3.7401 19.8404 3.75194 19.8379 3.76613 19.8331C3.77507 19.8301 3.81084 19.818 3.84607 19.7868L3.85326 19.7806L3.85999 19.7738C3.92206 19.709 3.98119 19.6818 4.06254 19.6606C4.10936 19.6485 4.15602 19.6402 4.22152 19.627C4.28328 19.6145 4.35509 19.5985 4.43259 19.5735C4.66275 19.4994 4.91277 19.3518 5.08289 19.2695L5.14351 19.2466C5.16851 19.2389 5.19893 19.2312 5.23603 19.2219C5.29968 19.206 5.39072 19.1848 5.46956 19.1532L5.47225 19.1518C5.5662 19.1126 5.65503 19.0614 5.72824 19.0198C5.80645 18.9754 5.86978 18.9403 5.93168 18.9156C6.07875 18.8569 6.23336 18.8061 6.39919 18.749C6.5615 18.693 6.73218 18.6319 6.89365 18.5563C7.23488 18.3967 7.44608 18.2541 7.75591 18.1616C7.84422 18.1352 7.9243 18.1032 7.95621 18.0924C7.99318 18.0799 8.03291 18.0689 8.1134 18.0605L8.17537 18.0542L8.22567 18.017C8.29847 17.9635 8.33063 17.9376 8.37118 17.9199C8.44643 17.8872 8.76312 17.7754 9.09872 17.6451C9.25966 17.5826 9.42112 17.5174 9.54512 17.4601C9.60616 17.4319 9.66428 17.4028 9.71039 17.3747C9.73291 17.361 9.75987 17.3433 9.78404 17.3222C9.7975 17.3104 9.85636 17.2598 9.87476 17.1744L9.90619 17.0285L9.78539 16.9405C9.68545 16.8674 9.56448 16.8519 9.47775 16.8489C9.38431 16.8456 9.28563 16.8558 9.20021 16.8677C9.12038 16.8789 9.02303 16.8961 8.96758 16.9045C8.93526 16.9095 8.91048 16.9125 8.89213 16.914C8.88026 16.9149 8.87507 16.9149 8.87507 16.9149L8.88405 16.9162C8.69379 16.8835 8.57283 16.8867 8.45516 16.9072C8.33117 16.9289 8.29465 16.9475 8.15561 16.962L8.05322 16.9728L7.99304 17.0568C7.98994 17.0611 7.98688 17.0647 7.9845 17.068C7.95448 17.0673 7.93037 17.0658 7.90951 17.0635C7.88706 17.0611 7.83145 17.053 7.78645 17.0532C7.68502 17.0536 7.60244 17.0884 7.5161 17.1426C7.46489 17.1329 7.40903 17.1216 7.35846 17.1152L7.24933 17.1012L7.16984 17.1776C7.15655 17.1904 7.14443 17.2007 7.13436 17.2104L7.13257 17.209L7.04409 17.1367L6.93317 17.1637C6.88551 17.1752 6.8405 17.1856 6.79619 17.2018C6.77018 17.2114 6.7459 17.2222 6.72119 17.2346C6.64814 17.2299 6.58513 17.2252 6.51236 17.2153L6.37314 17.1965L6.29275 17.3114C6.28907 17.3167 6.28526 17.3215 6.28198 17.3262C6.18191 17.2959 6.0918 17.2878 5.99455 17.3186C5.87949 17.3551 5.89237 17.3755 5.73947 17.3967C5.69956 17.4023 5.65703 17.3953 5.55354 17.3869C5.47388 17.3804 5.34317 17.3724 5.21806 17.4264L5.12196 17.4632C5.1155 17.4654 5.10891 17.4659 5.1031 17.4677C5.07906 17.4608 5.05061 17.4548 5.01732 17.4533L4.95938 17.4506L4.90729 17.4758C4.87343 17.4921 4.84062 17.5117 4.81792 17.5252C4.79182 17.5407 4.77468 17.5513 4.75864 17.5593C4.75745 17.5599 4.75612 17.5601 4.75504 17.5607L4.75415 17.5602C4.74103 17.5545 4.71463 17.5424 4.68588 17.5333C4.62095 17.5127 4.527 17.5002 4.42586 17.549C4.38725 17.5664 4.35687 17.5898 4.33514 17.6083C4.32454 17.6056 4.31352 17.6022 4.30146 17.6006C4.2648 17.5959 4.2316 17.5987 4.20535 17.6024L4.12541 17.6137L4.07017 17.6725L4.04772 17.6958C3.91916 17.6969 3.78892 17.6985 3.68979 17.6882L3.60985 17.6797L3.54248 17.7232C3.53174 17.7301 3.5213 17.7355 3.51239 17.7412C3.45746 17.7251 3.4026 17.7089 3.34757 17.6936L3.27796 17.6743L3.2097 17.6981C3.15806 17.7162 3.01447 17.7764 2.88366 17.8333C2.79716 17.8709 2.70098 17.9149 2.63216 17.9478C2.55034 17.9387 2.47472 17.9314 2.41076 17.9253C2.32492 17.9172 2.24599 17.9073 2.15746 17.8858L2.0645 17.8634L1.98321 17.9132C1.82414 18.0108 1.78313 18.0298 1.74834 18.0363C1.71306 18.0428 1.66788 18.0393 1.48382 18.0066L1.39894 17.9918L1.32484 18.0363C1.2955 18.0539 1.26552 18.0706 1.23592 18.0879C1.19578 18.0695 1.13914 18.05 1.07244 18.0502H1.02619L0.983973 18.0682L0.946248 18.0839L0.924243 18.0933L0.904482 18.1068C0.894921 18.1134 0.866342 18.1289 0.818256 18.1449C0.772809 18.1601 0.720541 18.1723 0.670053 18.1786C0.661119 18.1797 0.652242 18.1793 0.644006 18.18L0.64715 18.1449L0.551941 18.0677C0.446563 17.9825 0.358114 17.9533 0.291464 17.9231C0.188165 17.8763 0.124313 17.8222 0.0615264 17.7318L0.0785921 17.7035L0.121705 17.6298L0.106885 17.5463C0.0915139 17.4606 0.0742629 17.3915 0.0440116 17.3213C0.0311055 17.2914 0.0160135 17.263 0 17.2346C0.0220195 17.1643 0.0338185 17.0941 0.0381733 17.0298C0.0455684 16.9206 0.0388178 16.8033 0.0327841 16.7006C0.0193198 16.4716 0.0129705 16.3113 0.0601791 16.199L0.103292 16.0971L0.101496 16.0944L0.103292 16.0917L0.0601791 15.9897C0.0129705 15.8775 0.0193198 15.7171 0.0327841 15.4881C0.0388178 15.3855 0.0455684 15.2682 0.0381733 15.1589C0.03381 15.0945 0.0221106 15.0241 0 14.9537C0.0159391 14.9254 0.0311573 14.8972 0.0440116 14.8674C0.0742629 14.7973 0.0915139 14.7281 0.106885 14.6424L0.121705 14.5589L0.0785921 14.4853L0.0615264 14.4565C0.124245 14.3663 0.18828 14.3124 0.291464 14.2656C0.358114 14.2355 0.446563 14.2062 0.551941 14.121L0.64715 14.0438L0.644006 14.0083C0.652253 14.009 0.661105 14.009 0.670053 14.0101C0.720541 14.0164 0.772809 14.0286 0.818256 14.0438C0.866342 14.0598 0.894921 14.0753 0.904482 14.082L0.924243 14.0954L0.946248 14.1049L0.983973 14.1206L1.02619 14.1385H1.07244C1.13923 14.1388 1.19577 14.1188 1.23592 14.1004C1.26558 14.1177 1.29543 14.1348 1.32484 14.1525L1.39894 14.1969L1.48382 14.1821C1.66788 14.1495 1.71306 14.1459 1.74834 14.1525C1.78313 14.159 1.82414 14.178 1.98321 14.2755L2.0645 14.3254L2.15746 14.3029C2.24599 14.2814 2.32492 14.2716 2.41076 14.2634C2.47473 14.2573 2.55032 14.2496 2.63216 14.2405C2.70099 14.2734 2.79709 14.3178 2.88366 14.3555C3.01447 14.4124 3.15806 14.4725 3.2097 14.4906L3.27796 14.5144L3.34757 14.4951C3.40264 14.4798 3.45742 14.4632 3.51239 14.4471C3.52136 14.4529 3.53166 14.4586 3.54248 14.4655L3.60985 14.5091L3.68979 14.5005C3.78892 14.4902 3.91916 14.4913 4.04772 14.4924L4.07017 14.5162L4.12541 14.5751L4.20535 14.5863C4.2316 14.59 4.2648 14.5928 4.30146 14.5881C4.31356 14.5865 4.32451 14.5827 4.33514 14.58C4.35417 14.5962 4.3798 14.6162 4.41193 14.6326L4.41373 14.6335C4.41769 14.6354 4.42172 14.6379 4.42586 14.6397V14.6388C4.52707 14.6877 4.62091 14.676 4.68588 14.6555C4.71463 14.6464 4.74103 14.6342 4.75415 14.6285L4.75504 14.6276C4.75618 14.6282 4.75738 14.6288 4.75864 14.6294C4.77468 14.6374 4.79182 14.648 4.81792 14.6635C4.84062 14.6771 4.87343 14.6966 4.90729 14.7129L4.95938 14.7381L5.01732 14.7354C5.05067 14.7339 5.07903 14.7275 5.1031 14.7206C5.13263 14.7296 5.17082 14.7422 5.21806 14.7619C5.34322 14.816 5.47384 14.8083 5.55354 14.8019C5.65703 14.7935 5.69956 14.7865 5.73947 14.792C5.89237 14.8132 5.87949 14.8337 5.99455 14.8701C6.09184 14.9009 6.18186 14.8924 6.28198 14.862C6.28532 14.8668 6.289 14.8719 6.29275 14.8773L6.37314 14.9923L6.51236 14.9734C6.58514 14.9635 6.64813 14.9584 6.72119 14.9537C6.74596 14.9661 6.77011 14.9773 6.79619 14.9869C6.8405 15.0032 6.88551 15.0136 6.93317 15.0251L7.04409 15.052L7.13257 14.9797L7.13436 14.9779C7.14449 14.9876 7.15645 14.9982 7.16984 15.0111L7.24933 15.0875L7.35846 15.0736C7.40906 15.0671 7.46487 15.0554 7.5161 15.0457C7.60251 15.1 7.68494 15.1351 7.78645 15.1355C7.83145 15.1357 7.88706 15.1277 7.90951 15.1252C7.93037 15.123 7.95447 15.121 7.9845 15.1203C7.98693 15.1237 7.98985 15.1275 7.99304 15.132L8.05322 15.2159L8.15561 15.2267C8.29465 15.2413 8.33117 15.2598 8.45516 15.2815C8.57283 15.3021 8.69379 15.3052 8.88405 15.2725L8.87507 15.2739C8.87507 15.2739 8.88026 15.2738 8.89213 15.2748C8.91048 15.2762 8.93526 15.2793 8.96758 15.2842C9.02303 15.2926 9.12038 15.3098 9.20021 15.321C9.28563 15.333 9.38431 15.3432 9.47775 15.3399C9.56448 15.3368 9.68545 15.3213 9.78539 15.2483L9.90619 15.1602L9.87476 15.0143C9.85636 14.9289 9.7975 14.8783 9.78404 14.8665C9.75987 14.8454 9.73291 14.8277 9.71039 14.814C9.66428 14.7859 9.60616 14.7569 9.54512 14.7287C9.42112 14.6713 9.25966 14.6061 9.09872 14.5436C8.76312 14.4134 8.44643 14.3015 8.37118 14.2688C8.33063 14.2511 8.29847 14.2253 8.22567 14.1718L8.17537 14.1345L8.1134 14.1282L8.01864 14.1138C7.99401 14.1085 7.97473 14.1026 7.95621 14.0963C7.9243 14.0855 7.84422 14.0535 7.75591 14.0272C7.44608 13.9347 7.23488 13.7921 6.89365 13.6324C6.73218 13.5569 6.5615 13.4957 6.39919 13.4398C6.23336 13.3826 6.07875 13.3319 5.93168 13.2731C5.86978 13.2484 5.80645 13.2134 5.72824 13.1689C5.65503 13.1274 5.5662 13.0761 5.47225 13.0369L5.46956 13.0356L5.40848 13.014C5.3467 12.994 5.28376 12.9788 5.23603 12.9669C5.16192 12.9483 5.11469 12.9347 5.08289 12.9192L4.78019 12.7639C4.66773 12.7074 4.54765 12.6523 4.43259 12.6152C4.35509 12.5903 4.28328 12.5743 4.22152 12.5618C4.15602 12.5485 4.10936 12.5402 4.06254 12.5281C3.98119 12.507 3.92206 12.4797 3.85999 12.4149L3.85326 12.4082L3.84607 12.4019L3.82002 12.3821C3.79463 12.3654 3.77285 12.3579 3.76613 12.3556C3.75194 12.3509 3.7401 12.3483 3.7338 12.3471C3.72093 12.3447 3.70999 12.3439 3.70461 12.3435C3.69276 12.3426 3.68086 12.3423 3.67272 12.3422C3.66144 12.342 3.64882 12.342 3.63634 12.3422L3.59817 12.2712L3.50745 12.2434C2.95814 12.0755 2.425 11.8587 1.91495 11.5953L1.83861 11.5558L1.75462 11.5764H1.75373C1.74521 11.5631 1.7348 11.5476 1.72229 11.5275L1.64819 11.4085L1.50852 11.4197L1.44385 11.4251H1.4425C1.32607 11.4351 1.24847 11.4054 1.09894 11.3205C0.98087 11.2535 0.828074 11.1877 0.71137 11.1323C0.581993 11.0708 0.481616 11.0155 0.415864 10.9576C0.274458 10.8329 0.206729 10.6499 0.173801 10.4065C0.157437 10.2855 0.150588 10.1585 0.144609 10.0248C0.138804 9.89499 0.133588 9.75495 0.118562 9.62467L0.101047 9.50656C0.0946331 9.47092 0.0880044 9.43865 0.0817357 9.40955C0.0684987 9.3481 0.059805 9.31074 0.0547899 9.27302C0.0472722 9.21642 0.0470134 9.15775 0.0938614 9.04219L0.128891 8.95551L0.0938614 8.86884L0.0696101 8.81C0.0886643 8.74363 0.106074 8.67892 0.121705 8.61914L0.143711 8.5365L0.105987 8.45971C0.0771175 8.40076 0.0670916 8.28818 0.0817357 8.12154C0.0885356 8.04423 0.0994492 7.96585 0.110478 7.88846C0.121015 7.81451 0.132527 7.73519 0.137873 7.66885C0.147395 7.55018 0.125528 7.40761 0.113173 7.30508C0.0989948 7.18741 0.0905697 7.08531 0.103292 6.99251C0.110058 6.94329 0.128418 6.85566 0.148202 6.76077C0.157553 6.71592 0.166964 6.67024 0.17425 6.63188C0.180409 6.59945 0.188793 6.55455 0.190417 6.52006L0.19401 6.44551L0.177394 6.42081C0.210745 6.32675 0.212824 6.23537 0.21377 6.18144C0.214781 6.12382 0.214037 6.09378 0.216465 6.05883C0.218711 6.02672 0.222606 6.02262 0.21916 6.02964C0.239547 5.98817 0.289273 5.92109 0.364667 5.82934C0.417464 5.7651 0.482286 5.68716 0.53757 5.61692C0.81912 5.49257 1.03722 5.52319 1.2696 5.61378C1.401 5.66502 1.5293 5.73207 1.68277 5.80824C1.81055 5.87166 1.95182 5.93733 2.10627 5.99147C2.1344 6.02536 2.16481 6.05636 2.19429 6.08308C2.24851 6.13223 2.31278 6.18123 2.37932 6.22904C2.51119 6.3238 2.67319 6.42666 2.82168 6.52365C2.97486 6.62369 3.11552 6.71907 3.22227 6.80658C3.27532 6.85007 3.31455 6.88722 3.34084 6.91796C3.36903 6.95096 3.37072 6.96299 3.36868 6.95523L3.3853 7.01945L3.43425 7.06526C3.58975 7.21063 3.73109 7.27606 3.81059 7.32439C3.88241 7.36807 3.95512 7.42163 4.05625 7.58217L4.09667 7.64639L4.16762 7.67379C4.30701 7.72794 4.37814 7.77444 4.43978 7.82738C4.51757 7.8942 4.56838 7.95761 4.70564 8.09325C4.7634 8.15033 4.83805 8.20618 4.89965 8.25178C4.96757 8.30203 5.02356 8.3423 5.06717 8.37932L5.17765 8.48216C5.21605 8.51951 5.26044 8.56294 5.30654 8.60387C5.38335 8.67207 5.4782 8.74473 5.59665 8.79339C5.72921 8.95551 5.89847 9.10089 6.06192 9.22946C6.15403 9.30191 6.24864 9.37237 6.33677 9.43829C6.42594 9.505 6.50865 9.56676 6.58287 9.62691C6.59223 9.6353 6.59992 9.6431 6.60622 9.64802C6.61984 9.65865 6.63455 9.66883 6.64799 9.67811C6.67467 9.69652 6.70562 9.71637 6.73197 9.73335C6.76022 9.75155 6.78325 9.76664 6.80068 9.77871C6.80291 9.78025 6.80486 9.78157 6.80652 9.78275C6.90426 9.91531 6.97596 9.96228 7.07239 10.0405C7.14061 10.0959 7.20764 10.1544 7.27852 10.2161C7.34835 10.2769 7.42195 10.341 7.49813 10.4025C7.68373 10.5524 7.88601 10.6849 8.0613 10.8107C8.11378 10.8524 8.17493 10.9168 8.25576 11.0012C8.32958 11.0781 8.42164 11.1737 8.51579 11.2423C8.5904 11.2966 8.68261 11.3336 8.73629 11.3568C8.76125 11.3676 8.78132 11.3772 8.79782 11.3851L8.79917 11.4327L8.8324 11.4862C8.90521 11.6033 9.01394 11.6538 9.09333 11.6802C9.15054 11.7502 9.2075 11.8205 9.26219 11.8922L9.29946 11.9411L9.35605 11.9645C9.4153 11.9892 9.48869 12.0135 9.54871 12.0332C9.61263 12.1068 9.66512 12.1619 9.72521 12.2128C9.7943 12.2714 9.8706 12.3234 9.96727 12.392L10.1757 12.5402L10.3009 12.317C10.3344 12.2572 10.3672 12.1827 10.3876 12.1387L10.4411 12.0233L10.3719 11.9169C10.2779 11.7718 10.1881 11.6663 10.1182 11.5773C10.048 11.4882 9.98618 11.4021 9.92326 11.2724L9.89272 11.2095L9.83209 11.1741C9.7072 11.1011 9.68744 11.0667 9.67581 11.0483C9.65417 11.014 9.60934 10.9159 9.49347 10.8049L9.43554 10.7497L9.35964 10.742L9.35919 10.7416C9.34595 10.7147 9.3412 10.6984 9.31743 10.6423C9.29787 10.5962 9.27 10.5371 9.22671 10.4775C9.13226 10.3476 9.01436 10.2442 8.92447 10.1618C8.82789 10.0733 8.75649 10.0029 8.70576 9.92062C8.52965 9.635 8.32367 9.3584 8.08645 9.1118L8.08376 9.10955L8.08151 9.10731L7.99888 9.02333C7.8092 8.82481 7.64037 8.60539 7.464 8.37393C7.2656 8.11355 7.0567 7.83695 6.80832 7.58846L6.80517 7.58532C6.78131 7.56228 6.75208 7.52212 6.70547 7.45553C6.66772 7.40157 6.611 7.31904 6.54739 7.25972C6.36349 7.08818 6.25814 6.94085 6.11267 6.71901C6.06397 6.64483 5.99703 6.58414 5.94336 6.53892C5.91517 6.51517 5.88544 6.49145 5.85893 6.47021C5.83145 6.44818 5.80619 6.42797 5.78258 6.40778C5.67369 6.31467 5.66527 6.27628 5.66537 6.26542C5.66585 6.20924 5.6463 6.16768 5.63707 6.15C5.6262 6.12918 5.61457 6.11284 5.60653 6.10285C5.59037 6.08275 5.57263 6.06563 5.55983 6.05389C5.53315 6.02945 5.50086 6.00407 5.47405 5.98339C5.46006 5.9726 5.4459 5.96203 5.43318 5.9524C5.42013 5.94251 5.40867 5.93366 5.3986 5.9259C5.38893 5.91845 5.38216 5.91322 5.37794 5.90973C5.33111 5.85991 5.29166 5.79781 5.24366 5.71482C5.19895 5.63751 5.14213 5.53314 5.07031 5.44043L5.06986 5.43953L5.03618 5.40405C5.0018 5.37422 4.96643 5.35981 4.94636 5.35285C4.9166 5.34255 4.88928 5.33824 4.87136 5.33624L4.87091 5.33579C4.86904 5.33322 4.86661 5.33092 4.86462 5.32815C4.83745 5.2902 4.8078 5.24436 4.7748 5.19342C4.71538 5.10168 4.63563 4.97481 4.56463 4.89747C4.5117 4.83981 4.45903 4.79251 4.41373 4.75286C4.36551 4.71066 4.33123 4.68225 4.29921 4.65091C4.244 4.59689 4.2151 4.55335 4.20086 4.48475L4.20041 4.4825L4.18559 4.43669C4.18035 4.42432 4.17532 4.41519 4.17256 4.4102C4.16511 4.39667 4.15727 4.38464 4.15101 4.37562C4.13841 4.35747 4.12384 4.33885 4.11014 4.32217C4.08227 4.28826 4.04722 4.24891 4.01403 4.21214C3.97112 4.1646 3.9548 4.14746 3.91838 4.10706C3.90454 4.09171 3.89324 4.0784 3.88424 4.06798C3.87621 4.05869 3.87207 4.05422 3.87122 4.05316C3.84813 4.02164 3.8223 4.00346 3.81643 3.99927C3.80606 3.99187 3.79673 3.98599 3.79083 3.98266C3.77888 3.9759 3.76696 3.97019 3.75805 3.96604C3.74494 3.95995 3.73033 3.95346 3.71628 3.94763L3.71314 3.90766L3.69248 3.86634C3.65829 3.79848 3.60595 3.75026 3.56179 3.71814L3.53934 3.62877L3.51958 3.54883L3.45311 3.49943C3.45199 3.49854 3.4464 3.49423 3.4347 3.48461C3.42257 3.47463 3.40671 3.46139 3.38844 3.44598C3.35189 3.41516 3.30625 3.3763 3.26135 3.3373C3.21626 3.29815 3.17269 3.25965 3.13964 3.22952L3.13829 3.22817C3.13589 3.21445 3.13339 3.19809 3.12841 3.18147C3.12398 3.16665 3.10643 3.10601 3.05252 3.05707L3.05207 3.05662C2.90512 2.92372 2.77778 2.76423 2.64788 2.58686C2.52244 2.41558 2.38683 2.21613 2.24145 2.03806C2.20285 1.99079 2.13177 1.89621 2.07124 1.80004C2.04095 1.75192 2.01587 1.70745 1.99893 1.67115C1.97875 1.6279 1.98172 1.61972 1.98232 1.63567C1.97785 1.5168 1.93205 1.42636 1.89878 1.37026C1.91996 1.36182 1.94446 1.35365 1.97154 1.34511C2.02237 1.32908 2.07624 1.31523 2.13142 1.30109C2.18286 1.28791 2.24175 1.27308 2.2895 1.25753C2.29656 1.25523 2.30128 1.25404 2.30387 1.25349C2.30488 1.2538 2.30604 1.25435 2.30746 1.25484C2.31597 1.25777 2.32805 1.26272 2.34788 1.27145L2.42737 1.30648L2.51001 1.27999C2.67226 1.2284 2.82332 1.21769 3.00042 1.20948C3.15263 1.20242 3.32855 1.19681 3.52272 1.15918C3.56868 1.17795 3.6183 1.19037 3.6588 1.19825C3.71458 1.2091 3.77945 1.21808 3.84787 1.22565C3.98503 1.2408 4.15069 1.2518 4.31538 1.26068C4.65575 1.27903 4.97822 1.28747 5.11477 1.29975L5.20818 1.30828L5.28049 1.249L5.3016 1.23148C5.38746 1.25062 5.47836 1.26851 5.56881 1.27056C5.67882 1.27301 5.78562 1.2539 5.8971 1.20678C6.02116 1.25211 6.14125 1.26757 6.25458 1.27011C6.38317 1.27298 6.54853 1.25764 6.65652 1.25439C6.68979 1.25338 6.72053 1.24934 6.74365 1.24586C6.77392 1.24129 6.78084 1.23983 6.80203 1.23687C6.83562 1.2322 6.83825 1.23533 6.83077 1.23328C6.98769 1.27694 7.11736 1.21069 7.16625 1.18882C7.22677 1.16175 7.24182 1.1585 7.2628 1.16053C7.29488 1.16367 7.32516 1.1744 7.37553 1.19915C7.41684 1.21946 7.50164 1.26659 7.59379 1.28852C7.68463 1.31008 7.80993 1.30656 7.89783 1.30244C7.94746 1.30012 7.99705 1.29685 8.04019 1.29391C8.05878 1.29264 8.07595 1.29133 8.09139 1.29032C8.17287 1.33029 8.27247 1.37505 8.33839 1.40663C8.45088 1.46053 8.50561 1.49888 8.52207 1.51936C8.63232 1.65652 8.72034 1.82456 8.8059 2.01516C8.88606 2.19373 8.97438 2.41741 9.06683 2.60482C9.19256 2.85974 9.31338 3.09531 9.4059 3.34C9.40606 3.34112 9.4066 3.34258 9.4068 3.34449C9.40778 3.35422 9.4083 3.36835 9.40814 3.3867C9.40781 3.42619 9.40456 3.46178 9.40231 3.50392L9.39332 3.67278L9.53614 3.72577L9.5056 3.79897L9.57027 3.90047C9.67424 4.06323 9.7392 4.18784 9.79527 4.36035C9.84599 4.51629 9.92465 4.62978 9.99556 4.72861C10.0216 5.07903 10.1829 5.34498 10.3176 5.58279L10.3045 5.61198L10.3135 5.6789C10.3244 5.75956 10.3636 5.81677 10.3908 5.85C10.4042 5.86642 10.4181 5.88066 10.4276 5.89042C10.4391 5.90227 10.4444 5.90758 10.4518 5.91557C10.4718 5.93686 10.4752 5.94404 10.4774 5.96138C10.4872 6.038 10.5183 6.13562 10.5421 6.20838C10.5702 6.29394 10.5935 6.36061 10.6068 6.40868C10.6239 6.47002 10.6569 6.52094 10.6975 6.56182C10.6956 6.60135 10.698 6.65729 10.715 6.71541L10.7146 6.71586C10.7165 6.72407 10.7198 6.73167 10.7222 6.73922C10.7237 6.74331 10.7245 6.74725 10.7262 6.75134C10.7346 6.77424 10.7437 6.79323 10.7505 6.80568C10.7621 6.82695 10.7752 6.84752 10.7873 6.86541C10.8114 6.90088 10.8406 6.93936 10.8646 6.97095C10.8894 7.00376 10.9088 7.02975 10.9229 7.05044C10.942 7.23049 10.9965 7.37854 11.0599 7.51077C11.0935 7.58069 11.1306 7.64842 11.1646 7.71106L11.2629 7.90058C11.3141 8.01168 11.3554 8.14457 11.4039 8.29758C11.4502 8.44354 11.5032 8.60942 11.5759 8.75297C11.8141 9.22306 12.0254 9.6493 12.1508 10.133C12.1599 10.1682 12.175 10.1964 12.1813 10.2076C12.1898 10.2226 12.1993 10.2369 12.2074 10.2489C12.2234 10.2727 12.2433 10.3002 12.2599 10.323C12.2713 10.3387 12.2817 10.3534 12.2913 10.367C12.2907 10.3704 12.2902 10.3739 12.2896 10.3774L12.2675 10.4928L12.3484 10.5781L12.3753 10.6064L12.4476 10.6827L12.5527 10.6778C12.602 10.6755 12.6485 10.6631 12.6901 10.641C12.7123 10.6292 12.7303 10.6155 12.7454 10.6028C12.7973 10.595 12.8417 10.5898 12.8963 10.5835C12.9728 10.5747 13.0556 10.5628 13.1689 10.5318L13.375 10.4757L13.3342 10.266C13.3182 10.1844 13.3238 10.1329 13.3171 10.0019C13.3142 9.94661 13.293 9.79432 13.2726 9.66284C13.2619 9.59374 13.2506 9.52426 13.2403 9.46793C13.2352 9.43994 13.2299 9.41366 13.225 9.39159L13.2039 9.31704L13.1828 9.27392C13.1616 9.23796 13.1365 9.21185 13.1204 9.19578C13.1208 9.19044 13.1206 9.1843 13.1213 9.17782C13.1245 9.14488 13.1284 9.1177 13.133 9.07857C13.135 9.06135 13.1371 9.04215 13.1383 9.02333C13.1395 9.00564 13.1407 8.98118 13.1388 8.95551C13.1283 8.81892 13.0886 8.68727 13.0544 8.57917C13.0174 8.46246 12.987 8.37283 12.9713 8.28501C12.9636 8.24189 12.9623 8.19341 12.9623 8.12603C12.9623 8.0648 12.9633 7.98112 12.9533 7.89834C12.9287 7.69339 12.8708 7.45777 12.8401 7.28622C12.8349 7.25667 12.8326 7.2261 12.8276 7.17349C12.8254 7.15086 12.8226 7.12367 12.8181 7.09445L12.7988 7.00239L12.784 6.96152C12.7681 6.92383 12.7494 6.89643 12.7382 6.88023C12.7382 6.88023 12.7305 6.86743 12.7202 6.83173C12.7102 6.7969 12.7006 6.75126 12.6915 6.69386C12.6731 6.5772 12.6603 6.43756 12.6434 6.27799C12.6271 6.12316 12.6074 5.95366 12.5756 5.79476C12.5514 5.67349 12.5175 5.54828 12.4678 5.43504L12.4885 5.37261L12.5123 5.29986L12.4876 5.22755C12.3892 4.93997 12.3483 4.70461 12.3071 4.38954C12.3005 4.33958 12.2832 4.28314 12.2693 4.24044C12.2544 4.19435 12.2351 4.14021 12.2195 4.09448C12.2028 4.04566 12.1889 4.00289 12.1795 3.96784C12.1737 3.94617 12.1718 3.93412 12.171 3.92966C12.1728 3.9064 12.176 3.8897 12.18 3.87308C12.1824 3.86303 12.1957 3.81432 12.1993 3.76978C12.2086 3.65292 12.1609 3.5572 12.1 3.46215C12.0984 3.45708 12.0937 3.44086 12.0893 3.40871C12.0839 3.36962 12.0809 3.3211 12.0803 3.26724C12.079 3.15973 12.0869 3.04744 12.0928 2.97713L12.105 2.83297L11.9801 2.75976L11.95 2.7418C11.9522 2.50704 11.9016 2.28602 11.8692 2.10049L11.8562 2.02594L11.8014 1.97384C11.8001 1.97259 11.7991 1.97104 11.7978 1.9698C11.8027 1.95654 11.8081 1.94319 11.8117 1.92893C11.8197 1.8974 11.8224 1.86534 11.8238 1.83462C11.9997 1.69285 12.2516 1.50366 12.4467 1.35094C12.5431 1.3712 12.6332 1.36088 12.7009 1.3478C12.7497 1.33837 12.7988 1.32525 12.8366 1.31547C12.8776 1.30482 12.9088 1.29719 12.9372 1.29256C12.9543 1.28976 12.9659 1.28918 12.9731 1.28897C12.9802 1.29448 12.9938 1.30496 13.0095 1.31502C13.052 1.34233 13.1077 1.36651 13.1797 1.37026L13.247 1.3734L13.3054 1.34017L13.3247 1.32939L13.3256 1.32894C13.3256 1.32894 13.3275 1.32783 13.3288 1.32714C13.3311 1.32586 13.3344 1.32403 13.3377 1.3222C13.3411 1.32038 13.3452 1.31785 13.3494 1.31547C13.3512 1.31444 13.3543 1.3121 13.3584 1.30963C13.3783 1.30839 13.4044 1.30745 13.4357 1.30648C13.5111 1.30416 13.6087 1.30281 13.7069 1.30289C13.8051 1.30297 13.9018 1.30441 13.975 1.30648C14.0043 1.30731 14.0287 1.3082 14.0473 1.30918C14.065 1.31738 14.0803 1.32311 14.0922 1.32624C14.1027 1.32899 14.1145 1.33127 14.1205 1.33253C14.1842 1.34588 14.2428 1.33559 14.2903 1.31412C14.3105 1.30498 14.3262 1.29487 14.3356 1.28852C14.3392 1.28613 14.3427 1.28318 14.346 1.28089C14.4586 1.27199 14.6936 1.26456 14.9051 1.27729L14.919 1.27819L14.9329 1.27729C15.1442 1.26458 15.3788 1.27201 15.4916 1.28089C15.4949 1.28323 15.4987 1.28606 15.5024 1.28852C15.5119 1.29487 15.5275 1.30498 15.5478 1.31412C15.5953 1.33559 15.6538 1.34588 15.7175 1.33253C15.7235 1.33127 15.7353 1.32899 15.7458 1.32624C15.7577 1.32313 15.7727 1.31727 15.7903 1.30918C15.809 1.30819 15.8335 1.30732 15.863 1.30648C15.9362 1.30441 16.033 1.30297 16.1311 1.30289C16.2293 1.30281 16.3269 1.30416 16.4024 1.30648C16.4334 1.30744 16.4593 1.3084 16.4792 1.30963C16.4834 1.3122 16.4868 1.31442 16.4886 1.31547C16.4928 1.31785 16.497 1.32038 16.5003 1.3222C16.5036 1.32403 16.5069 1.32586 16.5093 1.32714C16.5106 1.32783 16.5124 1.32894 16.5124 1.32894L16.5133 1.32939L16.5326 1.34017L16.591 1.3734L16.6584 1.37026C16.7303 1.36651 16.786 1.34233 16.8286 1.31502C16.844 1.30509 16.8573 1.29453 16.8645 1.28897C16.8716 1.28916 16.8834 1.2897 16.9009 1.29256C16.9292 1.29719 16.9604 1.30482 17.0015 1.31547C17.0392 1.32525 17.0883 1.33837 17.1371 1.3478C17.2047 1.36086 17.2947 1.37107 17.3909 1.35094C17.586 1.50362 17.8378 1.69281 18.0138 1.83462C18.0151 1.86534 18.0184 1.89739 18.0263 1.92893C18.0299 1.94314 18.0349 1.95658 18.0398 1.9698C18.0386 1.97097 18.0379 1.97267 18.0367 1.97384L17.9819 2.02594L17.9688 2.10049C17.9364 2.28602 17.8854 2.50704 17.8876 2.7418L17.8579 2.75976L17.7331 2.83297L17.7452 2.97713C17.7512 3.04744 17.759 3.15973 17.7578 3.26724C17.7571 3.3211 17.7541 3.36962 17.7488 3.40871C17.7443 3.44115 17.7391 3.45723 17.7376 3.46215C17.6767 3.55713 17.6294 3.65301 17.6388 3.76978C17.6423 3.81432 17.6556 3.86303 17.6581 3.87308C17.6621 3.8897 17.6652 3.9064 17.667 3.92966C17.6662 3.93412 17.6643 3.94617 17.6585 3.96784C17.6491 4.00289 17.6352 4.04566 17.6185 4.09448C17.6029 4.14021 17.5836 4.19435 17.5687 4.24044C17.5549 4.28314 17.5376 4.34003 17.531 4.38999C17.4897 4.70506 17.4489 4.93997 17.3504 5.22755L17.3257 5.29986L17.3495 5.37261L17.3697 5.43504C17.3201 5.54824 17.2867 5.67355 17.2624 5.79476C17.2306 5.95366 17.211 6.12316 17.1946 6.27799C17.1777 6.43756 17.1649 6.5772 17.1465 6.69386C17.1375 6.75126 17.1278 6.79689 17.1178 6.83173C17.1075 6.86743 17.0998 6.88023 17.0998 6.88023C17.0849 6.90181 17.0564 6.9431 17.0392 7.00239C17.0212 7.06472 17.0148 7.1282 17.0105 7.17349C17.0054 7.2261 17.0031 7.25667 16.9979 7.28622C16.9673 7.45777 16.9094 7.69339 16.8847 7.89834C16.8748 7.98112 16.8757 8.0648 16.8757 8.12603C16.8757 8.19341 16.8745 8.24189 16.8668 8.28501C16.851 8.37283 16.8206 8.46246 16.7837 8.57917C16.7494 8.68727 16.7097 8.81892 16.6992 8.95551C16.6973 8.98118 16.6985 9.00564 16.6997 9.02333C16.701 9.04215 16.7031 9.06135 16.7051 9.07857C16.7096 9.1177 16.7135 9.14488 16.7168 9.17782C16.7174 9.18429 16.7168 9.19045 16.7172 9.19578C16.7011 9.21187 16.6763 9.23812 16.6552 9.27392L16.6341 9.31704C16.6233 9.34414 16.6165 9.37585 16.613 9.39159C16.6082 9.41366 16.6029 9.43993 16.5977 9.46793C16.5874 9.52426 16.5761 9.59374 16.5654 9.66284C16.545 9.79432 16.5238 9.94661 16.521 10.0019C16.5142 10.1329 16.5199 10.1844 16.5039 10.266L16.463 10.4757L16.6692 10.5318C16.7824 10.5628 16.8652 10.5747 16.9418 10.5835C16.9962 10.5897 17.0405 10.5951 17.0922 10.6028C17.1073 10.6156 17.1256 10.6291 17.1479 10.641C17.1895 10.6631 17.236 10.6755 17.2853 10.6778L17.3904 10.6827L17.4627 10.6064L17.4897 10.5781L17.5705 10.4928L17.5485 10.3774C17.5478 10.3739 17.5469 10.3704 17.5462 10.367C17.5559 10.3534 17.5667 10.3388 17.5781 10.323C17.5947 10.3002 17.6146 10.2727 17.6307 10.2489C17.6388 10.2369 17.6482 10.2226 17.6567 10.2076C17.663 10.1964 17.6782 10.1682 17.6873 10.133C17.8127 9.6493 18.0239 9.22306 18.2621 8.75297C18.3348 8.60942 18.3878 8.44354 18.4341 8.29758C18.4826 8.14457 18.5239 8.01168 18.5751 7.90058C18.6056 7.83629 18.6385 7.77539 18.6735 7.71106C18.7075 7.64842 18.7446 7.58069 18.7781 7.51077C18.8415 7.37855 18.8956 7.23047 18.9146 7.05044C18.9288 7.02972 18.9485 7.00387 18.9735 6.97095C18.9974 6.93936 19.0267 6.90088 19.0507 6.86541C19.0628 6.84752 19.0759 6.82695 19.0875 6.80568C19.0943 6.79325 19.103 6.77418 19.1113 6.75134L19.1118 6.75179C19.1135 6.74775 19.1139 6.74327 19.1154 6.73922C19.1178 6.73163 19.1215 6.72412 19.1235 6.71586L19.1226 6.71541C19.1396 6.65723 19.142 6.60137 19.1401 6.56182C19.1808 6.5209 19.2141 6.46969 19.2313 6.40823C19.2446 6.36016 19.2679 6.29394 19.2959 6.20838C19.3198 6.13562 19.3508 6.038 19.3606 5.96138C19.3628 5.94404 19.3662 5.93686 19.3862 5.91557C19.3937 5.90758 19.399 5.90227 19.4104 5.89042C19.4199 5.88066 19.4338 5.86642 19.4473 5.85C19.4745 5.81677 19.5136 5.75956 19.5245 5.6789L19.5335 5.61198L19.52 5.58279C19.6547 5.34494 19.8159 5.07911 19.842 4.72861C19.913 4.62973 19.992 4.5164 20.0428 4.36035C20.0988 4.18784 20.1638 4.06323 20.2678 3.90047L20.3324 3.79897L20.3015 3.72577L20.4447 3.67278L20.4357 3.50392C20.4335 3.46178 20.4302 3.42619 20.4299 3.3867C20.4297 3.36835 20.4303 3.35422 20.4312 3.34449C20.4321 3.3363 20.4329 3.33562 20.4317 3.34C20.5242 3.09525 20.6455 2.85979 20.7712 2.60482C20.8637 2.41741 20.952 2.19373 21.0321 2.01516C21.1177 1.82456 21.2057 1.65652 21.316 1.51936C21.3324 1.49888 21.3872 1.46053 21.4996 1.40663C21.5655 1.3751 21.6648 1.33024 21.7462 1.29032C21.7618 1.29134 21.7791 1.29263 21.7978 1.29391C21.841 1.29685 21.8906 1.30012 21.9402 1.30244C22.0281 1.30656 22.1534 1.31008 22.2442 1.28852C22.3364 1.26659 22.4212 1.21946 22.4625 1.19915C22.5129 1.1744 22.5432 1.16367 22.5752 1.16053C22.5962 1.1585 22.6113 1.16175 22.6718 1.18882C22.7207 1.21069 22.8503 1.27694 23.0073 1.23328C22.9998 1.23533 23.0024 1.2322 23.036 1.23687C23.0572 1.23983 23.0641 1.24129 23.0944 1.24586C23.1175 1.24934 23.1483 1.25338 23.1815 1.25439C23.2895 1.25764 23.4549 1.27298 23.5835 1.27011C23.6967 1.26758 23.8166 1.252 23.9405 1.20678C24.0521 1.25402 24.1591 1.27301 24.2692 1.27056C24.3595 1.26852 24.4503 1.25058 24.536 1.23148L24.5576 1.249L24.6299 1.30828L24.7233 1.29975C24.8598 1.28747 25.1823 1.27903 25.5227 1.26068C25.6874 1.2518 25.853 1.2408 25.9902 1.22565C26.0586 1.21808 26.1235 1.2091 26.1792 1.19825C26.2196 1.1904 26.269 1.17785 26.3149 1.15918Z" fill="#E7794B"/>
</svg>
