<svg width="346" height="78" viewBox="0 0 346 78" fill="none" xmlns="http://www.w3.org/2000/svg">
<path d="M313.488 37.996C313.488 27.5207 320.203 20 330.611 20C339.341 20 344.914 26.5806 344.914 36.9216H320.539V37.996C320.539 46.3225 325.038 52.0974 331.551 52.0974C335.916 52.0974 340.549 49.6129 342.564 44.9124L345.048 46.6583C342.295 52.0974 337.729 55.6563 330.41 55.6563C320.673 55.6563 313.488 48.4713 313.488 37.996ZM320.875 33.6985H338.804C338.602 27.4536 335.245 23.0217 330.208 23.0217C325.172 23.0217 321.815 27.185 320.875 33.6985Z" fill="black"/>
<path d="M299.274 48.0013C299.274 50.6201 300.885 52.0974 303.773 52.0974H305.921V54.6491H287.724V52.0974H289.873C291.887 52.0974 293.029 50.6872 293.029 48.2027V30.2738C293.029 25.7748 292.357 25.4391 287.254 25.842V23.2903C292.559 22.7531 294.372 22.1488 296.453 20.6715H299.274V28.3265C301.624 22.9546 305.384 20 309.279 20C310.286 20 311.226 20.1343 312.233 20.47V26.1777L311.226 27.0507C310.152 26.5135 309.01 26.1777 308.003 26.1777C304.646 26.1777 301.154 28.1251 299.274 32.8255V48.0013Z" fill="black"/>
<path d="M269.054 52.5003C274.963 52.5003 278.791 46.7926 278.791 37.7946C278.791 28.7966 274.963 23.156 269.054 23.156C263.145 23.156 259.317 28.7966 259.317 37.7946C259.317 46.7926 263.145 52.5003 269.054 52.5003ZM252.267 37.7946C252.267 27.3193 259.183 20 269.054 20C278.925 20 285.774 27.3193 285.774 37.7946C285.774 48.2699 278.925 55.6563 269.054 55.6563C259.183 55.6563 252.267 48.2699 252.267 37.7946Z" fill="black"/>
<path d="M234.683 40.4805C239.047 40.4805 241.935 37.0559 241.935 31.6168C241.935 26.2449 239.047 22.8203 234.683 22.8203C230.318 22.8203 227.43 26.2449 227.43 31.6168C227.43 37.0559 230.318 40.4805 234.683 40.4805ZM218.365 62.9084C218.365 59.1481 220.783 56.2606 225.752 54.179C222.73 53.3061 220.648 51.7616 220.648 48.6728C220.648 45.651 223.401 43.7709 227.565 41.8235C223.401 39.9434 220.85 36.2501 220.85 31.6168C220.85 24.7676 226.557 20 234.683 20C236.496 20 238.174 20.2015 239.719 20.6715L252.477 20.2686V23.7604L244.755 23.2903C247.105 25.3048 248.515 28.1922 248.515 31.6168C248.515 38.4661 242.875 43.3008 234.683 43.3008C233.138 43.3008 231.661 43.0994 230.318 42.7636C227.296 44.0395 226.155 45.1139 226.155 46.3225C226.155 52.5003 251.604 45.8525 251.604 61.0954C251.604 66.8031 246.434 72.0407 234.884 72.0407C223.267 72.0407 218.365 67.4746 218.365 62.9084ZM223.804 61.6326C223.804 65.1915 226.087 69.0862 234.817 69.0862C242.472 69.0862 246.098 66.4002 246.098 62.5727C246.098 55.9249 236.697 56.1935 229.378 54.9848C225.886 56.1935 223.804 58.6109 223.804 61.6326Z" fill="black"/>
<path d="M185.537 37.996C185.537 27.5207 192.252 20 202.66 20C211.39 20 216.963 26.5806 216.963 36.9216H192.588V37.996C192.588 46.3225 197.087 52.0974 203.6 52.0974C207.965 52.0974 212.598 49.6129 214.613 44.9124L217.097 46.6583C214.344 52.0974 209.778 55.6563 202.459 55.6563C192.722 55.6563 185.537 48.4713 185.537 37.996ZM192.924 33.6985H210.852C210.651 27.4536 207.293 23.0217 202.257 23.0217C197.221 23.0217 193.864 27.185 192.924 33.6985Z" fill="black"/>
<path d="M171.322 48.0013C171.322 50.6201 172.934 52.0974 175.821 52.0974H177.97V54.6491H159.773V52.0974H161.922C163.936 52.0974 165.078 50.6872 165.078 48.2027V30.2738C165.078 25.7748 164.406 25.4391 159.303 25.842V23.2903C164.608 22.7531 166.421 22.1488 168.502 20.6715H171.322V28.3265C173.673 22.9546 177.433 20 181.328 20C182.335 20 183.275 20.1343 184.282 20.47V26.1777L183.275 27.0507C182.201 26.5135 181.059 26.1777 180.052 26.1777C176.694 26.1777 173.203 28.1251 171.322 32.8255V48.0013Z" fill="black"/>
<path d="M141.145 40.4805C145.51 40.4805 148.398 37.0559 148.398 31.6168C148.398 26.2449 145.51 22.8203 141.145 22.8203C136.781 22.8203 133.893 26.2449 133.893 31.6168C133.893 37.0559 136.781 40.4805 141.145 40.4805ZM124.828 62.9084C124.828 59.1481 127.246 56.2606 132.215 54.179C129.193 53.3061 127.111 51.7616 127.111 48.6728C127.111 45.651 129.864 43.7709 134.028 41.8235C129.864 39.9434 127.313 36.2501 127.313 31.6168C127.313 24.7676 133.02 20 141.145 20C142.958 20 144.637 20.2015 146.182 20.6715L158.94 20.2686V23.7604L151.218 23.2903C153.568 25.3048 154.978 28.1922 154.978 31.6168C154.978 38.4661 149.338 43.3008 141.145 43.3008C139.601 43.3008 138.124 43.0994 136.781 42.7636C133.759 44.0395 132.617 45.1139 132.617 46.3225C132.617 52.5003 158.067 45.8525 158.067 61.0954C158.067 66.8031 152.897 72.0407 141.347 72.0407C129.73 72.0407 124.828 67.4746 124.828 62.9084ZM130.267 61.6326C130.267 65.1915 132.55 69.0862 141.28 69.0862C148.935 69.0862 152.561 66.4002 152.561 62.5727C152.561 55.9249 143.16 56.1935 135.841 54.9848C132.349 56.1935 130.267 58.6109 130.267 61.6326Z" fill="black"/>
<path d="M92 37.996C92 27.5207 98.7149 20 109.123 20C117.852 20 123.426 26.5806 123.426 36.9216H99.0507V37.996C99.0507 46.3225 103.55 52.0974 110.063 52.0974C114.428 52.0974 119.061 49.6129 121.076 44.9124L123.56 46.6583C120.807 52.0974 116.241 55.6563 108.922 55.6563C99.185 55.6563 92 48.4713 92 37.996ZM99.3864 33.6985H117.315C117.114 27.4536 113.756 23.0217 108.72 23.0217C103.684 23.0217 100.327 27.185 99.3864 33.6985Z" fill="black"/>
<path d="M48.1603 73.6527C48.1196 75.0917 47.5705 76.3453 47.206 77.6989C47.1711 77.8285 47.2193 77.9014 47.3008 77.9901C47.7395 78.0675 47.9533 77.6709 48.2857 77.514C49.6546 76.8681 50.0616 76.0676 50.9391 74.8253C51.1081 74.566 51.6405 73.7552 51.7532 73.5007C51.9367 73.1879 52.5377 71.2772 52.6481 70.8455C52.9883 69.5105 52.7595 67.5821 52.4495 66.2348C51.766 63.7614 50.0855 61.8286 48.8094 59.6734C48.4199 59.0153 48.029 58.2264 47.7378 57.517C47.5546 57.0706 47.4255 56.4222 47.2654 56.028L47.1985 55.6656L46.9594 54.8884C46.9154 54.5084 46.7142 53.6228 46.7919 53.3443C47.0316 53.0928 47.1174 53.1465 47.4363 53.2215L47.7055 53.2824C47.8642 53.655 49.2452 54.3941 49.6958 54.7275C49.78 54.8739 50.4536 55.5143 50.6185 55.6692C50.7236 55.9524 51.3653 56.6275 51.5796 57.0096C52.1969 58.1085 52.8803 59.9117 53.6312 60.8865C54.2473 62.1115 55.0126 63.2557 55.9092 64.2931C56.1584 64.5829 56.4499 64.8334 56.7733 65.0362C57.2338 65.329 59.509 66.3807 60.0229 66.4182C61.7464 66.7918 63.8032 66.3902 65.3025 65.4488C66.0127 65.0025 66.3559 64.5195 66.936 63.9951C67.1753 63.7142 67.7455 63.1614 67.8953 62.8806C69.0381 60.7343 69.8151 58.0288 67.7658 56.1879C67.3472 55.4216 66.4709 54.8221 65.6666 54.5455C65.1783 54.3912 64.4031 54.3379 63.9083 54.4465L63.6731 54.451C63.2684 54.4029 62.5245 54.4133 62.5878 55.045C62.6134 55.2988 62.9693 55.4945 63.1737 55.6337C63.942 56.3557 64.7155 56.7314 64.874 57.9587C65.0894 59.6324 63.7184 61.0795 62.0414 61.1718C61.2592 61.2166 60.4915 60.9481 59.9073 60.4256C59.5879 59.8987 59.0252 59.5054 58.7053 58.9961C58.3348 58.4065 58.2483 57.5869 57.944 56.9575C57.5166 54.6485 56.5956 51.6683 55.2827 49.6982C54.8547 49.0564 53.3286 47.7009 53.2078 47.0733C53.8547 46.7874 54.3059 46.8646 55.0051 46.9772L55.3111 46.996C55.9644 47.3055 56.5509 47.3388 57.2106 47.5754C58.1861 47.9253 59.0938 48.5062 60.0484 48.9161C60.3208 49.0507 60.5536 49.3661 60.8178 49.5076C61.6146 49.9344 62.3044 50.4738 63.0483 50.9687C63.6841 51.3919 64.5622 51.7632 65.2811 52.0302L65.6486 52.2563C67.3199 52.743 70.1165 53.0784 71.7157 52.369C73.6552 51.7936 75.089 50.8818 76.6499 49.6167C77.2317 49.092 77.3833 48.8243 77.6562 48.1068C77.8095 47.8621 77.9524 47.6815 78 47.4003L77.9541 47.2404C77.3159 47.252 76.3996 47.6215 75.7643 47.7713C75.1192 47.9233 74.4223 48.057 73.7638 48.1312C73.2592 48.1506 72.6855 48.2055 72.1855 48.1853C70.4103 48.1133 68.9284 47.1109 67.4604 46.2223C67.2885 46.1183 67.1085 45.9695 66.9384 45.8771C66.5493 45.6018 66.1945 45.2317 65.806 44.9181C64.9489 44.2263 64.165 43.6253 63.1952 43.0971C62.996 42.9885 62.7417 42.7649 62.5872 42.6899C63.1743 42.57 64.64 43.0007 65.3339 43.1391C67.9546 43.6619 70.8325 42.8742 72.6454 40.8757C72.7772 40.7303 72.844 40.5123 72.8986 40.3245C73.2401 39.7068 73.2668 39.4926 73.4613 38.8238C73.7267 38.0209 73.344 36.5195 72.7807 35.8798C72.6739 35.7509 72.4712 35.4809 72.3423 35.4008C72.1042 35.0606 71.7674 34.883 71.3981 34.6902C70.1177 34.022 69.2716 34.0313 67.8965 34.4406C67.407 34.5863 66.9006 34.948 66.6736 35.4182C66.6259 35.5436 66.6341 35.5564 66.6294 35.6934C66.9058 35.9106 67.5156 35.7869 67.9221 35.7735C68.4813 35.8345 68.7972 36.0981 69.2025 36.4557C69.6874 37.7637 69.163 38.2124 67.864 38.4058C66.8466 38.5567 65.968 38.2711 64.9896 38.0307C64.8426 37.9872 64.6533 37.9233 64.5105 37.8891C63.9066 37.7451 62.3828 36.8621 61.8869 36.7494C61.481 36.4905 61.1645 36.3831 60.6924 36.296C61.4909 35.878 62.2934 35.4751 63.0465 34.9788C63.2202 34.8644 63.3857 34.728 63.5814 34.6542C64.7242 33.9698 65.7479 33.1936 66.7252 32.2914C66.7798 32.2415 67.1149 31.9796 67.1277 31.9634C67.3913 31.8182 67.4372 31.7677 67.6468 31.5628C67.9586 31.3741 68.2223 31.2133 68.5486 31.0525C70.2617 30.0992 70.8006 29.7944 72.8487 29.8252C73.8562 29.9274 74.7888 29.9309 75.8015 30.1834C76.2695 30.2995 77.5244 30.9422 77.9053 30.7988C78.1876 30.4336 77.644 29.8862 77.4512 29.5222C77.1348 28.9242 76.3874 28.0127 75.7597 27.7236C75.4345 27.4438 75.1081 27.2394 74.7516 27.0043L74.6535 26.9619C74.0826 26.2844 72.1832 25.7938 71.3609 25.5407C69.228 24.8841 66.7723 25.1814 64.7689 26.1172C64.3061 26.3378 63.6563 26.5335 63.251 26.8406C62.5652 27.4426 61.8962 27.8188 61.1442 28.3129C59.9921 29.0699 58.8278 29.7381 57.5189 30.2478C56.3918 30.6867 54.6573 31.2255 53.4471 31.092C53.3153 31.0775 53.2433 30.9312 53.1968 30.833C53.2084 30.5358 54.1683 29.1901 54.4407 28.6647C54.9116 28.0928 55.5666 27.5361 56.1374 27.0595C56.2298 26.9817 56.8842 26.4777 56.908 26.4493C57.4266 26.1608 58.8307 25.7358 59.0578 25.4165C59.3626 25.2301 59.6565 25.0391 59.9857 24.9004L60.3074 24.7541C61.3521 24.1666 64.6063 22.2949 65.1132 21.251C65.5197 20.4975 65.9843 19.3439 66.2618 18.5416C67.0197 16.4086 66.3542 14.1079 65.1266 12.3047C64.9117 12.0237 64.2155 11.1837 63.9234 11.0078C62.7336 9.74971 59.9863 8.71806 58.2837 9.04433C57.0509 9.305 56.4667 9.94883 55.4807 10.7198C55.1044 11.0136 54.5336 12.2757 54.4645 12.7721C54.3768 13.4037 54.2804 14.6519 54.6195 15.2458C55.1119 15.9779 55.8506 14.53 56.0643 14.3047C56.4899 13.8554 57.0276 13.5036 57.5027 13.1552C59.1756 13.0124 60.3266 13.305 60.9351 15.0112C61.2743 16.1451 61.3178 16.1602 60.9915 17.2917C60.6419 18.1236 60.3997 18.0417 59.7395 18.6484C58.0549 20.1491 55.0457 20.541 52.9169 21.1959C51.5389 21.7248 50.6696 21.9552 49.4138 22.9509C48.6612 23.5471 47.7505 24.4911 46.9385 24.9317C46.9943 24.4888 46.8802 24.0057 46.9341 23.6133C47.3223 20.7901 48.6783 18.195 50.3549 15.9094C52.137 13.4803 53.058 10.7552 52.7619 7.71893C52.54 5.44781 51.0424 3.08496 49.5657 1.37872L49.4105 1.21617C49.1105 0.88293 48.7324 0.629224 48.3102 0.478861C48.0108 0.261154 47.6117 -0.1551 47.2923 0.161301C47.178 0.642579 47.5591 1.50237 47.7422 1.99526C47.766 2.2478 47.8424 2.49106 47.9082 2.73779C47.9548 3.18598 48.0884 3.60281 48.129 4.17988C48.2715 6.20485 48.1843 7.45072 47.0593 9.19296C46.7252 9.71081 46.5922 10.0766 46.1324 10.5979C45.7951 11.1099 45.6532 11.3125 45.2394 11.7735C45.0017 11.9256 43.6572 13.8118 43.5069 14.1561C43.3256 14.4638 43.0341 14.9758 42.7728 15.2052L42.74 15.1709L42.8945 14.9544C42.7334 14.6461 43.0786 13.6533 43.0901 13.2342C43.3603 10.5741 43.4338 8.35928 41.6236 6.09687C40.938 5.23939 39.5665 4.62459 38.5158 4.54099C36.6877 4.39585 35.1065 5.31022 34.4954 7.06001C34.4209 7.27365 34.3132 7.41356 34.2822 7.65681C33.9523 8.67858 34.3827 10.3355 35.1512 11.0983C35.3118 11.258 35.423 11.4083 35.6617 11.417C36.0917 11.0153 35.6166 10.1811 35.8011 9.76015C35.9924 9.32299 36.3203 8.88875 36.7469 8.67104L36.7845 8.65188C37.0668 8.64143 37.3612 8.65188 37.6445 8.65653C39.6553 10.2263 37.3232 15.0124 36.3766 16.8249L36.3414 16.8911L36.2606 17.0025C35.8627 16.4806 35.6853 15.9187 35.3176 15.4449C34.7694 14.4783 33.9001 13.2243 33.2204 12.3436C32.8474 11.86 32.3894 11.4136 32.0296 10.916C30.3859 8.53693 29.6427 7.48729 29.8816 4.54912C29.9375 3.33925 30.1235 2.14854 30.6204 1.03678C30.7603 0.723861 30.9217 0.427198 30.8616 0.0782859C30.3581 -0.361773 28.5164 1.17611 28.2003 1.64113C27.8036 2.22516 26.8741 3.269 26.6251 3.89019L26.5838 3.94999C26.111 4.64258 26.0204 5.33286 25.7246 6.10441C24.6892 8.71167 25.3357 12.1938 26.7823 14.552C27.9295 16.4214 29.3842 18.2351 30.2521 20.3123C30.7101 21.4078 30.9498 22.8562 31.172 24.0365C31.1866 24.31 31.1847 24.5857 31.1859 24.8592C30.2059 24.7715 30.1197 24.3872 29.3777 24.0557C28.2419 23.2946 27.8906 22.8522 27.0153 21.8362C25.958 20.3674 25.2791 18.5718 24.2947 16.9834C23.4171 15.568 22.7207 13.7735 21.1655 12.8696C20.9065 12.7709 20.5736 12.6333 20.3163 12.5509C19.7419 12.2182 19.0328 11.8205 18.3959 11.6446C17.2937 11.3398 15.5785 11.4507 14.5129 11.741C14.3765 11.7793 14.2422 11.8246 14.1104 11.8768C13.3202 12.2321 13.0012 12.3663 12.3093 12.9189C11.9153 13.1477 10.8814 14.1828 10.5657 14.5509C9.53303 15.7555 8.90454 17.9157 9.01441 19.4989C9.10018 19.9227 9.21312 20.3906 9.41108 20.7756C9.50388 20.9544 10.7148 22.4626 10.8517 22.5817C11.1221 22.8708 12.2294 23.4461 12.63 23.5117C13.2251 23.6087 15.0954 23.8171 15.4696 23.186C15.5325 22.5282 13.6053 21.7834 13.2481 20.4458C12.5901 17.9819 15.4106 15.9575 17.488 17.2069C19.3964 18.3541 20.0369 20.5892 20.5304 22.703C20.5549 22.9056 20.8068 23.4763 20.8651 23.7689C21.3139 26.0226 22.1641 27.8066 23.7473 29.4937C24.2298 30.0081 24.6531 30.5561 25.2043 31.0908C22.554 31.4937 18.6441 29.5837 16.5148 28.076C16.2102 27.8606 15.8784 27.6684 15.5613 27.4699C15.1209 26.934 12.7004 25.9094 11.9447 25.647C11.4834 25.4867 10.8581 25.3962 10.3605 25.3346C9.54882 25.2818 8.38813 25.143 7.6287 25.3039C7.04923 25.3817 5.13253 25.9848 4.59359 26.2647C2.95632 27.1152 1.00914 28.368 0.213411 30.1056C0.100524 30.3523 0.0214906 30.4894 0.103194 30.7396C0.340814 30.9062 0.744571 30.6815 1.04984 30.5584C2.6525 29.9117 3.82951 29.9088 5.4972 29.8264C7.34596 29.6505 8.68458 30.6809 10.2659 31.4763C10.6555 31.8757 10.9729 32.0621 11.4361 32.3663C11.7738 32.7471 13.4032 34.076 13.86 34.2786C14.3193 34.7216 14.8797 34.8238 15.5112 35.3788C14.6079 35.3712 13.2636 34.8719 12.3836 34.9021C11.9326 34.8876 11.4897 34.7593 11.049 34.7309C9.60196 34.638 8.08321 35.2081 6.84122 35.9047C5.87657 36.4464 5.48251 36.9103 5.05541 37.8792C5.00605 37.9553 4.94165 38.0476 4.90594 38.1271C3.27216 41.7821 7.14742 45.1841 10.6091 43.2393C10.9972 43.0213 11.5455 42.7625 11.3385 42.2133C10.8003 42.057 9.4008 42.4785 8.87162 41.6235C8.52157 41.0579 8.53638 40.3053 9.14809 39.9175C9.96971 39.3962 10.9707 39.492 11.8798 39.7021C12.8067 39.9547 13.4074 39.9378 14.3331 40.4823C15.1649 40.7584 16.8775 41.683 17.3568 41.7588C15.7051 42.4433 12.5436 44.3012 11.3928 45.6527C8.09703 47.7747 8.09244 48.342 3.93914 48.0927C3.10184 48.0192 2.24108 47.8021 1.44982 47.528C1.05855 47.3924 0.484479 47.0829 0.0892582 47.1048C0.000818492 47.2531 -0.0299003 47.3527 0.0338018 47.5232C0.724479 49.3721 2.5647 50.6507 4.17636 51.5132C5.06035 52.147 7.41338 52.7046 8.54794 52.81L8.75856 52.7872C9.10372 52.747 10.4512 52.6745 10.6139 52.6137C11.6204 52.5282 12.1913 52.4385 13.063 51.9157C14.1986 51.7207 17.1868 49.3704 18.3221 48.7487C19.8021 48.1277 21.0451 47.3343 22.6932 47.0868C23.0606 47.0317 23.4761 46.8725 23.8531 46.8444C24.117 46.8194 24.4592 46.7551 24.6943 46.8398C25.107 47.3745 24.195 48.1111 23.9261 48.5227C23.0354 49.8854 21.834 51.233 20.3034 51.875C19.6927 52.1311 19.1526 52.4274 18.6009 52.7899C18.2191 53.0342 17.829 53.1629 17.454 53.4504L17.4038 53.4898C17.3892 53.495 17.3747 53.5002 17.3601 53.5054C15.7537 54.3913 14.1369 55.1602 12.9992 56.6776C12.7541 57.0044 12.3435 58.0355 12.1585 58.4503C12.1198 58.5181 12.0888 58.5762 12.0554 58.649C10.3894 62.2717 12.3489 66.414 15.7288 68.1888C16.6443 68.6696 18.9293 69.2558 19.8762 68.9021C21.0655 68.7318 22.0036 67.8961 22.7444 67.0032C23.6884 65.8652 23.6899 64.4866 23.5615 63.0968C23.5354 62.8149 23.2334 62.5361 22.945 62.6803C22.6621 62.8218 22.4417 63.1005 22.2415 63.3425C21.3109 64.5833 20.3443 65.1631 18.775 64.607C18.5522 64.5277 18.3331 64.4383 18.1185 64.339C16.8335 63.0908 16.6281 62.1548 17.1649 60.4961C18.1655 59.0791 19.3084 58.7297 20.7267 58.1164C22.4666 57.5596 24.1397 57.4287 25.7631 56.6309C26.0058 56.5116 26.3041 56.4247 26.5269 56.281C27.8944 55.8379 29.4315 54.4831 30.4362 53.4849L30.8432 53.1125L31.0203 52.9629L31.1199 52.9953C31.3303 53.484 31.0598 54.6851 30.9613 55.1957C30.4748 57.721 29.164 59.8554 27.7981 61.9926C27.2729 62.8142 26.753 63.372 26.3701 64.3584L26.3223 64.4595C25.1117 66.3848 24.9666 69.8853 25.7544 71.9779C25.953 72.5054 26.1234 73.1894 26.3879 73.6782C26.6032 74.2361 28.1109 76.3143 28.6175 76.7509C28.9986 77.0794 29.2946 77.2696 29.7315 77.5223C30.0773 77.7871 30.2717 78.0171 30.6886 77.9678C30.9681 77.7059 30.772 77.3875 30.636 77.087L30.6245 77.026C30.508 76.4381 30.2479 75.9446 30.125 75.4036C29.9022 74.4229 29.8722 73.3215 29.8236 72.3147C29.8679 70.7814 30.3353 69.8036 31.0959 68.5246C31.3953 68.021 31.5175 67.6097 31.9674 67.1751C32.0125 67.1315 32.0191 67.1042 32.0499 67.0433C32.6744 66.1714 34.4694 64.3697 34.7969 63.3822L35.2862 62.7979L35.2219 63.3285C35.1761 63.738 35.0973 64.1502 35.0482 64.5693C34.9106 65.1223 34.9084 65.7995 34.8357 66.3746C34.5072 68.9756 35.9825 72.7872 38.8539 73.3496L39.0513 73.441C39.5425 73.5887 40.0364 73.5588 40.539 73.4616L41.2356 73.2598C42.5109 72.7575 42.9578 72.3584 43.5712 71.0505C43.7832 70.5985 44.008 69.8412 43.8329 69.3511C43.695 68.5644 43.3706 66.7493 42.3792 66.5808C42.2777 66.6409 42.2667 66.6183 42.24 66.7776C42.0348 68.0028 42.5028 68.057 41.6472 69.1993C41.1173 69.2386 40.7211 69.6016 40.194 69.185C39.7951 68.8697 39.6226 68.3935 39.591 67.898C39.4486 65.6661 40.7798 62.9019 41.7622 60.9503C42.3207 61.6101 42.3806 62.0695 42.8299 62.6907C43.2612 63.3797 44.824 65.9697 45.4066 66.3913C46.546 67.6378 48.1456 70.1949 48.2347 71.8852C48.2602 72.3681 48.1486 73.0564 48.1586 73.5932L48.1603 73.6527Z" fill="#EB663A"/>
</svg>
